/* XPM */
static char     *background[] = {
"64 64 19 1",
"  c #FFFFFF",
". c #000000",
"# c #872D14",
"& c #561707",
"@ c #F8D245",
"? c #D4122E",
", c #A0A0A0",
"- c #7EEEF1",
"1 c #1FB7D3",
"2 c #1F73D3",
"3 c #D3BA0D",
"4 c #F7CE81",
"5 c #F3DCB0",
"6 c #585858",
"7 c #E49B11",
"8 c #FFCE09",
"9 c #F1A0C6",
"0 c #F07BB2",
"A c #DD1894",
"1111111111111111111111111111111111111111111111111111111111111111",
"1111111111111111111111111111111111111111111111111111111111111111",
"1111111111111111111112221111111111111111111111111111111111111111",
"1111111111111111111112221111111111111111111111111111111111111111",
"111111111111111111111222111111111111   1111111111111111111111111",
"111111111111111111111111111111111111   1111111111111111111111111",
"111111111111111111111111111111111111   1111111111111111111111111",
"1111111111111111111111111111111111111111111111111111111111111111",
"11111111111111111111111111111111111111111111111111---11111111111",
"11111111111111111111111111111111111111111111111111---11111111111",
"1111111111111111111-111111111111111111111111111111---11111111111",
"1111111111111-1111-111111111111111111111111111111111111111111111",
"11111111111--1--1--111111111111111111111111111111111111111111111",
"1111111111---111--1111111111111111111111111111111111111111111111",
"11111111--111111111111111111111111111111111111111111111111111111",
"1111111-11111111111111111111111111111111111111111111111111111111",
"1111111111111111111111111111111111111111111111111111111111111111",
"11111111111111111111111111111111111111111111111111111111 1111111",
"1111111111111111111111111111111111111111111111   111111  -111111",
"111111111111111111111111111111111111111111111  -- 1111  -1111111",
"1111111111111111111111111111111111111111111   -1-  11  -11111111",
"111111111111111111111111111111111111111111  -1111-    -111111111",
"111111111111111111111-   1111111111111111 -1111111-  -1111111111",
"111111111111111111111-   1111111111111111111111111---11111111111",
"111111111111111111111-   111111111111111111111111111111111111111",
"1111111111111111111111111111111111111111111111111111111111111111",
"1111111111111111111111111111111111111111111111111111111111111111",
"1111111111111111111111111111111111111111111111111111111111111111",
"1111111111111111111111111111111111111111111111111111111111111111",
"1111111111111111111111111111111111111111111111111111111111111111",
"1111111111111111111111111111111111111111111111111111111111111111",
"11111111111111111111111111111111111111111111111111111111   11111",
"11111111111111111111111111111111111111111111111111111111   11111",
"11111111111111111111111111111111111111111111111111111111   11111",
"1111111111111111111111111111111111111111111111111111111111111111",
"1111112221111111111111111111111111122211111111111111111111111111",
"1111112221111111111111111111111111122211111111111111111111111111",
"1111112221111111111111111111111111122211111111111111111111111111",
"1111111111111111111111111111111111111111111111111111111111111111",
"1111111111111111111111111111111111111111111111111111111111111111",
"11111111111111   11111111111111111111111111111111111111111111111",
"1111111111111      11111 111111111111111111111111111111111111111",
"11111111111    111  11  1111111111111111111111111111111111111111",
"1111111111   111111    11111111111111111111111111111111111111111",
"11111111   111111111  111111111111111111111111111111111111111111",
"1111111   111111111111111111111111111111111111111111111111111111",
"1111111111111111111111111111111111111111111111111111111111111111",
"1111111111111111111111111111111111111111111111111111111111111111",
"1111111111111111111111111111111111111111111111111111111111111111",
"1111111112221111111111111111111111111111111111111111111111111111",
"1111111112221111111111111111111111111111111111111111111111111111",
"1111111112221111111111111111111111111111111111111111111111111111",
"1111111111111111111111111111111111111111111111---111111-11111111",
"11111111111111111111111111111111111111111111-222211111-211111111",
"11111111111111111111111111111   1111111111-2221122-11-2211111111",
"11111111111111111111111111111   11111111-2221111122-122111111111",
"11111111111111111111111111111   11111111-22111111122211111111111",
"1111111111111111111111111111111111111111121111111111111111111111",
"1111111111111111111111111111111111111111111111111111111111111111",
"1111111111111111111111111111111111111111111111111111111111111111",
"1111111111111111111111111111111111111111111111111111111111111111",
"1111111111111111111111111111111111111111111111111111111111111111",
"1111111111111111111111111111111111111111111111111111111111111111",
"1111111111111111111111111111111111111111111111111111111111111111"};
