/* XPM */
static char *bricks2[] = {
"64 64 220 2 ",
"   c #28261D",
".  c #2A251F",
"X  c #2D2A23",
"o  c #2C2924",
"O  c #332D25",
"+  c #322E29",
"@  c #2E302A",
"#  c #363126",
"$  c #393127",
"%  c #34332C",
"&  c #3B352C",
"*  c #363A2E",
"=  c #3C3A2D",
"-  c #343433",
";  c #3B3631",
":  c #363933",
">  c #3C3B33",
",  c #343639",
"<  c #373A3B",
"1  c #3B3D3C",
"2  c #40372D",
"3  c #41392E",
"4  c #433C33",
"5  c #483F34",
"6  c #433F39",
"7  c #3C432D",
"8  c #394532",
"9  c #3C4234",
"0  c #3D423D",
"q  c #464236",
"w  c #4A4136",
"e  c #414B37",
"r  c #44423B",
"t  c #4C453C",
"y  c #444B3C",
"u  c #4C4A3C",
"i  c #50473C",
"p  c #524A3E",
"a  c #49583E",
"s  c #3B3E41",
"d  c #3D4244",
"f  c #3F454A",
"g  c #444542",
"h  c #4B4641",
"j  c #454A43",
"k  c #4D4A43",
"l  c #42464B",
"z  c #454A4D",
"x  c #4D4D4B",
"c  c #534C44",
"v  c #594F45",
"b  c #524E4A",
"n  c #4A5447",
"m  c #4D544D",
"M  c #555145",
"N  c #5B5246",
"B  c #55514D",
"V  c #5A544C",
"C  c #515E4D",
"Z  c #5D594D",
"A  c #464C52",
"S  c #4B4E53",
"D  c #4D5153",
"F  c #4E545A",
"G  c #555453",
"H  c #5A5653",
"J  c #565956",
"K  c #5D5955",
"L  c #53565B",
"P  c #55595C",
"I  c #5C5B5B",
"U  c #60574B",
"Y  c #63594D",
"T  c #695D4F",
"R  c #635C54",
"E  c #695E53",
"W  c #625E5B",
"Q  c #54634A",
"!  c #5B6459",
"~  c #6B6155",
"^  c #65615D",
"/  c #6B645C",
"(  c #66685A",
")  c #766757",
"_  c #71665B",
"`  c #746A5E",
"'  c #7A6D5E",
"]  c #687159",
"[  c #565B62",
"{  c #5B5E63",
"}  c #585F68",
"|  c #615F60",
" . c #5C6165",
".. c #57606B",
"X. c #5D636A",
"o. c #5E6873",
"O. c #646363",
"+. c #6A6663",
"@. c #6D6965",
"#. c #63666A",
"$. c #696768",
"%. c #65696D",
"&. c #6C6B6C",
"*. c #736B63",
"=. c #7A6E63",
"-. c #726E6A",
";. c #786F68",
":. c #6D706E",
">. c #777066",
",. c #7C7266",
"<. c #75716D",
"1. c #7B736C",
"2. c #656B73",
"3. c #6C6E72",
"4. c #656E7A",
"5. c #696F79",
"6. c #6E7175",
"7. c #6A737B",
"8. c #6C727B",
"9. c #737374",
"0. c #7B7673",
"q. c #7E7975",
"w. c #73767A",
"e. c #787779",
"r. c #75787D",
"t. c #7B7B7C",
"y. c #82766B",
"u. c #867A6B",
"i. c #847A6E",
"p. c #827B74",
"a. c #897E72",
"s. c #837E7B",
"d. c #878077",
"f. c #8D8175",
"g. c #85807D",
"h. c #8B837C",
"j. c #91867C",
"k. c #968878",
"l. c #958A7E",
"z. c #A0927F",
"x. c #6E7681",
"c. c #6F7984",
"v. c #717781",
"b. c #747A83",
"n. c #7A7D83",
"m. c #757E89",
"M. c #807F81",
"N. c #7D8086",
"B. c #77808C",
"V. c #7C828B",
"C. c #7C8592",
"Z. c #7B8695",
"A. c #7E8995",
"S. c #848283",
"D. c #8A8683",
"F. c #8D8886",
"G. c #82858B",
"H. c #85888E",
"J. c #8C8B8C",
"K. c #928A84",
"L. c #998E85",
"P. c #948E8A",
"I. c #9D9084",
"U. c #95918D",
"Y. c #9C928B",
"T. c #818790",
"R. c #848A94",
"E. c #8A8D93",
"W. c #848D9A",
"Q. c #908F92",
"!. c #8D9197",
"~. c #8C929C",
"^. c #939395",
"/. c #9A9692",
"(. c #9D9896",
"). c #93959C",
"_. c #96989E",
"`. c #9A9A9C",
"'. c #A5988B",
"]. c #A39B93",
"[. c #AA9D94",
"{. c #A19E9D",
"}. c #AEA296",
"|. c #A5A09E",
" X c #ABA39B",
".X c #8794A5",
"XX c #8C96A3",
"oX c #8C9AAB",
"OX c #9399A3",
"+X c #979DA7",
"@X c #9B9DA3",
"#X c #939DAA",
"$X c #8E9EB1",
"%X c #A09FA3",
"&X c #99A0AB",
"*X c #9DA3AB",
"=X c #9AA6B6",
"-X c #A4A2A3",
";X c #AAA7A7",
":X c #A3A5AC",
">X c #AAA9AC",
",X c #B2ABA7",
"<X c #B7B1AD",
"1X c #A3AAB5",
"2X c #A5ABB7",
"3X c #AAADB4",
"4X c #A3ADBB",
"5X c #ABB2BE",
"6X c #B4B1B3",
"7X c #BAB6B6",
"8X c #C3BDBC",
"9X c #A6B4C6",
"0X c #ACB5C4",
"qX c #B1B6C1",
"wX c #B0B9C9",
"eX c #C0BEC2",
"rX c #B8C0CD",
"tX c #BAC6D8",
"yX c #CBC4C1",
"uX c #DAD7DB",
"r.v p R E M.M.`.W.X.} [ L } L L P [ } y 9 D A S L S [ [ [ L S 5.w.3.b.v.P O.e.0.9.7.[ b.D S [ L F b.m w ~ Z W E.{ } X.F D ..L L ",
"W.P./.K.'./.Q.K.8XR.H.b.R.G.m.oXb.V.m.< k 9.5.3.%.%.2.#.%.5.b.3.2XR.{.H.#.X. .N.t.r.b.n.5.2.8.2.V.E.} k V 1.n.&.~..XV.N.r.V.~.~.",
"$.!.*X-X%XU.n.K.s.e.9.9.6.9.9.s.-.3.v.[ k P.O.%.[ O.3.O.{ K #.%.M.e.+.J.G &.&.S.t.#. .J #.H X.I w.c.{ j B p.g.V.~.v.6.#.O.&.^ $.",
"@.b.OX0XQ.M.9.0.p.-.O.K W K b K K &.9.s h V B <.-.&.@.G b G b b | 9.e.-.I I I @.&.b O.@.H b R G H I ..s G 1.s.-.v R ^ ^ | b ! B ",
"K 9.R.V.E.M.J.oXt.W B K W P W R *.a.| , 4 +.O.9.+.-.+.K V W G G B &.e.3.I G I L ^ &.~ Y R K *.x x | 2.d g -.-./ R R W G J W K 9.",
"V O.v.t.8.m.K k c R H H W #.b.J.M.n.L , h Z K H @.;.E / G G G K G b | b W B L I I W / B _ 0.g.b W D F , 6 p.-.9.5.*.| -.P G G R ",
"&.*.@.K W 3.K b s.R U &.@.H H $.M.9.S s b W @.I #.9.-.s.9.b g h h K G { V x K O.I 8.N.OXoX~.&.I +.{ x g c ].p.~ +.M.| +.I -.| H ",
"9.*.V R / W W +.*.E *.y.b i R -.Y H { 1 6 @.^ B b &.J.&.H G K O.&.O.b b G G k k W B b ~ O.I ^ ^ R #.g l Z Y l.i.*.i.+.W H K / 8.",
"/ @.^ R / Z t 6.a.L.[.0.u.L.y.;.k V L s h / c r t c 4 k t k t R K t r h t b b w t 5 6 H K J -.*.=.-.l g a $ Y u.K.j.R B k p t N ",
"w R N i c R B > i b 5 5 i 4 i p & # & 9 n q 4 O = + & & + & O i v ; 4 + & = 4 w h r & c I q R c 5 6 & M M p i p 5 Y t # O $ & $ ",
"t q * * 9 7 9 = & y k p c N v V 4 % : y n 8 y * % ; - 9 & ; < 9 k 9 * & % - > V t 5 4 * M % 9 * N r C a Q ] w T V k > * * = = 4 ",
"6 G }  .} D D %.& 3.G C w 3 c Z m X.4. .B n ! %.P [ X.#.8.X.L P x.x.$X} 4.#.r.9.3./ *.E 8.W. ...t.t.3.2.n i i p V H r 5.[ 7.J & ",
").b.A.v.W.3.8.3.s.r.E.E.n.W p.y.L.m.#Xx.} t W t.3.#. .3.E.V.O.M.s.m.#.8.%.%.M.&.' *.1.y.D.h.r.3.9.9.3.8.z i p @.s.^.(.t.7.V.e.J.",
"$. .3.9.9.%.O.#.| %.3.O.r.F.P.1.^.&.@.%.o.> W 0.I b G K #.$.G 9.G G b W K K @.t.0.<.K.y.,.y.1.&.I H W { s * 1.E.).s.S.q.-.3.3.&.",
"I G O.R *.O.@.&.W O.b %.+.Q.~.n.I H G  .A : Y W } G G b g b H I O.+./ / W x t.K 1.p.,._ T T T ' &.G -.` J 1 @.-.R 5.t.0.s.O.&.I ",
"K K O.b.t.9.&.x x W O.3.E.OXB H W I b 4.A % K O.O.b K G g W -.W &.W R R -.b G r.E.S.K.K.d.,.y._ -.O.-.D.&.W 3Xq.W K 6./ &.K H G ",
"b -.H H H W G I R G b | _ / / k R W $.X.l 6 /.3.-.W K W G $.-.0.K 9.<.@.<.W k K 9.E.`.U.-X(.F.K.W b G.M.m ^  Xg.K Y ! v b W K c ",
"4 W I Y V +.G H | G 5.#./ R E W E *.| %.s j s.-.&.+.H G b &.9.+.W W.S.V.9.B x B.4X=X=X=X9X4XJ.&.B b K J.4 *.y.Y ~ T ~ ( N E K H ",
"r./ I 3.w.D.{ c V K v &._ y./ *.;.*.+.} A % F.p.^ D.G x O.b W e.W W I c G H G 9.:.t.t.).^.g.+.J K h W J.1 N Y.*.' ,.i.i.K.*.M.H ",
"K p.H t h w b W k R V / *.=.y.=.1.s.H G , y ` -.W 0.b r B V h R ^ O.K e.t.<.6 h x b D.OX0.D./.S.K 6 c / 4 t >X/.P.k.z.k.z.L./ c ",
"<.' -.x o O 5 + b E =.=.=.a.].L.u.,.r % ; a y & 3 r w % X X O p N = 4 N u 4 & % % + O 1 & 4 t B > + c 4 Z R <.<X X}.[.'.'.}.'.p ",
"q 5 > D d :  .[ 4 & t v v v @.Y h D P f n z ! z D { #.x d x 0 4 t r j 0 1 0 J n 0 r m ; d B 0 j D x M M R U R / 1.+./ B E *.^ r ",
"! &.5X2.2.C.^.E.p.D.K.].K.'.a.a.f.f.}.~.8.B.Z.7.^._.0XW.7.N.x.k q &.~.m.C.m.~.8.C.x.A.W.oXb.A.w.w.W.m.I B t r c ~ w c 4 M 9 K  .",
"I >.R #.9.~ *./ E y.y.a.u.a.|.|.;X{.>XN.n.t.t.3.V.p.1.f.#.&.m.S h g.N.T.N.~.N.8.N.7.r.N.OXm.T.t.n.w.#X9XqX6XyX7X7XyXyXuX,XeX&Xo.",
"B @.Y &.C.-.<.p.,.,.=.y.[.,X<X>X@X4Xe.^ O.Y *.=.K W *._ 3.H e.s r q.*.W I K ^ $.W 9.w.b.V.w.w.&.$.r.e.O..XW.OXE.@X].[.,XY.%Xs.A ",
"0 K @.&.v.C.OX4X&X~.@X).:X3X2XqXN.&.G :.n.J.G.P.{ 9.H.G.P x g , r d.p.K W R H H R O.I ^ I 9.H ^ @.K W K -.Z.4X9X=X2X:X7X:XP.J l ",
"r *.t.B O.C.~.4X=X=X&X@X+X9X+XR b b B H n.r.-.=.W +.*.H H G S < r <.<.+.V H ^ B O.J G +.K I  .@.{ / v K K 9.*.w.W.W.W._.J._.L f ",
"> 1.N c U +.n.s.I r.9.J.E.n.W h b J H I W %.G.q.0.M.9.K O.w.S , 0 >.g.^ B B H O.c @.+.b +.^ I W K E *.-.q.@.+.J G I r.XXn.G 3.#.",
"Z 4 p.~ T =.g.K @.O.&.b b H H H H W *.+.h K *.n.p.H H b b -.3.s r *.;.v c i w t p U p T -.H @.v r.K.0.S.S.1.| W b R O.3.H O.*XI ",
"Z +.4X5X5X:XU.c B c r c B h v b *./ 1.H G h b H h K k h t t P s j 0.*.3.v R Y Y T ~ 1.1.E W 5.C.<.1.s.F.{.E Z W W W V V H `.S.k ",
"] M g.N.D.t.<.t 4 k 6 = = $ $ 5 p.` / E w 5 6 2 & 4 2 5 4 4 $ , r N R t.F.a.l.[.i.'.}.(./.B 5 9.3X{.{.'.i t k 3 N T Z *.6X/.r r ",
"a q M & u & r k > ; & & % o o % $ + & = + - ; + + O + + % + + C 8 & $ + 6 5 5 4 c / H &   O + v t 2 = & = O 4 o o O O   O % * n ",
"2.{ ).C.rXOXG.B ( C &.8.X. .2.8.v.b.$.| X.} { } x.{ 5.2.{ P P [ [ B.L F [ I 8.r i Z b W.[ A m.H.+X^.~.^.J.~.*Xb.L x.{ F X.L 2.4.",
"oX8.V.H..X.X`.B.u K &X#XoXW.2X3X%X0X4Xn.m.R.T.~.M.m.R.$X5.m.m.R.).rX=XR.W.$XOXoX5 v ^.9.%.t.V.Q.M.s.F.J.F.K.K._.#.T.W.C.C.C.N..X",
"3.O.3.| J +.b.C.c H y.-.6.#.0.0.p.%XF.r.m.n.3.T.4.v.9.3.&.6.%.&.@.t.B.*.t.T.&.8.h ; >Xr.{ $.| b.#XXX).XX+X^.R.9.{ I H I O.3.3.n.",
"#.#.| b K &.G s @ R @.q.-.I r.p.G.s.W | | W I R &.$.3.I | H R { K &.O.+.=.@. .z ; Z p.W O.H b H b r.3.p.r.$.H W n.&.W { G ^ O.-.",
"3.I I G K @.| b.< K s.<.3.@.n.w.J.<.<.W | | Y | | / W R W G K H b S %.;.*.1.@.A @ c *.@.G G H O.| 3.9.V.+.O.V / <.I b K { k ^ ^ ",
"R G R O.*.t.9.$.1 +.1.0.^ +.K &.y.W W L b W G | | | H W J K K G K O.K 5.q./.s.l > b W K H x G K K K H W O.W +.9.h.K O.9.W 9.I I ",
"W R K 2.n.W m A : *.0.^ t N O./ | E | B B W W $.Y | | +.J K B b W / K %.D.^.&.S , K +.+.O.R K H K R b W #.O.1.M.-.I 3.^ V.0.O.#.",
"e.^.1.H.9.k  .x 1 K <.t.w.+.*._ ^.&.R H | H Y B $.p.R b I I G R K W K 8.G.J.O. .: V ;.&.{ / *./ O.K V K / %.0.p.F.^ I -.K 0.,.=.",
"K.~ ~ ' <.&.=.D > W ^.D.-.@XJ.t.-.V -.h 4 V n.0.~ t Z &.^ M w k k 5 c W ^ k R G : ^ R i W <.u.=.f.D.;.^ c W !.J.K.k K @./ ` ~ ,.",
"r r t B q t t g 8 h w q 4 # = & & 4 & O & & w Y 4 & p U U p # t t $ $ O & q t ; 8 k w & w t i t > 4 Z ^ r % t 4 B   w V 4 c N c ",
"R _ _ <.5 e r 9 C Q 6 % % % : % & ;   o @ % % & % @ # = & @ * @ % % + o X o X > 8 n 1 y @ * R ,.c h u w r 0 % ( x 0 k n V p t c ",
"w f.' ~ k x %.X.b.w.7.w.%.X.L } [ } } 9.X.[ { c.P .. .> 8 O.7.7.5.2.2.2.~.XXc.#Xm.Z.5.8.OX*XS.^.9.S.E.A.C.5.B.=XB.XX2.a U / N N ",
"t i 5 K I N.^.A.W.b.b._.W.T.b._.b.b.m.E.G.7.R.~.c.+Xm.A r D.G.W.B.H.E.t.G.).3.).R.R.G.W.H.#X2X0X`.OXR.T.m.!.!.oXV.#XwXB c N ^ x ",
"=XtX9X*XT.$.*X&.M.2.-.&.%.w.q.s.` H @.3.-.-.n.<.3.w.L d ; ;.-.O.&.W ^ / =._ +.r.3.3.&.3.%.9.t.9.v.w.6.Y *.@.-.1.w.n.7.j w q.*X~.",
"O.q.9.O.+.&.B H H x H V R O./ +.W W *.O.3.Y W -.H H X.s > ;.<.O.O.K I / ` v 0.K I O.O.W 3.O.I N B ~ t ~ _ _ 1.1.*.G [ < j d.d.&.",
"i N Z c / B K b G H H G t 5 k N t.U *.W K &.O.O./ O.X.< ; 0.<.+.c O.0.9.G.G.9.V B @.G +.R K O.7.^ R ~ ~ =.i.p.S.<.%.L l r p.Z w ",
"~ ` ~ E y.M J c W h k J E E +.~ E +.1.=.W H O.b b H P l 5 g.q.H O.2.S.t./ K O.G H J I >.&.r.G.2.w.S.U.U.L.'.h.j.s.S.L A x J.e.Y ",
"p.{.1.u.p.&.I O.B H *.K w.@.p.P.h.F.G.9.J W H -.#.P D l 1 0.1.H R +.W y./ ,.*.J B -.6.V.<.^ k Z ~ ~ q.f.Y.].D.OXM.&.X.s 1 s.XXG.",
"P.F.K.h.y.R W B W %.p.W s.H.^.3XOX(.t.&.+.b W / -.H G l 4 s.e.K r { *.i.=.*.@.G :.Z p ~ +.O.r.q.J.P.-X6X<X>X6X0Xw.9.P d 9 h.@.P.",
",.i.f.,.y.~ ~ M K Z _ _ =.=.y.s.].a.1.6 5 h v *.G c g s = i *.E 6 W I.Y.Y. Xc ~ ^ ^.U.P.S.:X@X1X>X;X<X X[.[.k.W h c B > e ' d.>.",
" XI.'.'.'.f.k.Y s.'.U.Y.j.P.a.y._ w 3 & $ & 2 E 2 & + @ 7 u > 5 o 6 & & o p & 3 M v & 4 q w B k > = 4 H 2 2 t r t M M g ( 4 U l.",
"p 4 t 4 3 w = % 5 ; | } { %.[ z 1 d - 1 , s s S 1 l F j n m P &.s 1 b 5.X.d 8 9 u Z R t j g y Z v c i Y Y c k 4 % % n n j u q q ",
"~ 4 4 4 N I m j O.3Xv.n.wX4X*X2.R.W.3.b.r.w.~.0XOX+Xm.3.C.B.b.b.m.b.5.s.OX9X! 7 V W J 5 R.c.G.v V c 4 H r W.A.c.=XC...6.v.G.6 c ",
"tX5X-X+X`.b. .e D.:X&.n.R.s.t.w.&.3.5.5.3.5.w.n.E./.n.t.n.*.h.O.w.9.3.3.t.$.A r *./ n.).&.V..XtXtX5XE.| 8..XW.n.OXn.3.m.n.G.*X3X",
"+X5.E.O.{ S A j p.E @.W | | | ;.| W Y K G R 6.P W *.p.+.K b.$.H +.| | W | I s 6 s.@.L %.I -.b.E.H.3.9.J ^ W 9.&.&.;.^ ^ I N.5X~.",
"V b. .I I #., y s.@.W G V H B { | V H | @.$.+.$.&.@.*.H K W I } 0.+.$.h V %.b.h k.E c +.{ b K W &.6. .^ K p N M c E R =.O.^ 7.%.",
"V H G H +.D.l > E ;.W W h H +.B { H @.@.W O.G H v.3.1.{ H K W J K K H 6 v 1.&.% ) _ 1.t.O.I H b J ^ w.r.R 0.p.a.,._ a.J.O.$.O.G ",
"b b 9.3.s._.A ; p.| | +.G W R | I W -.&.I K R G | 9.r.{ H J W | H O.J { E y.Y ; / k.F.H b G L b k W V Z ~ =.i.f.h.K.K.q.H G I x ",
"H I b I T.T.s 4 W *.;.W W v H V | -.Y 0.{ V | R Y V $.B H W b b J K W .X4X5Xw.& `.-Xh.$.{ K H H $.&.3.n.p.(.U.D.Y.,X>X<.V I K K ",
"6 R +.-.s.J - ; *.*.V 5 c b V h v v H c c 5 c B c 6 i V w E b i t M +.R E.D.3 5 U.[.a.J b b b h b -.9.J.D.h.^.I.j.Y.;XG k ^ / / ",
"h 6 R *./ 1 < 4 c & O $ 2 4 & O $ 2 2 $ 2 5 2 2 $ 2 2 2 & $ 4 & Y W c Y G N ;.i ~ }.f.c 4 V p 4 t 1.+XJ.H.|.].7X<X,X3Xk t 0.,./ ",
"+ 6 4 ; + o t 5 2 & ; o O + o O ; ; + + - & O o ; ; + - ; O > - t ; k % > p R R 5 N w %   O O + X t I s.D.S.>X/.D.+.o & t i t   "};
