/* XPM */
static char *bricks1[] = {
"64 64 91 1 ",
"  c #3C3835",
". c #3E3E3E",
"X c #413E3B",
"o c #43413E",
"O c #4A433E",
"+ c #3F3F40",
"@ c #3F4040",
"# c #434343",
"$ c #4C4743",
"% c #4C4946",
"& c #484748",
"* c #474848",
"= c #4C4C4C",
"- c #514B46",
"; c #514E4C",
": c #54514E",
"> c #5A534D",
", c #4F4F50",
"< c #4F5050",
"1 c #545353",
"2 c #595654",
"3 c #5C5956",
"4 c #575758",
"5 c #585758",
"6 c #575858",
"7 c #5C5B5A",
"8 c #615B57",
"9 c #615E5C",
"0 c #63605E",
"q c #5F5F60",
"w c #656463",
"e c #656565",
"r c #676667",
"t c #686563",
"y c #686665",
"u c #686765",
"i c #6A6764",
"p c #6B6764",
"a c #6A6765",
"s c #686766",
"d c #696767",
"f c #6A6967",
"g c #6D6A67",
"h c #676768",
"j c #686969",
"k c #6A6969",
"l c #6B6A68",
"z c gray42",
"x c #6E6B69",
"c c #6D6B6A",
"v c #6F6C6A",
"b c #6B6B6C",
"n c #6B6C6C",
"m c #6C6C6C",
"M c #6E6D6C",
"N c #706E6C",
"B c #716F6D",
"V c #70706F",
"C c #71706F",
"Z c #72706F",
"A c #6F6F70",
"S c #706F70",
"D c #6F7070",
"F c #737170",
"G c #717272",
"H c #747371",
"J c #757473",
"K c #737374",
"L c #747474",
"P c #757475",
"I c #777675",
"U c #767677",
"Y c #797776",
"T c #797877",
"R c #777778",
"E c #787778",
"W c #777979",
"Q c #7B7978",
"! c #797A7A",
"~ c #7B7A7B",
"^ c #807F7E",
"/ c #81807F",
"( c #7F7F80",
") c #807F80",
"_ c #838383",
"` c #848281",
"' c #888787",
"] c #878788",
"[ c #8B8B8B",
"{ c #8F9092",
"} c #919192",
"=1=122%o XXX       #%1*OX#%1111:;11%XX. X#:%&oo#212##XXXO X#$=1=",
"1`HMUUFkcy999JCpcy9y:#8523992-9Meb9NCfwMy4&eew355eMHBdw9w9222291",
"6FHRC0cN0CQcw3gCcBHM6#ywce33791wkw7wSMcMBk#eywMy72ek9jjkdNwwwjw,",
"1BkMtwNCC0fZcfCck7hHe#pe57h9fw97yke39bMMjk#eNwMw229ew0wyjSbwyjb=",
"1H999cccMFcMZMHkAMee5#ccNfeeeCq7www07cj9hk#0bMw7w7yyeeww9wFBbrc=",
"1Qfky0yJUeFFZcUDFFkM5#cckcVe077e79jeykjkAe#9wMwhw7eecekkBq57wjP=",
";YFUFkUhcUWFMfCUWRF~7#ccchyFekk7pkBeww9Nbw#9hbkeyeewNBjfwyjdw1A,",
"1QCQFFcccUQRMBUURFk~7#cSMMMnbNMjky9kc5SbMw#0kkAkyjkk9eekkbNkbwj1",
"5)SUBHcyMekyMyMQPby~j&HbcMSnnDkwjek977k9kk&wkeeFb9jwjkMFkMFDnDD6",
"=[[']_]__]]]___]['[[7=M)~(~Y~QWQEB~QFQ~(~h=4~~~~R(QEQ((QQR~~~(F=",
"=&#..+++.#**###@+#+#=,=##&#*#***&**#####*&1=*##*#&*#&=&#######*=",
"RMH995---==;219eSjbBSSbbw2;%%%o==%$$$$7j9227eMc0-$%%&,%$$:79FRW~",
"QQMkwttgek#kCAMA9979BEHb7ncMh9w&%FbMFDwkGRQFMM00ckkM7#HBUB~EMcwy",
"yUfCFBBcHb@kMhhw991779jSMMeMMkk&=BhFkMwwwF0550cfAMAA7+UUMYZyewck",
"kZyCBBUMMy.keMeewcw57wwBMyMAFAb*=BkFDke7w4kkyf0MAFFFw+QRFGf9977C",
"ZwCgUPBRky+kyMyMybjw0qjjMSbBMcb&%UkFjhMk0kcHFkMMefhb7+(FGycMBHcg",
"fwHc9yBUFD+hDn92w0kk7:67f90AFyM&&ZbhehMhyb79kMb9kkMMq+_FweYYSMkw",
"MyBgwcQEFM.kM7wMeMekMe222Mckebj*:~cekwDbjccyw7kkFDFB7X_kyyYHYHHy",
"cwkBFycQWF+kke9ewhe77ey577AwywM&=FMDMVbA99wbywjMMAFD7.~wZy7cMQQR",
"HAkURQfkQ(#AMkMMDyw99wBNe77FHRQ=1TUUUFkkyEFkHHUFRMAQw#'UMHHUQQEU",
"HUCUWUFLHq,1h9MBAMkcFMDDMnwwMAe1=MUCUFDAHPFDZBASAFFA1,7~HUUHRLRR",
"=###@#++o#&*####@@#*=1&*&##***&&=*%####*&&1=#X+..+.X###X......+=",
"&90cgy0e389MUH0>3;2>$=27:>4kMQFckVRDRUFFke=1CYBtbRBBe9>>2>8tyf2*",
"=HckHBfeecybkkyBcBMM6*y7kkh7k7eMkhwhhweeMF*FN9UWcwcMcZTUUc9cHeQ*",
"=HchMFFFbejjkkNSNkCM2#y1yyh79wMbhe0ekfkwwQ#F(FcwycwccMHHHUFSfkY&",
"1yFM7FAFDFw7ekUccBMS1*yw7j77wwhhMk6yw0wwAM#FWMfRHHYcPEZYEEYNUkf*",
"%07wHkZHPMew7cFAUFFR7#dyww797wfck6eewekM0M#FRccMyHHUHSyBeeyNycy#",
"%Ue;eyMCFMM0w5bRUMUU5&cjrje7w4w70e0yweeehc#MycFcSMUEc9wwwHNYHUB#",
"&ykww7keGFAMje797kk~h#bjrwyqy217fnkbeeewhy#MRUyFEQMkUkAcMRFFU~U#",
"%Nbe9296RRRMGbwwwyyyh*Hjdjjh7wwewcbMyywe2e&FQMMREBMMAkHPDDQQ~~U%",
"=_QLFAwUeE~EHFBQHUT_w&QeNPRRbjeMVwFFGeFkMc&R'Q_]^]()((((_~__^]]*",
"=;111116511671141616=<,65541565766<661664=1=761664116661111115,=",
"XX     #=*,=661111%##Ooo=&1661=,<=16661#%%&:=&##X XX&<#Xo#X XXXX",
"009gccckQQ*kBTUk7w7wwkyhkUBAFcF11]DFMcCcf0eyCekkgcyM1&Q//Y^CCINg",
"^QTcNkMnCQ.kw27wywyMkkDDFAFMkFW64RVcfge3kkMkCcHMcRHAh.'QJCJ~QYII",
"/ZJCUUbUQQ#cc90wwNkjeCknbhf76wM11U07fec0eDAnfCMMAhFFe._cy827fYQY",
"QTQQUFFMFc.yffkkNeSMkbnnMewe0Mc=&cwcwtyNkAbDkUMFFFHck.Qw7pH977yT",
"NTQQRRRkej.wkkweywMMhAkkej9yekf11wcy0CcfMAhkAFUFF61y7.^kFH~yt90p",
"yUQ~QLMMFH.wewkeenhbMhfcwwk0077=1ceckfcHhbFh77efkjwe1+^kBcNZN9gc",
"7kQ~U(~FQM.wMkMfkDkMMef70y2efcb&1HkeAUFSM0w9ew329ycF7#FcJQJccUBg",
"Y9kUQ~RQ~U@eCkFheFDnkhkfCNwyNcW11gwwwCFDwkMDb7079FDnq#UMHQFUkCYQ",
"[[__[}}[{U*q(Q~Q~~FFhcRB~~~~Q/Q1=T~`QU(Q~~__Q/(_F_Q_4&H]][[[[[[[",
"#+..+.@.@*=1*##*###*&&&#######*%=####X+#+&**########=1%+.X...+##",
"=22wnMkAFh77w274hnbD4=wBt7:-:7;$$O$$O$&%%=11j6:%:2:2224-262w4::=",
"-e5h200wcfNkkFkFbke0k#]QJgZCC0gUBCBBYRQFBR#kcyFFDh0bUbkRSwe6FUA*",
"=Mfwwq56:ecMDDMNkj99w.TcNgZJccTfUQQUQQQQUH+khykknncMhbABccce9cU=",
"=Ckkfec1524w7e270kfCC./CCUgZYcUUNH)UeckQU(.MUMDFkkkybyyUMUSMwcU1",
"1Bykkk003e7:2707570ek.^CJTJfUCQQYZcBEc97BQ.kcyfe0nnM7wjcByAFkfU1",
"1UcbMeeee00072kewwwyy.[BYB~HFU~QUfcUFFFnF_.kc09wkeejShk979227kU1",
"1FDk7kckew9fyk0qy6wjy._HYNSB0effecTMMQUnf~.ekh7MMMkbMeye9we52-e1",
"=cMkwekDMb57eeqq7qehj+]SZYHBMFcFUTDQ~QQWM[.ykMhh9kke5w3wy7cM72e2",
"10wDkkFMckffcekkwMhbh#[YZZT)QWQQT/(~WW_(R{#kUMMMkMkHhycMByMMMyc:",
"<kyecCyMnMnMMkMDAMDb1=w~TEJUFLUUQWWUUUWQF2=1MAAMHAVMh2MDMbcNnDk,",
"&########&1=#@@@XX+@###X.X ..@#&=*+..#@@##**####+#o&=<&*#######*",
"c0wfU~~Nk=%-83:>88yR'P998>>>:::*=333>7cweDRkyc8>2:>8<=MFM9083927",
"kfee9wFMef#0CfMckBkcHcBSFSCUTUc%:CcJJktekeFLMMkkeBee7*(kywefkeek",
"AFAMM7cBCM+ycyYBkkw9SHYHRMFRUFR*:MbFDecMMheSRMBHDMkk7#QMkybbecjw",
"yk7w7w93wA#9HTcyMkywccHPSRRRQWQ&1FMFehywM9yFkSkeDMkbw#wFMHFbjMMe",
"eekM7wwekM#wccccMby79BRUUQRQWQR&:UFeekkMMew8BckMRLDDw@f2yBUFDFSh",
"FFkwy7ecyM+7HHcSSyMw2SEEMkew2eM=1yqwcUUD9;;1ekUHDFDDw#c27wfULFhk",
"Fwkkeewkcb+wYPBUFFjMe6yUyFFykMk*-Fe7eke607772wFURDWFh#c799-1kMwc",
"MMcAMkekky#8cBPQRRRhBc7kRUMUWLQ=1RMk93p06bywww7MDLwhw#Me7weq6wMF",
"RRFRRRRW~F&w_QUHBS_QQQ~HQQ/](_[<1]QUURHQ(WDWFLLeW~QQe&R~FRFAhw0W",
";66661166=1&11,1111166666116671==16121111167661;=666&1=66116111%"};
