/* XPM */
static char *bricks3[] = {
"64 64 137 2 ",
"   c #7A6C63",
".  c #7E7064",
"X  c #757068",
"o  c #7C746C",
"O  c #7F7770",
"+  c #7F7A73",
"@  c #806F68",
"#  c #83756C",
"$  c #8B756D",
"%  c #84796E",
"&  c #8A7A6F",
"*  c #92766D",
"=  c #9B756F",
"-  c #927B6E",
";  c #997D6B",
":  c #8B7770",
">  c #847C74",
",  c #8B7D73",
"<  c #837F78",
"1  c #9C7670",
"2  c #937D74",
"3  c #9B7E75",
"4  c #967F78",
"5  c #A1766F",
"6  c #A47D6F",
"7  c #A17771",
"8  c #A37A73",
"9  c #9A816E",
"0  c #858077",
"q  c #8D8175",
"w  c #868179",
"e  c #8B847C",
"r  c #8F887E",
"t  c #938175",
"y  c #9C8475",
"u  c #94857C",
"i  c #9C847B",
"p  c #95897E",
"a  c #9C8A7D",
"s  c #A48375",
"d  c #A88575",
"f  c #A48976",
"g  c #A98975",
"h  c #A3847A",
"j  c #AA867B",
"k  c #A48B7B",
"l  c #AB8B7B",
"z  c #B1857F",
"x  c #B18D7C",
"c  c #A7907F",
"v  c #AC907E",
"b  c #B1917E",
"n  c #8C8680",
"m  c #8E8983",
"M  c #938780",
"N  c #9B8781",
"B  c #948C83",
"V  c #9A8D82",
"C  c #938E89",
"Z  c #9B8F88",
"A  c #969086",
"S  c #9C9286",
"D  c #96918A",
"F  c #999289",
"G  c #9C9489",
"H  c #9E9689",
"J  c #9D948A",
"K  c #9C948B",
"L  c #99938C",
"P  c #9C938C",
"I  c #9C938D",
"U  c #9E968C",
"Y  c #9D958F",
"T  c #9F988D",
"R  c #9E9590",
"E  c #9E9790",
"W  c #9E9991",
"Q  c #A18780",
"!  c #A88780",
"~  c #A28C82",
"^  c #A08E83",
"/  c #A18F84",
"(  c #AD8F81",
")  c #AB8C84",
"_  c #A48F88",
"`  c #AB8F89",
"'  c #B28680",
"]  c #B28A83",
"[  c #A69380",
"{  c #A39285",
"}  c #A09186",
"|  c #A79684",
" . c #A89480",
".. c #AB9683",
"X. c #AD9581",
"o. c #AB9285",
"O. c #AF9285",
"+. c #AC9885",
"@. c #AE9985",
"#. c #A2948A",
"$. c #A3948B",
"%. c #A0978A",
"&. c #A0978D",
"*. c #AC938B",
"=. c #AE9488",
"-. c #A1998B",
";. c #A1988D",
":. c #A4998C",
">. c #AD9A88",
",. c #AE9B89",
"<. c #AE9B8A",
"1. c #AC9A8E",
"2. c #B29383",
"3. c #B89587",
"4. c #B09884",
"5. c #B29B85",
"6. c #B49A87",
"7. c #B3968A",
"8. c #B9978A",
"9. c #B09C89",
"0. c #B49B8D",
"q. c #BB998C",
"w. c #A69790",
"e. c #AD9690",
"r. c #A49B94",
"t. c #AA9D93",
"y. c #A69F98",
"u. c #A89E98",
"i. c #B39D92",
"p. c #BC9D91",
"a. c #B5A08F",
"s. c #ACA194",
"d. c #A7A099",
"f. c #AAA39A",
"g. c #B3A193",
"h. c #B8A595",
"j. c #B1A49A",
/* pixels */
";.U G G J J B C G B C F Z B e w m C Z F Z L E E I D F G F G B Z X.] X.] l ( ( 2.7.X.X.( ( 7.B S <.<.+.+.<.5.9.9.9.<.s.c c c c f.",
";.U G U G G G G ;.G J J G G F n L E L I I L I E I I L U G D M k l l l j l l l l l l ] l l l t k @.l v v b c c 9.9.c b c b v c -.",
"U U U G J J J &.U G G J G G F n L U K E G I I F I I I E F G m l ( x l l l l ( x x l X.l ( l u k 5.v <.v v 5.c 9.b b 9.b c 9.c r ",
"U U G G J &.J U G G U J I G A B E W U D K I L I I K F I G G e k l ( l l l l l l l x l X.x ] , f 5.@.<.5.9.5.5.c 9.b c v 5.h.c r ",
"e M M m M B &.&.G U G U G U U B E I B M M e e e B B u B r 0 + k l X.l l l l ~ l [ l f f y y o % a k c c a a k c a c f f c c r + ",
"V V k a V a a B D L Z L A B F C D m m C m m < e M C A A B p H S -.G $.-.U G G Z p p p p p p S A p r A H p p H -.p c p f c p c c ",
"x x x x x g l e C D C C C C C D C C D C I D e A G G -.S H S T -.-.;.-.-.-.H w p p S p a p p p a a p H p p p c b v v b b b b c c ",
"x x x l x x j w C C D C D I D C D D C C C C e S H -.G $.S H -.-.:.:.:.H -.%.p a a a a p a a a a p c a p p c c c b b g b b v b v ",
"x x x x x x g w D D D D D D D C F D C C C C e A -.-.H S c -.-.-.:.:.:.:.-.-.B a a a a p p p a S H p u a a B ~ l g g x l x x x b ",
"x x x l g l y % C C D D D C D D C C D D C C > S S H H H H -.S -.:.:.:.S B G S p p u t p t e t p a a p a p a > h g x l l x x x b ",
"t & q t - q 0 0 > w w w w w + X > > e q > > M S c c c S a H p G A A A A B B p M m B A p B B V A -.-.V A S p n , 9 q q p S q # $ ",
"v l l v l g g f k l l l l v V B 5.5.5.5.5.6.2.2.5.v b b b b t u u p p u M p e M p u B p M M M r.t.s.t.w.t.u.j.u.s.s.r.:.t.r.A c ",
"g g g g g g g g g g g g f g f u 3.b b 3.b b b b b 2.b v 2.b u e u p M M M M u e e p r u B M e r.r.t.u.t.t.u.u.u.t.r.t.:.t.t.B k ",
"g g v g g g g g g g g g g g f u 5.b b b 2.b 5.b b b b b 2.2.u u p M u p p M u e M B u u M w w ;.r.t.t.t.u.u.t.t.r.t.t.;.r.$.B f ",
"f l g g g g g g d d g 9 g g 9 t 5.2.b 2.b b b b b b b b 2.X., < M u u u u M u u M M u B M u > M r.t.r.t.t.t.t.t.t.u.u.r.t.r.B k ",
"g v g v f g g 9 9 9 9 ; 9 9 # > y f v v v q . q t q t q t , e < < < < < < X O < w w > > > < w < e &.:.r.r.r.r.r.r.w.r.w.;.w.$.k ",
"p A S p A B e D I Z Z Z B Z Z r.E C Z $.w.Z e Q h i i i i Q Q Q h Q Q i Q I &.1.*.1.=.1.*.1.1.1.*.) *.*.=.N A V V V A B p a B G ",
"S p B V p p B t.y.w.w.w.w.w.w.w.w.w.w.w.w.Z , 3 h 3 3 3 i 8 h 3 3 i 3 h 3 a =.=.*.*.*.*.=.o.*.=.7.*.*.1.=.} B A A B V V p G V u ",
"A S p p B p M u.e.r.$.w.w.w.w.w.w.w.w.w.w.$., 3 3 3 3 h 8 h 3 h 3 h 3 i h 4 =.=.*.=.*.=.*.) o.o.=.=.=.1.*.;.D N V V B B u G G B ",
"p A S S V p e u.w.w.w.$.$.w.w.w.w.w.w.$.w.I , h i 3 3 3 i i i 3 3 3 3 3 i , } 7.*.*.=.=.*.*.o.O.*.o.o.=.=.1.V M B V G p u V B a ",
"B B D C e > + M L r.J $.w.w.r.r.w.w.w.w.w., # : 2 * * * 2 * $ * * * 2 2 & + q V Z a k N a a a u u Q Q ) J a e u u e , p A S A B ",
"A T F I U W W W I U J J w.r.r.W N Z Z Z M C Z B n M M e t M , e B F F F T ;.U T &.G A F A A G m M M M B N Z M Z V Z B p V u p p ",
"B d.d.d.f.f.f.f.d.d.r.r.y.u.y.y.> B u u N u M N u i 4 2 t u 2 p r.s.t.s.s.f.s.s.f.s.s.s.-.s.s.s.i i i h N Q N Q N i N 4 N 4 f i ",
"B d.f.f.f.f.f.f.y.r.f.y.y.u.f.E , u M u 4 u u M M M u u u u u N s.s.s.s.f.s.j.f.s.s.s.u.f.s.s.:.i i i N Q 3 i Q Q 4 8 4 i i i 2 ",
"m d.d.d.d.f.d.f.d.d.d.d.d.f.d.r.> M M u u u u N 4 u M N u u u p :.s.s.j.f.j.j.f.f.s.s.s.;.s.s.s.N Q Q N j 4 i i i 4 i 4 Q 8 N 4 ",
"w r.d.d.d.d.d.f.d.f.d.d.u.u.d.L # 4 u M N M M u M u 4 u p p u p :.f.f.j.j.j.j.j.j.f.s.s.s.t.r.s.i Q 4 4 N 3 ~ i Q Q 4 i Q Q i 4 ",
"w 0 e n r n > o w e e n n n w < < O # > , < > > , > > # % > % w e u B B B e B B G [ V u w e e e , , , > , , % X : , % > , , , > ",
"s.s.s.s.1.t.;.B $.*.*.*.` e.e._ ` ` ` ` *.` *.| ~ k ~ k [ l [ k k [ [ [ k | [ k s j s j s s d j j ! j h j ! V A t.u.t.i.u.g.u.u.",
"g.g.g.1.1.s.:.p *.*.) j ` ` ) ) ` ) ` ) ) ` ` t l f f f f f g k f f c g k g c y j s s 6 s 6 s 8 8 8 d 8 8 s s B a.<.a.s.i.s.t.1.",
"s.g.0.s.1.<.;.N ) ` ) ` ` ` ) ` ) ` ) ` ) ` ` N f f f f f f f f f k k k [ c c y 8 j s s 8 6 d s d d 8 s d d 8 B 1.s.s.1.g.g.s.i.",
"<.g.s.<.1.1.-.~ ) ) ) ` ` ` ` ! ! ! ` ) ` ` ` h f f f f f f f f f f g k f c c y 8 j s s d s d 6 8 s 6 d h 8 s G s.a.g.s.s.g.g.1.",
"G } c G [ A q & i 4 i i N 3 1 4 i N i N i i i 4 y f f a f t ; , 9 9 y k c c c k f f s s 3 &   # - s 8 j f f h ;.1.:.1.:.{ [ p p ",
"A L D K L L L K D G D A D A w e A H A H A A G G A $.-.-.G A w e u D V p } V k V p a a a k S w &.p.=.1.0.=.i.t.*.i.1.e._ $.Z e B ",
"r.T d.r.;.r.W r.d.;.d.r.r.u.m H s.s.s.s.s.s.d.s.s.t.s.s.s.s.A u a k k a a k ~ } c a k a i a u @.0.7.7.0.i.i.i.p.i.i.i.7.i.i.Z E ",
"d.W W d.d.W T W W d.r.r.r.T m ;.s.:.:.s.s.s.:.s.s.-.t.s.s.:.B a a a a a ~ k k V k a a a y k e 1.i.8.0.i.7.0.i.i.8.0.0.7.i.p.F r.",
";.d.T d.:.d.r.r.d.;.r.T d.r.r ;.s.s.s.s.s.s.s.t.s.:.t.t.s.s.M t a f a k k ~ } k a a a a y y q 1.p.i.i.7.7.7.0.i.i.i.0.e.8.i.$.r.",
"W d.:.r.r.W r.r.T d.T r.r.E + B :.s.s.-.s.t.t.t.:.s.:.s.s.s.B t t t t t t , t t t t t 9 y q o 0 ~ *.X.~ ~ a N ) =.i.7.e.i.7.w.r.",
"G T G T T B W T G A A e n < w w -.-.H A A H H H H H H -.:.:.;.S A F Z G S e m V p u p p u p a p p p G p V 0 m D C Z w.I G $.$.I ",
"r.W r.r.r.e W d.d.W d.d.d.y.y.W W d.r.W W r.s.1.s.1.t.t.t.t.u.t.t.t.t.s.s.A u f f a 9 9 y 9 9 9 y y y y a u K r.w.r.r.r.w.r.r.r.",
"d.r.w.r.r.m W W d.W d.W d.y.W W W d.d.W d.B ;.t.r.:.t.1.t.t.g.;.:.:.:.s.s.u u a y y a a a y 9 9 y 2 9 y y q T r.u.r.u.y.w.r.r.w.",
"u.r.r.r.r.n E y.y.r.y.y.u.y.W r.d.W r.r.r.m T :.u.1.t.t.:.u.u.=.:.1.t.t.t.B t y a a a f a y y y y y h i 4 e E u.r.r.u.u.u.r.r.r.",
"w.r.r.r.r.< C u.r.y.r.E y.y.y.r.W d.r.u.W w V t.1.u.t.t.t.e.t.:.*.t.t.:.t.w q y y f a y y y y y a y y i 4 4 E w.w.w.w.w.u.r.E r.",
"0 n < , < < > w n e e e w e e , 0 o + w w e w w e e e e e n e w q e e e w e > & q q q q q % % q q , , , : > < e n n n n n n n w ",
"] ` e.e.e.e.e.e.e.w.` w.w.*.w.` $.B G s.u.g.u.g.u.g.g.f.g.g.j.g.g.1.g.g.a.g.g.g.a.h.h.a.a.a.a.g.g.| ] 8.] ` ] ' ' ] ] ] ] ] ] ] ",
"' ) ` e.e.e.` ` ` ` ` ` ` ` ` ` O.B u.i.g.i.i.u.u.i.u.i.g.g.i.i.t.7.9.a.9.a.a.a.a.a.h.a.a.5.5.a.0.O.] ] ] ] ' ' ' ' ' ] ] ' ' ' ",
"! Q ` 7.` ` e.` ` ` ` ` e.*.e.` ` i :.t.i.u.u.i.g.i.i.i.u.f.i.i.g.<.a.a.a.0.a.a.<.a.a.a.a.a.a.a.g.{ ] z ' ' ] ' ' ' ] ] ' ' ' ' ",
"' ! ` e.e.` ` ` ` ` ` ` ) ` ` ` ` _ t.i.f.i.g.i.i.s.g.g.i.i.i.y.u.<.a.a.<.a.a.a.a.a.a.a.a.a.a.a.0.$.] z ' ] ] ' ' ' ' ' z ' ' ' ",
"! Q ` ` ` e._ ` _ ` ` ` ` e.` N N u N V $.$.;.*.e.t.$.&.e.u.t.1.*.{ <.1.| 1.<.1.<.q 0 t t q t r u , 4 h ` z i 4 ! 8 : ! 4 4 4 ! ",
"$.} $.=.$.*.~ ~ } u u a u u p u u u u u u M u p p , e p u y a a a a a a a a a N a u N k k l X.! l l l f f s l l k q Z *.t.w.=.*.",
"*._ ) $.*.*.&.` *.e 4 i i a a i u i u i a p i p h e u i a y f a a f y h i a k k a e h j j f l f k k f j l g l s j t ~ =.1.$.e.*.",
") $.$.*.*.$.$.` ~ e 4 t u i i i i a i u i a y 3 a e y y h a f a f a i a a f k k f u f l k l l s f f f j l d l s f t } &.*.1.1.1.",
"*.o.$.*.=.$.O.$.:., 2 a i i u i u i y i i i i p a > y y a i a f f i a f a k a f f e y l f l l k j l s s f l d g l , ~ =.$._ ~ *.",
"p u B p a Q Q a t o o 2 : t 4 , : # : 2 2 u 4 2 , > # $ t 2 2 2 t , - t y 4 t t , > # y k h f X.k f k k k s - - * > > p N p i a ",
"C e u N N N N N N ~ Z Q N N N a N > e u 4 u 4 i u Z N i i p u N u w u -.~ } ~ } &.t.$.{ O.$.$.*.0.p D r.d.W D U U W U E I D C Z ",
"f.C ~ ' ' ' ] ! ] ' ] ] ] ] ] z ' u 1 8 7 8 7 7 7 8 8 7 7 8 7 8 8 u =.q.q.8.q.3.q.q.8.q.q.8.8.q.q.V u.f.f.d.d.u.f.f.f.f.u.u.y.y.",
"u.M ! ] ] ] ' ] ] ] ] ] ] ] ] j ' u 1 7 8 8 8 8 7 7 8 8 7 7 8 8 8 t 8.q.q.q.q.q.p.q.q.p.q.8.q.p.q.N f.f.f.f.d.f.f.y.d.d.d.u.f.u.",
"u.I ) ' ] ] ] ' ! ' ] ] ] ] ] ' ' i = 7 7 7 7 7 8 8 8 8 8 8 8 8 8 u 7.8.8.8.q.q.q.p.q.q.q.q.q.p.p.B W f.f.f.d.y.f.f.u.f.f.u.d.d.",
"u.r.! ] ] ] ] ] ] ] ] ' ] ] ' ] ) 4 * 7 7 5 7 7 7 8 8 8 1 8 8 8 8 , ) 8.8.8.8.8.q.q.q.q.8.8.q.7.Q + n C W W f.y.d.f.f.f.u.d.d.d.",
"w + > , 4 4 , , @ # , 4 2 2 4 4 , M 2 3 8 3 $ o   @ : : $ $ : : , , < 4 ~ ~ ~ *.B Z E C J $.N D L E C C C C m C < e e e e e e e ",
"i.i.e.i.i.i.i.i.V N ! ~ h Q k ~ ~ h 8 h h 8 k N M ) =.] ) ` =.7.0.e.=.7.] 7.2.) n C C C C C B L D C C C C C m n e ;.i.i.i.i.i.i.",
"0.0.0.7.7.7.i.7.N 3 8 h 8 h h h f h h h s h s i u ) ] ] 2.] ) ] 7.] =.) 2.] =.) n C C C C C C C C C C C C C C n e 8.q.i.i.i.8.8.",
"7.0.i.i.i.8.7.0.p 4 h h h h h 8 8 h 8 h h 8 h s 4 ) ] 7.] 7.2.7.2.7.] 2.) 2.] ) < C C C C C m C C C m C C C m m M 0.0.8.i.0.0.7.",
"0.0.7.i.i.0.0.8.e 1 h f h h h h h h 8 s 8 k h 2 q ] ( ] 2.] 7.] 7.] ) ] ) ` 7.a < m C C C C m C C C m m C C C w , 0.0.0.7.0.=.0.",
"=.=.1.7.=.*.1.a >   * 1 2 1 * $ 1 y a i i 4 $ > B o.~ ) ~ ) $ > 4 e u t , 4 , , < + < < < < X + < < + + + + w < w , Z 0.=.*.1.=."
};
