/* XPM */
static char *bricks4[] = {
"64 64 219 2 ",
"   c #1B2417",
".  c #1E291A",
"X  c #222D1D",
"o  c #24311E",
"O  c #29331E",
"+  c #242F20",
"@  c #263322",
"#  c #2A3522",
"$  c #2D3B24",
"%  c #2E3729",
"&  c #2E3E2A",
"*  c #313D26",
"=  c #323E2A",
"-  c #313F32",
";  c #2E412B",
":  c #324126",
">  c #33442C",
",  c #39462D",
"<  c #35492E",
"1  c #3A4B2E",
"2  c #3E512E",
"3  c #2F4230",
"4  c #344632",
"5  c #3A4634",
"6  c #364B32",
"7  c #3A4D33",
"8  c #384A3B",
"9  c #3C4D39",
"0  c #375036",
"q  c #3C5335",
"w  c #3E5836",
"e  c #3D543A",
"r  c #3E593B",
"t  c #404E34",
"y  c #414E3D",
"u  c #425336",
"i  c #425936",
"p  c #42553B",
"a  c #49573D",
"s  c #435B3C",
"d  c #495B3D",
"f  c #45613E",
"g  c #49633D",
"h  c #50653F",
"j  c #3E5542",
"k  c #3F5942",
"l  c #404D40",
"z  c #435542",
"x  c #495545",
"c  c #455C42",
"v  c #4A5D43",
"b  c #465D4A",
"n  c #4A5D4B",
"m  c #515E47",
"M  c #525D56",
"N  c #466243",
"B  c #4B6344",
"V  c #4B6A45",
"C  c #466249",
"Z  c #4C654A",
"A  c #4E6A4B",
"S  c #526445",
"D  c #526A46",
"F  c #52644B",
"G  c #536B4C",
"H  c #596D4D",
"J  c #4E714B",
"K  c #53734D",
"L  c #58764A",
"P  c #5B724E",
"I  c #557A4E",
"U  c #4D6353",
"Y  c #4E6B51",
"T  c #536353",
"R  c #546C52",
"E  c #5A6D52",
"W  c #55665A",
"Q  c #5A655D",
"!  c #556A58",
"~  c #5A6D5C",
"^  c #4E7352",
"/  c #547353",
"(  c #5B7354",
")  c #567955",
"_  c #5C7A55",
"`  c #56745A",
"'  c #5C745B",
"]  c #5D7B5B",
"[  c #606E5C",
"{  c #617455",
"}  c #627B55",
"|  c #62755B",
" . c #637B5C",
".. c #6A7E5E",
"X. c #5D6961",
"o. c #5C7562",
"O. c #5D7C63",
"+. c #5F7468",
"@. c #626D65",
"#. c #626E6B",
"$. c #617463",
"%. c #637D63",
"&. c #697F63",
"*. c #64746A",
"=. c #6B746B",
"-. c #637D6A",
";. c #6B7B6E",
":. c #6A7A71",
">. c #6A7B72",
",. c #707D74",
"<. c #737E7B",
"1. c #5C8155",
"2. c #5D815C",
"3. c #64865B",
"4. c #64825C",
"5. c #69845E",
"6. c #6A8A5E",
"7. c #5D8464",
"8. c #658363",
"9. c #6B8464",
"0. c #658A62",
"q. c #6C8B64",
"w. c #65836A",
"e. c #6A856A",
"r. c #668A6C",
"t. c #6C8B6B",
"y. c #728B64",
"u. c #71846A",
"i. c #728D6C",
"p. c #6D9365",
"a. c #6E926A",
"s. c #749267",
"d. c #73936C",
"f. c #79936D",
"g. c #74996D",
"h. c #6C8573",
"j. c #6D8B73",
"k. c #698B75",
"l. c #738274",
"z. c #738C73",
"x. c #7A8E77",
"c. c #73847B",
"v. c #79857F",
"b. c #738C7B",
"n. c #7A8B7C",
"m. c #6F9778",
"M. c #749373",
"N. c #7A9374",
"B. c #759A73",
"V. c #7B9B74",
"C. c #75947A",
"Z. c #7A947C",
"A. c #769A7C",
"S. c #7B9B7B",
"D. c #7CA175",
"F. c #7CA37B",
"G. c #819D79",
"H. c #82A57B",
"J. c #84A97B",
"K. c #737B82",
"L. c #7A8682",
"P. c #778883",
"I. c #7B8B83",
"U. c #7B9484",
"Y. c #7B9986",
"T. c #7CA587",
"R. c #818A86",
"E. c #828D8A",
"W. c #829686",
"Q. c #819A83",
"!. c #84938C",
"~. c #839B8C",
"^. c #858E91",
"/. c #849592",
"(. c #8A9493",
"). c #8C9C94",
"_. c #8B9798",
"`. c #8D9C99",
"'. c #919D9D",
"]. c #83A383",
"[. c #83AA84",
"{. c #85A78B",
"}. c #8BAC89",
"|. c #89B389",
" X c #94BA8B",
".X c #8AA695",
"XX c #94A597",
"oX c #92A39B",
"OX c #95AA9E",
"+X c #8DB494",
"@X c #8DB49B",
"#X c #97BC98",
"$X c #979EA1",
"%X c #94A3A1",
"&X c #99A5A5",
"*X c #95ACA4",
"=X c #9AACA4",
"-X c #99A6AA",
";X c #9CACAB",
":X c #9AB4A9",
">X c #9EBAB1",
",X c #A0ADAB",
"<X c #A3B4AF",
"1X c #A3BBAD",
"2X c #A5B4B2",
"3X c #A9B7B5",
"4X c #ACB5B9",
"5X c #ACBCBB",
"6X c #9AC496",
"7X c #9CC59B",
"8X c #92C3A6",
"9X c #A8C6BB",
"0X c #B2C4BF",
"qX c #ADBBC1",
"wX c #B2BDC2",
"eX c #B5C5C4",
"rX c #B7C8C8",
"tX c #C6CECA",
"yX c #D2DBE7",
"'.^.U.b w.T.@Xw.-.P._.6 & ; ; Z :.:.< C k.!.qXoX=X2Xv.2XoX`.-.4 3 O.9 k.>XOXOXU 0 3 C.` 4 U P.L._.Z r P._._.`.~.c.oXT 4 U j.Y./.",
"&.4.A ] W.1X3Xj.8.r.0.N k ^ C A 8.) V C V m.S.U.Y.C.z.W.z.w.0.V r r.8.z.;X3XoXB r N 1.r V R r.a.Y./ r w.z.M.O.s c J K 8.B.w.M.z.",
"e.G } q.N.<XL.9.E F n s ( Z r f V V q B N / 1.1.1.A ] ] ] O.0.I V ] d.M.E.=X!.0 V V q N J s q f g N r ] R A r r K C _ D 8.`  .9.",
"V 0.H y.H.I.l.9.' / N D ( ` p r V r f f s 0 r < f r r V r V I I J V a.F.z.2X:.q < r f i s ^ f f w 6 q R R e s B V q _ -.( ( B / ",
"V 6.s.3.V.=Xe.q.Z e w G ' ' c g s u > s q 7 V 0 g r q q < w I L V g 4.e.Q.E.@.< 6 r 7 B / ( s s q w w > r < e w g s N 4.e.%.v 7 ",
"V g.t.g.F.c.%.t.G q 1 6 c 7 s ( R y 9 e q D < < g r < w < K ( s 6 V R 8.[.'.# $ < < s r K  .A s s r 0 q ; g r r q < w G R e.' N ",
"s 0.e._ L n X ( / V T , q V } | R ( e e s A 7 < f s B s 1 L K 8.Z $ q q.D.Z . o q 7 e p ( s 7 p g A r i f < q q r w s ] q ( s w ",
"2 s ) K 4.G . $ u V ( ' R A  .d.8.R 5 e 7 e q i s q 6 < V V q w C B u V J z X $ < 6 4 s F e P G R B f s w q g < q s 4 ( c q r w ",
"d q } 4.G.!.& o w 6.} S / q.B.y.F.8.v d 2 < u q u 1 7 q i 1 > i s , 2 g _ ' 9 > i a 7 S m E {  ._ D f S < < u < 2 1 < 1 c g u < ",
"H u _ y.'.5X*.o * {  .i.H q q.J.y.q.E L 2 1 > < , O , < : , : 7 i D : 2 B =X).x v } S y. .| 9.9.i u : d , 2 : : < > < $ * , 2 2 ",
"L.Q $.-XXX<X'.X.6 y F T U 4 W =.n.*.Q e e c 4 ; 6 4 z 5 > 4 & b ; ; 9 x X.:.)./.<.K.@.T #.:.W n c.>.@.*.v M z 4 > & 6 4 b e 7 y ",
"0.-.7.o.W.Z.-.w.A c z b C C / oX*Xz / ) Z / Y Y b N Y C r.] Z ) ] ' b.{.T.' #X].7X+X+X{.+X+X+Xk.oXv.:.m.t.C.k.N A N C 2.r.2.) / ",
"/ e.r./ |.A.A ) ) Y A A R / q.A *.8 A 2.1./ / / G ) / / N. . . .M.9.S.x.G _ e.d.S.x.e.Z.S.M.#X8.z c j./ F.M.%.R ` Y ) a.e.r.) / ",
"A s K A ] ' B B c Z G H s R _ B 4 > B V K G A / ) Z N B S.~  .w.-.].A.~ O.p A B.w.j.A.C.%.M.F.6.4 4 Z c O.B.%.x A N c d.) B A A ",
"7 B s s B s N B A 4.H m S F 4.t.M $ q 7 f V _ s c p c 9 G c Z w.' t.t.` ] G c B N D t.&.%.A.t.3.4 % p q V G t.%.v s ' R R B s s ",
"c s e z s Z s G ( V.e.u.{ H } x.T G 5._ d v s v c c c c v s N B B Z Z G N G n s B v  .' z Z e.y.& 6 B G p s _ 8.K c G Y z A K 8.",
"s a c a 6 7 K s B e.S.f.f...H.f.&X^...{ E x y D c c v B n D s v d p s K V S E B  .n v R c H 9.f.8 n F _ R a B v K A e s v s q s ",
"_ ( m S 7 Z s c H B [.G.i.J.6XXX3XrX~ e.S.F A K t.' [ | G V B B N B Z B c F ' H &.' n s c } 5.H.<.n H H  .G ( _ S v c V B c e p ",
"} E } F x d G x e...e.i.H.H.6X_.eX,Xv.&.B u u p G q.%.%.%.u A s d 0 D d p i. .~ | B B D q.i.G.XX/.L.| &. . .&.h.w.~ A u f F S E ",
"}.}.S.Z.( i v 9.G.#X6X7X7X#X1X5X<X5X| u d u p t t 7 9.| 9.H d B B u u u > N.e.t.d.' v 7 y.n.-X2X0X2X).e.}.E D t 7 u F d d 7 9.].",
"`.c.( c * > * * q.XX`.$X4X,X2XtXoXW.$ > 1 = > = & < * @.L.v.F ;.| F > 1 # 4 7 $ :.@.* : 0 ;XyX&X0X0X=X).(.u.{ > * 5 S > * , v ).",
",X;XU.Y e e e z X.;XqX4XwXwXqX5X.Xb.U.U O.e e n N 6 e !.1X8Xk.Y.:.' e n k c 9 z *.! e B b c.oX)..XrX<X~.(.E.!.-.Y b ~ c ] k.~ L.",
"-.O.' A f e e e e Y.Q.x.=X~.Z.]./ e ) ) r 7 6 w 0 0 r r ' >X4 r / e r q e Z ` e N 7 6 7 6 e _ g.3.g.3.p.q.s.d.t.r.O.K s c 7.0 c ",
"] ~ R c A 0 7 7 7 s.} s.K } 3.9._ e e / 0 N s s N 7 w G c l.Z / Z V 6 e e Z Z 7 4 0 e 7 p > H g.5.( 1.3.P 4._ 5.( ' Z 8.-.h.e 6 ",
"c ' G G 7 ; < q w _ 4.3.q._ 4.a.R p s e f 6 w w e z ( ] F 9 n v e 7 < q / v A 7 0 > > H E ( Z 3.p.8.G 7 N q B _ 4.K 5.i.oX`.} > ",
"u R  .x 2 0 < < 0 0 G q.q.0._ e.] < < < f w r 6 Z E Z  .h.C = p < 7 e s R q 7 = 7 B K D P ( 3.( _ D 6 & < > < R H } s.#X4XoX1.d ",
"0 q q w ; 0 q w & s R A p ' E G s f q < f 6 < $ > q 7 G T 6 # z 0 6 6 B ] 7 4 6 < F V P D _ q.S ( 7 6 < ; 6 < e i 4.] B.=X(.H c ",
"< 7 < 7 < > < w < < > & 6 e A c w w 0 w > > < > > < u s e & o < r q c F H w ; 6 7 F _ 3.3.K (  .( e < < < 7 s ; < p ( ( 2XR.A n ",
"; < < > 4 ; q w 6 e w > s Z H c c 7 > 6 & q < q p s s ] b.y > < s c  .v z < < ; 7  ._ / _ _ _ ( } A A 7 q 6 5 q $ e 0 _ | W 5 p ",
"> 6 & > $ $ $ < 5 ( _ 9.P G ( ( R p < < s p n 1 ( Z H f.`.4Xu q < = R E p < > > p v P D 4.p.a.D 9.4.( < > < & > > < i g s b @ 7 ",
"< > $ : > q # : 7  .J.p.s.g.0.q.q.H O : $ # S q > 7 { n.3XeX*Xp $ # q g < $ @ # $ 7 , $ S y.9.N.d.H f : < : < $ # > d s 0 ~ $ , ",
"= X > $ 7 Z = $ Z n.).4X5XoXXXE./.~ , > # # # # * # c @X@X9X1XA $ 4 =.n @ # $ < > 4 z 5 ~ =X3XR.j.6 > * & > $ > 6 e c r T.8Xw.4 ",
"C e 6 ; 6 c e ; e N OX=X).&XY.oXoXY.6 ; 4 4 N T.m.C 4 9 8 Z Y z 4 U R.:.8 7 6 4 b -.r 8 o.o..X-.4 7 6 8 e j O.OX.XC 7 0 0 ; k 0 ",
"6 0 0 e r 0 8 r 8 6 _ D.F.F.B.F.d.] c r 6 r r ^ & Y / Y Z Y Y Z c r.T.A.C.O./ ^ 7.1.8.2.r.` w.w./ Y C Y Y Y ` %.0 6 N r 0 0 0 k ",
"q 0 q 0 C r s r r 6 4 Z 8.4.9.M.E F 6 < 0 r s C @ 3 / Y ^ ) ) Y A 8.t.9.{ ' U A / ) 7.1.D.O.B ^ A w.Y ` / 4.4.A   @ 4 0 6 6 6 r ",
"6 w w w < q < > 6 ; < q s 9 F R ' Z ; N c c d h.+ = p z e D N ( n z %.e.z.~ Z C N z B G ` Z Z B n ' A Z R G _ b . # $ $ w w f 0 ",
"r 6 0 w r 4 u w 6 7 7 c s 6 R R Z F e ( R Z 9.c.l ` 9 c c B N  .R 7 G e.w.n n B 9 c ( q.A G p B e v c s D ( } N @ > i 0 w > w r ",
"> w f w 7 p n 4 q 6 0 N _ r p  .F E H  .{ } N.%X@.Z ( a c z p e.-.z B o.w.U e H F 7 A i n p p F c v v B Z / 4.Z & c _ 1 r 0 < 2 ",
"$ w w V n S Z B < ; q q w V B R s 7 p ; R t.x.R.~ Z r.-.p B c G R c B N B N s R ' ! s p i G a e v R B p N _ 1.` 9 ( K f 0 4 < 6 ",
"7 6 q _ F R ( R A 7 w q q u c ` c z e < 7 E 4.U.M Z 5 B D c p v %.z F n c F c c  .w.' n Z B ! a G c c c B y. XZ   B w B n ] c w ",
"> f < g  .F  . .( q s 6 7 : 7 q F  .G 0 < ' W.wXx n Z a B v B 5 9.| u B 7 x H 7 u h d u > F e.~ v v c s u |. X] . ; u t ( t.H 1 ",
"< S u * = 1 E E | z $ d t 7 $ < = $ $ # $ | eX=XU.@ G a t a d 5 { 7 a S , x P S 7 t 7 7 q 7 } { u u u 4 1 y.s.#XT X.h < = 7 , < ",
"-X4X;X&Xb U.(.^.I.k.Y oXc e Y 7.! b 6 8 R 2X).:X.XY 6 z a z y Z p 6 F M U n W Z c n n z 4 0 $.-.%.c 4 9 0 v -.*X*X3XoX>.z Z &.b.",
"oXwXeX,X-.] /.n.U e 0 7 N J r Y.O.r e 7 0 -.w.j.c 0 4 0 7 e 0 e 0 N i 7 r e Z r w.b.j.c e c ` T.k.7 c N 7 7 e $.~.R.P.n.o.h.oXeX",
"!.{.z.Z.) K N I V k f N J ) q.~.$ V B N N N %.8._ V C V s A ) A ^ C V r N C J C w.s.] C J ) 2.e # c / V / 8.' ] F.t.( g.%.6.A.n.",
"t.d.F.t.( z w J q q 7 V 1.p.C.<.z s D D s e e / 7 r r r N c R _ B N s i N N V s N e r q J D d.! o $ q / d.9.' c ] z g / _ _ B.g.",
" .q.9.( E S 7 7 q s S _ B f.v.R.A u H F a u s e q s q s r 6 V ] ` I g f C B i w 7 q q s w g H e o ; e 0.] 8.] ] s s r e / Z 9.e.",
"{ 4.} F E v u < q 3.} 5.} V.'.L.q.P P D n G d p 7 w w s f 0 r K  .H R d i 0 q f N 7 7 r q 1.g e X ; 6 V / w.0.] r f 6 i q q f 0.",
"H 3.4.K ( H e < < K  .V.D.].rXE.a.p.3.4.8.9. .Z p 7 q p p 7 s L 9.R E ( S d Z 4 K N w q D q.( 6 # e 0 0 w A K s w s N r q f B  .",
"t.M.9.( ' z 0 s e _ B.6.s. X5Xc.g.M.) A ) A Z s f 7 7 s D 4 7 I  .9.t.t.| E _ s q < 6 7  .' W.;.$ / Z d i F H e s 0 s V w Z B 3.",
"B.t.] 7 s e < s < < d d.V.].&XI.u B i < q f w < f Z 4 q f K g g q. . .w.8.9.N i g q q < K d.;.b.> } G S S S { G H p i K B 9.7 D ",
"B Z V u < : u } B > : e.F.M.oX=X% 1 1 < 4 u 1 < * s L g 1 f i 1 a.[.[.4.' 0.} g 1 , # d d 8._ r.* s.i.4. .H G.q.q.e.B 1 S _ g B ",
"i : $ O O $ * S H , X 7 } ..OXeXW # # 7 d $ $ > $ : < 1 t : 1 : q g H | F a { u $ < * t = < q T.>.[ M. .i.(  .9.{ &.P p $ # d P ",
"A.z j j U.!.!.c.<.:.~ o.W ` ~.R.O.8 j o.n e b e z 4 n U B e -.OXO.b c $.U U T z b n k p 8 c ^ k.I.>.X.X.X.n U M M X.K.+.e +._.>.",
"T ) ) ] h.{.Y..Xb.-.Y.t./ ) R T.r.t.k.r.Z C / ^ Z ^ ^ C Z / z Y.- Y ] Y U C Z Y Y Z A C Y Y Z j.].{.+Xj.A.1.j.#X@X[.a./ Y ] E O.",
"# Z Y ) Z ' A.Y.w.( V / 0.A ] d.&.' B.&.R R A ] A ) Y G Y 8./ z & b 8.) ) / Y A R ` A ) Y Y A O.w.G Z.C.' / G A ] _ Z 2.] a. .e ",
"@ 5 c c A c B D ] B D G ] v a.i.j.A.e.' R p v z z Z A B G 4.G C 8 z n n K B Z B B B c z A B c c  . .e.t.%.p Z c G c G p.E V.1.e ",
"X $ 7 G p s c s K s Z I A q ] t.' 4./ D Z Z Z B s c D 8.Z _ Z $.@.$.z A F B c p c v s H 7 c B E n ] A.M.-.e.u Z V A  .} R E } 8 ",
"+ 9 e B R d A A ( D B Z q c B ] R Z B 9 F c S $.8.s s D %.( O.%XX.' z B ! p n q v F ( G B B A ' 7 K q.e.e.| p D c A 9. . .8.1.b ",
"$ R R R c A 4.p A K s c e p f Z D c E E B c S } E S v V G 4.8.$XM G c p ! e p u  .G 9.t.B ] ] E v / 4.z.9.%.( 5 c F %.-.e.( } n ",
"# 9 ( 9.c a 9 d D V u v s z N B d p | { | ..E | ~ T v u Z P P R X < a v 8.T G ` %.$.F Z s s v Z V S  .d.e.j.e.y m m x { o._ K 9 ",
"# Z 9.8.G p p 7 s D s B d D s q d u M.N.G.i.f.9.| 9.F p P 4.K e . 4 a u E F B ..9.t.S s s n B D B 7 t.A.C.U.o.| | | &.%.d ( q.e ",
"# * d v ( P t , , , p d 1 t , t d $ S y.#X#X}.}.9.e.&.&.D L _ R X = h , d S > &.i.S t * a m t { } u a ..} { | }.Q.u.e.e.S v | :.",
"c.y * = m [ 5 # , 5 , t * # # t 5 Q * x x.4XrX;XOX3XL.(.W.;.%.9Xo.4 % = m m l.[ u * 5 T a > ;.<.v.> 5 *.,.v.).R././.!.<.= m >XoX"};
