/* XPM */
static char *tile3[] = {
"64 64 152 2 ",
"   c #040709",
".  c #080B0F",
"X  c #120E0A",
"o  c #16100C",
"O  c #1B140D",
"+  c #0A0E13",
"@  c #0C1116",
"#  c #0D131A",
"$  c #1B1611",
"%  c #1F1812",
"&  c #10151C",
"*  c #21170F",
"=  c #22180F",
"-  c #201711",
";  c #241B13",
":  c #291F15",
">  c #251E18",
",  c #2C2116",
"<  c #272019",
"1  c #2C231A",
"2  c #31261B",
"3  c #35291E",
"4  c #392B1E",
"5  c #0D1622",
"6  c #0E1825",
"7  c #0C1629",
"8  c #0E1A2A",
"9  c #111722",
"0  c #121924",
"q  c #131C2A",
"w  c #181F2B",
"e  c #0F1B30",
"r  c #0F1F39",
"t  c #111E32",
"y  c #101F3A",
"u  c #1B222E",
"i  c #142235",
"p  c #1C2533",
"a  c #14243C",
"s  c #18263D",
"d  c #16283E",
"f  c #1C2A3D",
"g  c #2E2821",
"h  c #352C22",
"j  c #3A2D21",
"k  c #373027",
"l  c #3D3124",
"z  c #36312A",
"x  c #3D352C",
"c  c #3F382F",
"v  c #212D3D",
"b  c #3D3630",
"n  c #3E3932",
"m  c #423426",
"M  c #41362B",
"N  c #44392E",
"B  c #4A3C2E",
"V  c #443C32",
"C  c #4A3E32",
"Z  c #4D4235",
"A  c #4D443A",
"S  c #514436",
"D  c #51463A",
"F  c #554A3D",
"G  c #5A4D3E",
"H  c #132643",
"J  c #162945",
"K  c #192B45",
"L  c #132649",
"P  c #152B4C",
"I  c #192E4C",
"U  c #1B304F",
"Y  c #162E52",
"T  c #192F52",
"R  c #172F59",
"E  c #173055",
"W  c #1A3254",
"Q  c #173159",
"!  c #1A345B",
"~  c #1D385E",
"^  c #202D40",
"/  c #263245",
"(  c #2B3645",
")  c #23344C",
"_  c #29374A",
"`  c #2E394B",
"'  c #303847",
"]  c #313C4C",
"[  c #2C3C52",
"{  c #203959",
"}  c #2C3F58",
"|  c #323E53",
" . c #1A3661",
".. c #1D3A63",
"X. c #1D3C69",
"o. c #213D6A",
"O. c #1F406E",
"+. c #2A4265",
"@. c #31466C",
"#. c #324971",
"$. c #345079",
"%. c #544C41",
"&. c #5A4F42",
"*. c #5D5245",
"=. c #5F5549",
"-. c #5D584F",
";. c #615546",
":. c #625749",
">. c #645A4D",
",. c #6B5F4F",
"<. c #665D51",
"1. c #695E52",
"2. c #676056",
"3. c #6C6255",
"4. c #6C645A",
"5. c #716555",
"6. c #776956",
"7. c #706759",
"8. c #746B5D",
"9. c #7A6E5E",
"0. c #7A705F",
"q. c #766D61",
"w. c #786F61",
"e. c #777063",
"r. c #7B7364",
"t. c #7E7669",
"y. c #7F786C",
"u. c #807666",
"i. c #807769",
"p. c #837B6C",
"a. c #887E6F",
"s. c #867E71",
"d. c #887F70",
"f. c #89806F",
"g. c #878073",
"h. c #8B8374",
"j. c #8D8679",
"k. c #8F887A",
"l. c #908676",
"z. c #908778",
"x. c #938A7B",
"c. c #988F7F",
"v. c #948E81",
"b. c #988F81",
"n. c #979081",
"m. c #9A9283",
"M. c #9D978B",
"N. c #9E988B",
"B. c #A09788",
"V. c #A29A8B",
"C. c #A69F93",
"Z. c #A7A194",
"9.3.4.4.4.4.4.V p ] ] ' | ` K ) ;.u.,.6.9.1.>.<.>.2.4.3.2.4.3.2 g C j >.>.<.>.3.,.5.3.8.3.1.1.S 8.g.t.1.p.j.e.3.K P P E I K _ v ",
"d.x.x.s.s.d.d.V 0 W o.~ o.~ o.! ;.l.x.l.a.u.p.r.r.p.g.h.j.h.p.l h j.s.e.r.7.9.p.p.p.h.g.p.t.a.C <.q.h.s.h.p.q.e.P P E Y E ~ ~ ~ ",
"d.h.v.j.z.i.w.N 0 { ~ X. .X.~ W G f.i.p.9.9.e.e.a.t.g.g.j.n.6.l : 2.w.9.7.7.r.i.p.p.p.r.u.p.i.S %.p.g.x.h.u.u.r.E P E P E ! ~ J ",
"s.h.g.p.s.d.l.D w W  .~ ~  .~ W D h.p.9.9.7.e.e.a.g.a.h.g.p.8.4 , <.9.e.8.r.r.u.p.p.i.u.u.t.a.C 3.h.a.p.a.p.a.h.~ R Y E E E ~ E ",
"D s.h.d.h.x.l.C w U !  .X.! ~ d V i.l.r.3.r.w.8.e.h.g.s.s.t.5., ; :.8.p.e.9.p.p.i.p.r.p.p.r.p.B =.t.p.t.i.p.f.h.~  .! ! E ! ~ d ",
"x p.d.r.h.z.d.D 0 { ! ! ! ! ! 8 V t.p.r.q.8.q.w.e.p.s.p.t.t.5., - >.r.r.u.9.e.t.i.u.p.0.9.9.u.m *.r.i.p.f.l.p.a. . .! E E ! ..6 ",
"N w.r.p.u.a.p.C w W J W { W U 0 h 8.8.9.p.q.q.w.e.p.h.s.8.r.3.- ; 2.u.t.0.8.0.9.3.r.t.0.6.8.u.B =.t.9.p.e.h.p.a.~  . .E E E ~ u ",
"> h 4 4 j j j : + # & & # @ & @ h 8.3.7.e.9.w.w.i.s.s.e.7.q.3.: , 3.u.r.8.e.t.5.8.p.u.a.g.t.u.B V 9.e.3.3.;.5.Z 6 8 5 # 8 5 5 @ ",
"v ] | ' | ] | w V 4.4.3.4.4.8.V j 4.t.w.w.w.7.8.w.w.t.t.r.u.9.: < <.9.8.u.p.r.p.i.f.l.h.f.p.p.G H T  .Y H s I 6 A r.3.2.0.0.0.Z ",
"0 R o.R { ! T 0 V j.x.p.s.x.v.A M 1.w.w.i.w.8.i.q.r.t.r.w.u.w., O 2.p.8.0.p.i.i.i.x.l.p.p.l.l.G P  .! R T T ! 0 c f.f.f.t.j.x.D ",
"9 R R R P T J 0 n a.a.g.p.h.j.=.C 8.q.q.u.u.w.r.i.w.r.i.p.i.9.2 $ 3.9.9.0.t.h.p.f.h.l.f.a.l.l.F T  . .R ! R W 0 c y.l.f.f.x.l.S ",
"0 R R L L T T 9 V a.h.t.r.i.i.8.C q.w.w.w.r.w.p.p.q.p.w.s.w.6., % =.9.t.r.p.l.h.x.g.x.h.a.a.l.G P  .! !  .! T w Z g.h.f.p.f.h.Z ",
"8 T P Y L L T 9 V p.u.r.p.u.p.u.%.r.r.i.p.d.u.w.i.q.q.r.p.u.3.; < l G r.h.x.x.h.x.l.h.h.p.l.f.F I T Y R ! ~ ! q N f.f.c.l.x.c.S ",
"8 T Y T L L I 9 N p.i.g.w.t.p.9.C w.r.u.w.p.i.w.r.r.i.d.p.u.u.- 1 2 l S 6.a.c.l.m.h.x.x.h.p.a.S T T L L P  .~ 8 Z p.h.p.l.f.l.S ",
"7 H R T H L K 0 V 4.i.p.w.p.t.w.%.w.u.p.u.r.p.u.8.>.:.:.:.;.&.1 < k , = 3 *.7.p.p.i.p.p.a.l.f.S K K J J I ~ W u F p.u.0.i.9.u.G ",
"+ 5 7 7 5 + + + , 3 C F ;.>.3.G m :.&.D C C N 3 2 h : 2 ; - : $ o 1 1 % $ , 1 4 j l j j m m m 2 & + & @ @ # @ # j 4 3 4 2 3 4 4 ",
"z 1.8.1.:.1.1.<.*.Z 3.3.>.2.7.>.j.k.v.g.x.x.m.9.) H K _ | w | w %.w.q.7.4.3.2.e.+.#.@.#.@.#.$.} A N h 3 B 8.4.>.3.3.4.B 2 j >.2 ",
"z p.q.p.u.w.d.p.h.g.f.x.g.a.j.=.e.g.j.k.k.k.h.s.R Y P T R ! ! w V z.z.x.j.h.V.k.!  .Q ..! Y W i D B.C.C.x.f.z.a.q.d.c.h.d.a.7.j ",
"z q.q.u.r.u.p.u.h.x.p.x.j.g.x.G 8.p.k.j.a.a.a.t.L L L L H H P 0 V d.h.f.m.c.Z.j.X.X.Q ! ! W W a j u.h.h.l.f.l.p.w.8.r.r.7.e.4.j ",
"M i.w.p.s.p.p.i.h.x.j.k.f.h.h.*.e.h.j.f.e.p.r.g.Y Y L Y P P T 7 D h.f.c.M.m.V.V.Y Q X. .P P Y a %.p.p.l.l.l.l.l.s.q.w.i.w.7.8.M ",
"x t.d.d.d.l.z.d.p.y.f.v.j.h.h.>.y.p.i.i.t.h.p.g.Y Y E L Y R Q 0 b h.x.N.x.c.p.m.O.! P Q  . .R d C i.h.a.c.c.l.h.w.w.i.s.w.8.q.N ",
"V r.d.v.l.j.m.d.g.h.g.k.j.h.j.=.g.a.p.f.f.x.l.j.R Q  .Y P Y ! 5 x h.z.m.m.l.s.p.! !  .Q ! ! Q P D p.a.p.l.c.l.8.8.5.i.d.i.7.w.V ",
"x w.i.z.j.h.j.d.g.r.y.h.f.p.j.=.r.p.i.f.r.l.h.x.Y R  .L Q R E 6 M r.z.c.m.l.i.p.! X. .Q Y  .T s V d.p.u.f.a.g.p.1.r.7.i.i.8.8.N ",
"x t.i.d.l.a.i.j.p.t.y.s.f.h.x.3.r.r.i.g.h.j.h.f.P R  .P ! e @ @ : N :.;.S >.h.F 0 X.Q Q Y T T q C h.l.a.a.9.a.u.w.w.8.w.r.p.i.M ",
"x s.h.z.h.u.3.r.a.p.s.p.h.p.c.6.W U E E ! ~ ~ O.f.k.x.x.x.<.<.N w ^ P I I I T I q.m.h.h.p.p.u.,.C x.h.s.a.8.r.w.8.d.i.p.d.s.i.V ",
"k w.h.h.g.h.w.p.h.a.e.s.p.g.h.G E U Y ~ O.P J O.f.h.x.x.g.f.t.Z 0 R ! ! o.X.X.I h.l.g.f.l.l.a.u.A z.t.s.8.8.8.r.8.r.h.h.p.y.w.N ",
"h q.u.i.a.p.u.p.a.s.a.t.r.r.g.F I W E ! U P U a -.y.k.g.r.0.p.N 0 H R  .Q  .~ a a.h.l.p.l.p.h.u.A g.p.r.t.9.q.e.t.r.x.d.q.8.r.C ",
"x t.h.w.x.p.r.u.p.d.h.8.a.t.a.Z K E W E ! U E & k y.g.s.r.r.r.Z 0 I R R Q  .X.T l.x.l.h.f.h.h.l.F h.p.p.8.8.9.8.e.9.w.q.r.w.8.j ",
"h e.l.q.c.g.p.a.p.g.l.r.g.i.t.Z K I I Y U P I & V y.j.e.y.f.f.N 0 T R R Q ! !  .l.h.h.h.h.h.e.a.=.a.q.t.w.q.i.q.8.x.q.w.w.r.>.1 ",
": q.F r.h.h.h.a.r.u.g.h.h.a.p.S a U Y P P J J 6 V s.f.y.8.e.p.Z q Q  .! ~  . . .l.c.h.l.g.w.r.r.*.p.9.e.8.8.8.4.r.i.e.r.7.<.F ; ",
"; B 3 F &.8.l.p.h.h.a.h.x.x.t.N t Y P K Y K I u c 8.y.e.8.0.e.Z w W I ) W W ! a t.x.x.h.h.l.s.e.D t.t.i.q.3.5.,.S F G G B 4 m ; ",
"X - O - ; 2 4 j 3 4 4 3 m l 4 ; 6 t + + @ + # + % h 4 3 3 3 h < . & . & & & & @ B l.l.h.f.g.p.<.1 l x l j 2 : 2 ; ; * = O o * o ",
"O h 2 N h j A 4.8.q.8.8.7.8.8.C 3.f.,.2.4.4.4.V u ] ` ] ] ] ] u x 4.4.N 7.8.4.*.U ! W Q Q H I K A 3.>.>.>.*.<.4.Z 1 3 < > > h % ",
"< z.V.V.Z.h.j.g.h.v.x.h.a.l.f.F >.k.h.y.s.p.s.Z 6 K W U W ! { u 2 >.3.t.g.x.x.A 8 ~ W Q Q ! I H D a.h.p.p.w.t.e.p.h.x.v.x.j.u.< ",
"$ 7.h.i.r.t.r.r.s.z.c.z.c.d.u.B G k.f.s.f.s.x.Z q U ! P J U q 0 n 9.h.j.a.x.z.C 7 E E E H H P a Z p.8.8.p.u.8.p.7.4.a.p.t.3.D , ",
"$ 8.g.t.t.e.t.y.i.j.z.z.z.d.h.C Z x.f.s.f.k.h.S q { ! E ~ J W u n y.h.y.h.g.g.Z 6 U Y E P P J d C p.p.e.e.t.h.9.q.d.p.t.e.7.r.% ",
"> 9.t.e.q.g.s.t.t.z.p.j.a.l.l.S =.f.f.y.h.h.x.S q ~ U P E E I 0 x y.t.i.r.i.u.C 6 K P Y P J I I N p.u.a.p.p.e.x.l.h.t.e.e.q.5.% ",
": q.p.t.8.w.t.8.8.e.l.l.h.p.l.G 3.h.h.t.h.l.f.D q ! P U E Y W 0 b s.h.p.u.p.a.C 6 J J J J J P a x t.r.t.a.a.h.c.c.h.p.p.8.9.3.; ",
"A p.h.i.e.8.t.x.j.s.g.l.p.p.c.S 7.x.h.p.c.f.f.;.d E E P U P K 6 n p.h.p.r.t.p.B 6 J J U P Y W i x 8.t.p.5.p.g.x.h.h.h.g.4.q.3.j ",
"C g.a.i.r.r.p.s.j.h.i.d.a.a.l.S *.p.N G F Z 3 c 8 i # # 5 # # @ , 3 j m 2 2 h : + @ + 6 U J # @ h 7.t.t.q.e.9.V.m.x.c.e.q.8.9.C ",
"A e.t.e.h.g.g.s.g.y.v.v.s.s.p.M d a r a J K ) K <.8.=.=.e.3.9.,./ d I U / / ` u n 2.<.-.t.g.3.Z x 4.t.w.w.e.j.m.m.v.j.h.t.8.r.N ",
"V y.s.s.s.g.s.h.y.j.v.v.j.j.r.; & J a P U ! O.i 8.t.r.r.a.f.a.g.W W T W ! ! U 6 c r.r.r.p.p.h.D k 8.r.s.j.s.s.j.h.c.k.g.g.p.p.V ",
"b y.h.g.s.p.t.y.r.j.M.c.x.l.9.; q U E E ! E ~ J e.p.p.t.t.g.f.p.J W R Y P E W 6 x r.p.g.r.p.p.N h 3.p.p.t.w.y.s.t.y.x.g.a.g.p.N ",
"V h.g.h.h.p.q.y.s.v.M.x.v.x.5.1 0 J d P K E ! U g.g.t.r.h.p.p.t.P Y Y I ! E W 6 c g.p.r.p.p.g.N > <.t.j.y.q.s.s.s.p.h.p.t.j.q.x ",
"V h.h.g.g.d.s.e.g.k.k.x.x.k.i., 6 P J d Y E E Y p.t.p.t.t.r.r.e.E J E E Y E W 6 V g.g.p.h.y.g.Z > 2.p.v.p.p.s.s.t.s.n.p.t.y.q.h ",
"g 8.j.g.d.s.y.t.y.y.y.g.c.x.6., 6 a d d I I J J 8.t.f.k.p.8.t.r.I E P P Y Q E q n p.h.h.p.j.h.Z : q.j.y.e.p.j.j.p.y.g.p.p.p.4.2 ",
"2 1.9.i.s.s.t.s.e.e.9.:.=.=.:.2 0 u q i K K J J 8.p.a.p.e.e.t.e.J W P J Y ! U 6 Z 4.r.f.g.p.f.Z 2 &.3.:.G *.>.>.2.:.;.;.;.;.G 1 ",
"$ : 2 2 3 M C h 2 3 2 1 , = < O .     + # + + + 4 ;.=.=.*.=.*.M # 8 8 i 7 @ @ @ % 2 3 l 4 4 l l O 1 ; - * = : , 2 1 , : = = : O ",
"V 4.4.7.3.x.d.5.a f f ( ` ` ' u g V 2 1 , 3 h >.2.4.>.>.=.<.>.x x 4.4.3.4.3.2.7.1.*.B N m m S , D q.q.4.4.4.4.V t | ' u v ] 0 v ",
"V d.x.z.c.a.i.*.8 H H H J J i @ j g.h.p.a.p.4.8.t.h.r.q.t.p.t.N n 9.a.e.q.t.g.h.d.w.l.B.m.m.l.4 V s.j.v.j.z.j.C 0 K I d t a [ 0 ",
"j 7.x.w.w.a.r.&.7 H y a r r d @ % h >.9.8.3.8.q.e.t.e.e.t.e.p.N k e.8.9.r.r.p.t.q.i.v.l.l.c.u.: n e.s.s.s.i.u.C 0 K P I J q I & ",
"V p.g.4.8.e.r.N # H r H a J i @ g -.*.2.8.e.e.8.q.8.8.p.t.t.r.N x t.q.p.e.e.9.p.h.e.x.x.x.a.u.2 b s.s.s.p.t.l.D w T L P I T i w ",
"C a.a.r.w.w.7.l 5 H H J P H J # : 4.p.t.3.9.p.r.9.7.e.r.8.e.e.N V k.p.p.t.e.t.a.g.a.p.i.a.g.0., n s.v.j.b.j.d.D 0 K H T P P H + ",
"V s.9.a.8.7.8.N 5 P y P H L J 6 , 8.e.e.8.3.3.e.r.q.e.q.e.q.e.M A c.z.e.a.r.a.i.d.g.p.a.p.p.u.1 V s.d.z.j.j.s.D 0 H L T P Q I p ",
"x 2.u.p.r.3.3.M 9 d d a K K d & ; 4.e.8.p.p.u.8.q.e.e.s.e.e.7.x V j.a.e.e.p.a.g.c.h.p.g.g.x.a.2 n i.d.i.i.h.d.D 0 W W J K I W 0 ",
"; 3 4 4 4 , , : . @ # # @ @ @ @ ; 3.u.r.p.p.w.e.e.t.9.r.r.t.9.c A x.z.a.p.s.a.h.c.g.p.h.j.c.a.x > g 2 g g m m 2 # q + + + @ @ + ",
"u ] ' | | | ] u n 3.4.4.4.8.<.n : 3.r.h.i.a.p.e.8.r.r.7.r.t.4.N A x.l.l.h.x.s.h.h.x.h.j.v.k.m.D f / K / ( [ [ a 3.v.>.,.4.1.1.V ",
"0 P ! I o.! W w n y.y.g.s.y.p.V : e.g.a.l.f.u.p.l.p.e.8.h.w.i.C A c.c.g.a.l.h.j.g.j.k.x.h.k.c.G K ! J P H  .W Y y.h.M.h.z.t.t.V ",
"& J P P W P I 0 V t.p.a.y.s.s.C : 8.c.p.a.g.e.e.r.7.8.4.e.p.c.N x x.h.p.p.x.h.g.g.j.v.x.g.g.t.D J J Q P P P Y L p.t.x.d.c.9.8.M ",
"& H H H P W U 0 n e.s.t.i.v.j.C 2 8.l.x.c.h.9.t.r.r.w.w.7.r.w.j V p.p.h.p.k.k.y.a.s.h.h.p.t.p.D J E Y P Q Q L H e.w.d.h.z.r.w.x ",
"9 J L J P L I 9 V s.s.s.s.i.s.C 1 7.s.p.p.i.d.r.e.8.e.e.8.r.r.M l p.x.a.g.a.p.h.a.u.p.a.g.g.h.G a  . .P P E Y H p.t.a.h.h.l.9.M ",
"# J H L T P W w V i.s.i.s.v.z.N 1 4.l.h.a.p.d.t.8.w.t.a.w.t.9.3 l e.p.d.g.g.a.g.p.p.t.a.t.s.a.F Q E Y Y P E L H t.t.u.a.a.r.p.M ",
"9 K K y K K J 0 b 8.5.1.u.a.z.V A d.l.j.h.b.u.1.8.e.r.8.w.8.5.2 1 *.G 9.a.h.h.t.u.9.8.e.u.e.p.G K Q Y Y P W P E p.a.t.l.j.t.w.N ",
". @ @ @ + # # + ; h 3 ; 2 j C C , B N N l 3 2 : 2 3 3 2 2 2 m O o ; ; 2 3 3 3 2 2 2 1 2 4 3 3 2 d P P 8 6 H J a *.e.g.8.M 2 4 1 "};
