/* XPM */
static char *tile1[] = {
"64 64 252 2 ",
"   c #4A3C36",
".  c #4E4239",
"X  c #58453C",
"o  c #65473D",
"O  c #5B4A42",
"+  c #5D5145",
"@  c #694C43",
"#  c #714D43",
"$  c #68554A",
"%  c #77584A",
"&  c #695C54",
"*  c #785D53",
"=  c #736352",
"-  c #73635A",
";  c #7B6559",
":  c #6E6360",
">  c #796B63",
",  c #7C7368",
"<  c #875E4C",
"1  c #935E4D",
"2  c #845D51",
"3  c #8C624E",
"4  c #88684E",
"5  c #946A4E",
"6  c #846454",
"7  c #8C6452",
"8  c #8C6B53",
"9  c #886A5B",
"0  c #936552",
"q  c #9A6655",
"w  c #946B54",
"e  c #9B6B55",
"r  c #956C5B",
"t  c #9C6E5A",
"y  c #897258",
"u  c #947355",
"i  c #9B7356",
"p  c #95745C",
"a  c #9C735B",
"s  c #96795A",
"d  c #9D7A5B",
"f  c #A26B56",
"g  c #A76B58",
"h  c #A46D5A",
"j  c #A37456",
"k  c #A4735C",
"l  c #AB755D",
"z  c #A47B5C",
"x  c #AB7B5E",
"c  c #B1785E",
"v  c #856D63",
"b  c #877569",
"n  c #947263",
"m  c #9C7563",
"M  c #9D7B63",
"N  c #987A6C",
"B  c #887B73",
"V  c #967C71",
"C  c #A47562",
"Z  c #AB7661",
"A  c #A47B63",
"S  c #AC7B64",
"D  c #A67769",
"F  c #A37D6B",
"G  c #AC7C6A",
"H  c #B37C64",
"J  c #B87B66",
"K  c #B27D6A",
"L  c #A2815E",
"P  c #AC815D",
"I  c #B3805D",
"U  c #9C8268",
"Y  c #8D8477",
"T  c #968778",
"R  c #94897B",
"E  c #A58363",
"W  c #AB8363",
"Q  c #AA8966",
"!  c #A4826B",
"~  c #AC826C",
"^  c #AC8A6A",
"/  c #B38364",
"(  c #BA8265",
")  c #B58A66",
"_  c #B4836C",
"`  c #BB836B",
"'  c #B58B6C",
"]  c #BB8B6D",
"[  c #BC956C",
"{  c #A58372",
"}  c #AC8572",
"|  c #AC8A74",
" . c #A98979",
".. c #B48572",
"X. c #BB8673",
"o. c #B38A74",
"O. c #BB8B73",
"+. c #B48C7B",
"@. c #BB8C7A",
"#. c #AA927C",
"$. c #B79777",
"%. c #BB9375",
"&. c #B6927C",
"*. c #BC937C",
"=. c #B9A27E",
"-. c #C38A6D",
";. c #C4886D",
":. c #C4926C",
">. c #C78B72",
",. c #C38C74",
"<. c #C28D7A",
"1. c #C29173",
"2. c #C3937C",
"3. c #C9957C",
"4. c #C99978",
"5. c #D59778",
"6. c #CAA479",
"7. c #D7A27E",
"8. c #998D82",
"9. c #9C9285",
"0. c #9B9489",
"q. c #AB8E82",
"w. c #BA8E82",
"e. c #A79789",
"r. c #B49383",
"t. c #BC9483",
"y. c #BD9A83",
"u. c #B59989",
"i. c #BC9B8A",
"p. c #AE9D93",
"a. c #B7A289",
"s. c #BDA28C",
"d. c #AEA692",
"f. c #ADA496",
"g. c #B3A494",
"h. c #BCA493",
"j. c #B9AA99",
"k. c #AEA7A0",
"l. c #BDABA1",
"z. c #BEB5A7",
"x. c #C39582",
"c. c #C79686",
"v. c #C49A84",
"b. c #CB9B84",
"n. c #C49D8C",
"m. c #CB9D8A",
"M. c #D59A86",
"N. c #D39C84",
"B. c #C79E92",
"V. c #CBA385",
"C. c #C7A688",
"Z. c #C4A38C",
"A. c #CCA28C",
"S. c #D3A38C",
"D. c #D6A98A",
"F. c #CEBA8E",
"G. c #C5A393",
"H. c #CBA493",
"J. c #C7AA95",
"K. c #CBA59A",
"L. c #C4AC9C",
"P. c #CCAC9C",
"I. c #D3A593",
"U. c #D3AC94",
"Y. c #DAAB95",
"T. c #D3AC9B",
"R. c #C8B39A",
"E. c #DAB797",
"W. c #D4B49B",
"Q. c #DBB29C",
"!. c #E5B08D",
"~. c #E4B998",
"^. c #C3ACA3",
"/. c #CCADA1",
"(. c #D2AEA2",
"). c #C3B4A3",
"_. c #CCB2A3",
"`. c #C7B8A9",
"'. c #CCBDAC",
"]. c #D3B3A4",
"[. c #D6B7A7",
"{. c #DCB4A4",
"}. c #DBBBA3",
"|. c #D5BBAB",
" X c #DCBBAC",
".X c #CABAB2",
"XX c #D5BCB4",
"oX c #DABDB2",
"OX c #E2BBA3",
"+X c #E5B8A7",
"@X c #E0BDB5",
"#X c #DAC798",
"$X c #ECCD96",
"%X c #CDC2AD",
"&X c #D2C3AE",
"*X c #DAC5AA",
"=X c #CCC4B7",
"-X c #DBC3B4",
";X c #D8C6B7",
":X c #D4CBBB",
">X c #DCCBBC",
",X c #DCD0B8",
"<X c #DDD2BB",
"1X c #E6C6A9",
"2X c #EAD5AA",
"3X c #E5C9B7",
"4X c #E3CCBC",
"5X c #F1CAB4",
"6X c #E7D5B9",
"7X c #E2D4BC",
"8X c #EBD3BC",
"9X c #F1D7B9",
"0X c #EEE4B5",
"qX c #F5E4BA",
"wX c #CBC5C2",
"eX c #D6CAC3",
"rX c #DCCBC3",
"tX c #DCD4C4",
"yX c #D8D5C8",
"uX c #DDD5CC",
"iX c #DED6D3",
"pX c #E2CCC1",
"aX c #E8CAC3",
"sX c #E3D4C3",
"dX c #EAD5C6",
"fX c #E4DAC4",
"gX c #EBDCC4",
"hX c #E3D4CB",
"jX c #E4DCCC",
"kX c #EBDBCC",
"lX c #F3DCC6",
"zX c #E5DAD3",
"xX c #EADDD4",
"cX c #E9DED9",
"vX c #F7D9D4",
"bX c #E7E3CB",
"nX c #EBE1CC",
"mX c #F4E5C8",
"MX c #ECE3D4",
"NX c #EAE6DA",
"BX c #EDE2DC",
"VX c #F4E5D8",
"CX c #F3EBDD",
"ZX c #F7F2DA",
"AX c #ECE6E3",
"SX c #F4EBE3",
"DX c #F4EAE6",
"FX c #F8F4E8",
"GX c #F9F3EC",
"HX c #F9F5F2",
"JX c #FDFAF3",
"KX c #FDFDFB",
"% +XM.M.V p.DXnXKXFX0.; t.O.' w ;X^._ F G t 8 F { XXxXC a S *Xg.@ m C < % j.SX[.6XfX0.- &.H h F |.&X`.q.! ;XwXAXP...Z H l 5.MXT ",
").O % v tXcX{ a n.dX6X=X> - 9.[./.C >.+X(.K 3 w r.hXrX@.C { b.}.=X; $ g.SXL.w X.N.4.1X<Xb $ 9 R.|.C u.@.w S r.j.rX} S ;.` b.5.gX",
"OXjX=XdXK.H w 0 w z H 5.6X<X7Xm 2 1 q B.K Z l 0 j.DXrXr r P.-XZ *.rXCX'.D /.e ` ,.+./ !.8X7X,Xv.+XJ t X.] b.K H C k H x.J <.S.3X",
"( kXCX+XXXx k u w i H Q [ jX9 q Z 2 1 Z x.C D 0 A ].i.D k G.X.<.N.1Xl.3 u..XC Z J e ) 4.5.gXn 1 J Z +X@.O.` l H C m.-X3.J c hX<.",
"c lXj.R.W.A k t 8 8 z E x <X% F w.+.C K H.k t w w a 3.| k y...I.(.oX8.Z cXBX(.;.2./ x ( 5.3Xo l J h T.x.g Z J m.o.I._.h.2.] M.Z ",
"g 8Xe.J.v.H.z z i i i L E *X@ G.@XK.Z J ;XC w w w w ,.U.z | O.+.dXSX8.J HXeX+.h 1.Z i.j :.5Xo f 1 D K f < 1 0 f I.zXzXzXA.f l k ",
"1.3Xd.W ~ v.z W Q P s d z -XY n.@XB.X.B.4X{.~ w 6 u p 4.a A V.tXDXBX^.M.BXDX8XT.2.CXJ.z [ 1XT f q K g 2 < 7 C G S xXkXDXn.j J _ ",
"P 7Xs.2.W.A ' [.W.$.L L u V.g.O w.D x.@XI.q.$ T R . % A 2.~ ).DX.XrXwXB.wXiXAXGXkX,X2.h.kXFXj.o c.h h 0 < r > &   - N P.~ f l >.",
"-X&Xn.-XoXu P.s.J.L d ! s W *Xd.X A H. .* h.nXOXE.7Xj.$ 6 ! ^..XKXeXXXI.vXKXGXcXL.' ' AX=XDXNX- < t 0 % % b :XMX8X%Xb $ 6 e r M ",
"R.+...K.o.~ '.$.E 8 y s E u P *Xj.& $ e.fXu.r X.a %.*XjXR X T yX`.@.t 8X9XBXpXc.l l MXJXuXzXJXgXp.& N 9 L.-Xx.N.dXVXMX'.- X B '.",
"e c.@.G t.l &.&X#.U y 8 u u d c Y.6X7X`.n < 7 G m e o.GXGXnXrXiX3X^ H >XT.m.;Xx l V.SXFXNXuXAXOX5XCX`.nXZ.o.c b. XH.Y.~.9X7X_.M ",
"0 C @.+.x.a s.P.R.E > s E d $.a H mXl.t o.v w a G 8 P.cXJXFXe.aXP.*.*.W.-Xb.-X[.>X[.4.( N.dXhXT.5.4X4Xm k t H <.m.;.<.>.5.CX9 % ",
"0 C Z 0 S a | -X|.C.#.i $.' W p w OXR ~ {. XM C C F a |.GXNXe.G.n.P.C.J.[.) D.NXcXhXQ x / ;.I.H.Q.-X:Xt e k l H x.I.;.( 5.sX@ 2 ",
"1 e t q j S d $.s.C.s u P ) W F e Y.g.vXoXoX+.D k k e a gXNXv o.o.|.' C.:.s j ,XcXJ.z L W W *.+X5XS.`.e t e l Z k H J H 5.*Xb m ",
"7 q k H W _ P M F ].a w w j X.k j U.G.DXI.T.{ k @.~ w m %.MXB S 2.}.*.| d W z L ' Z.^ E ' Q *.;X .! d.h 8 3 e Z b.l k S ;.1XT 2 ",
"7 t h _ A 6 = R R & 7 z w H O.h 0 >Xm aX+XT.+.a Z _ e k c E.j.; ~ v.5XW.M y $ X X 9.^ E ^ 4.mX}.M i.e.Z 3 < w e k l t S H D.&X  ",
"  q k m b ).6XgXgX6XY $ F /.&.9 W.h.K oXaXt.{ t k k o.t / Y.8X, ; XXm.#.> a.bXnXbX=X- = Q 4.%.y.q.XXb < N XXM G C ` ` ,._ ;.>Xj.",
":X- $ h.iXs.j x e ( ZX`.> - T &X).w 0 {.vX/.K  .,.<.` v.z $.5XkXz.& * e.eX%Xa.=.#.<XNX0.+ y U <XtXj.r 3 n G.t.G K h l J D _ ,.1X",
"~.gXsXhXGX_.i i e | hX1X:X&X3X~ 1 l 0 (.{.oX` D X.<.X.~ | / V.8XlXjXbX:Xj.$.e.R.R yXAXKXJXf.ZX:X} c.M r 2 U e X.X.,.G 0 l / W 4.",
"3.OX`.BXSXGX!.1.h n.DX{.S.;X% q 0 l G K K oX,.w k l x.x z ` b.v.Y.1XuXs M $.*Xj.j.HXNXNXHXbXh.n } @.@...D F +.X.DXK.M.,. .k H ,.",
"Q.}.e.zXzX3XA.Q.b.T.HX X1XhX# q g q C >.>.XXc.D t Z 2.O./ W A.H.H.U.9.u s Z.R.Z.$.:XNXBX9XbXb A D G ..K K C G iXHXyXv.*.F k A k ",
"V.].f.pXhXn.P.4X{.4XGXSXVXhX# h x.I.J ` J 3XX.` J B.A.3./ S A.@.DXV.0.u s y.=.$.a.NXBXBXkXnX6 W 0 < m H C Z -XAXKXAXxX` G j E i ",
") W.:XdXJ.W 2.eX4XU.BXBXDXSX; Z X.q g J J ;.I.c.2.pXpXT.2./ <.] A Z.8.a M Q z U &.zXcXcXGXNXv e w G t t D } >XFXDXAXAX}.c.N j.x ",
"^ jX.XhXL.u [.U.7X2.VXxXMXnXe.r J B.g J J >.w.V * m @.m.3.<.X.m.,.|.s.W O.E L ^ $.zXzXjXDXFXY r @.K t k t N * , , 0.yX].~.NX=Xi.",
"%X`.4XHXKXFXlX! J.9X$.jXZ.-.3X- 2 g Z g 1 u.AXKXuX.Xb b n.H ` r.{ z.t _ _ a u E 4.NXuXzXcXZXjX- n S l h % V &XMXAXiXY & a.VXuXR ",
"#.>X;XkXHXSXlXz W.*X6XmX&X,.}.<Xp.O % V ;XrX(.>.X. XMX`., 7 N L.'.o.M.m / u d i %.,XjXcX-X4.6XkX8.  X B :X=X|.dXT.KXJX:XT , bXfX",
"] hXtXrXJXkXmX*XJ.#X&X4.gXFXSXkX{.hXrXrX} @.N.O.K o.P.V.sX'.hX^.Z C h <.t k a u W ' *Xs./ ' W.~.1XfX7X&Xv.c ;XSXI.zXSXJXZXFXuX^ ",
"%. XhXxXzX2X2XmX0XqXF.L U.xXjX&.c {.z.K.G.G ` }.2.o.| D 4.hXe.B.I.l h h e i w a v.Z.w P E 2.%.A.S.9X=XxXo...T.,.{.;XhXeXCX7X; M ",
"H ' |.Z.$.D.mX0X$X$X6.Q L *XJ.*.f E.8.} eX@.].H.H.O.m.P.}.aXXXx.<.m.@.G c l t t X.W.a W S / A.oXI.1Xz.hXxX]._ e 4XN.kX4X:.<X% e ",
"2.C.d ) ' C.E.6XqX#X6.P ' ) +.v.J I.R rXhXu.n.X.].~ +._.U.1Xq.G B.,.J <.H.` e f @.P.W S l K.-XT./ VX=XhXzX]...D |.].b..X!.bX# 5 ",
") C.z / ) [ F.<XQ.C.4.D.:.5.kXG.(  X:X} +.hX(...2.+X} ..;.1X0.q.B.B.3.XXv.(.k j { G o._ / _ |.hXa ,X.XpXpXH.H.B.Q.VX~.+XnXNX; 5 ",
"] Z.) Q Q #., R Y , u.4.c 4.GXXXk uXi.} q.zXG.m J.kXt.p r D.=Xv w.G X.Z T..X$ + O # L.P._ @.-XXX/ jXl.pXv...(.<.I.Q.4.V.JXAXd.% ",
"$ L [ L = h.NXMXmXJXp.& 7 _ t.* .Xj.C V #.h.G  .u.q.A x.} ,.6Xe.Y 2 0 q 2  .CXCX<Xj.> - { K j.6 XXe.B.G S @.].Z _ Z x :.1X7XgX& ",
"z.X , j.0XJ.L Q 6.1X1X7XR O u.NX^.m w.{ n F *.{ v.+.p _ ..k 5.8X.XO @ b :X>Xm.H J O.1X%X, v `.ZX.X< 7 j } _ v.v.x.t ( ,._ ] mXbX",
"#X0X7X%Xs E P Q C.' ] 5.gXlX'.J.N.H.G m ..t.+.&.A.i.+.A a k H >.8XsX&XjX} B.@.l S r c V.4XsX'.F m.v.w A k _ [.K.2.*.,.-.,.A.nX6.",
"P E.d.u u W W ) / [ m.A.5.gX|.,.6 n.D Z X.Q./.| m.n.v.+.t k H ` ,.5X`.zX..T.T._ Z / J _ b.:XX H r.H.o.C { /.-XS ^.o.S.N.,.1XjXP ",
"I E.R 8 j c / / 2.b.C.3.-.*Xr J 1.r._ _ _ ~ t.t.S.y.~ Y.m Z Z Z n.N.T .XG XXH.Z O.+.n.S.3XGX- < B.D @.x.o.n.eXK. .O.T.>.S v.x j ",
":.$XT 5 l J ` ` x O.A.H l 1XY 1.,.7 D w A ~ _ ~ x.+.@.m.Y.J H ` 3.7X8.i.t /.XXk <.n.y.vX1X7X% q G c.oX+.v.K.uX..x. X}.OX+X;.c ) ",
"E.E.a.x H J ;.,.] ,.A./ ( 9Xg.K._ _ n `.m a S ~ Y...a X.{.x.t.2.b.U.e.a | ].o.X.T.P.r.v.N.J.v B.B.x.].n.o.n.].b e.x.J 4.3.:.:.6.",
"C.7Xi I l g K <.<.c.v.*XP 7.MX= { I._ k ! 7 $ T - & * N.Q.H.t._ y.>XF t i.t.&.v.U.*.Z.A ] *XB T r.K.B.@.G V B f.9.& 6 J ] x -.6.",
",X#.,.<.G rXh c.` 2.*.' ,.I qX<XB w.O.p 9 g.yX-X6XjXe.X } +Xx.N :Xa.C i w._ n _ &.i.$.*.Z.!.>XB b G S 5 = :X:X4XfXgXj.$ w ) P s ",
"^ v.X.Z p.B.K x.<.a A ] x / !.ZX:X; * Y yX-X|.| M.` *XNXY : q.sXu.3 w a t.o.3 p 8 ! C.V.y.*.1XZXe.. o T nXW.x.p o.Z 1XbXR X T fX",
"@.K.Z h K c.Z X.2.Z _ i z P D.E.E.CXZXKXrX[ _.*.3.I.Q.1XNXfXj.M m r 2 D rXw.2 9 6 ! A.F 2.V.V.U.1X<X<X'.i.hXb.| ~ 6 O.!.3XfXR.&.",
"K./.Z K K X.h c.3XG d j 5 P O.6.$.6Xz.s.! W s.J.+XQ.m | :.FXV n r.c.G a  .r M l.8 W O.u.z ~ ' E ] #Xj.w W.XXS ! r. .O.3.;.fX9 X.",
"n.c.H.K.B.B.K 2.1XD.Q i L Q ^ [ j.NX8.s 8 a R.T.3X~.N S N.kX{ oXaX;Xb.O.e < u.XXM a G A ~ I.D O.,.E.R d z 8 d rX_.o.Z +.I fX* f ",
"K K K K x.x.O.m.P D.S s i E L L F.SXR 4 8 d U.Y.D.E.X.S -.+Xg.jXcXDX4.l k w uXXX .w o.M k _ 3.~ ( E.R A d i +.SX;Xu.G t.l *XX K ",
"K w.D H 2.S / o.) P L L P L L Q C.CXe.y u M y.Q d -.5.c >.1Xe.%X;XaXm.` ,.h uX0.; 8 _ F u.t G 3.m R.`.W o.z G.KX4XB.A a ~ W.V G ",
"g @.h l k ; $ 8., . = Q [ y u E $.MXy y y ' Z.E d x ~ S.3.!.tXY .X-X@.H.K.r p.k.9.b * :XL.7 m y.#.tXg.2.H.+.L.HX^.v.X.o.-XOXl.% ",
"* g w.n v :X,X3X2XFXf.- U U y = %X#.u =.y E *.| U.W.~.v.1XE.2XeX, U P e.9.'.ZXMXQ.9XcXY : e.l.p.`.^.w.G.^.K.aXBXMXrX|.jXzXI.tX> ",
"f.O @ q.SXu.^ U 6.6.mXZX0.& y %Xj.4 y L $.Q Z.E %.:.~.S._.7X2X2X=XY ; ).bX*.J.=.i l gXgX:XB .XDX`.+.D x.DX;XH.zXcXBXrXH.H.H.JXCX",
"FXnX>X'.n M U $.U P 4.qXFXyX%XU %.Z i W =.' L d u d / 7.!.D.U.$X0X6X%Xs.5 5 j I z i U.6.lXBXeXaXvXu.3 n.} [.O.SXzXxXh.r Z sXNXFX",
"DXDXp.D k [ C.$.4.s P 6X0X<Xy 4 e i w W $.~ s 8 U h.y.a 7.!.!.$X$X$X=Xi i i u j 4.z *.S.~.MXV  XaX.X].(.* i.P.x.zXt.@...L.cXcXzX",
"DXKXl.G n 8 E [ :.W.*XkX0XyX$ 3 h 0 k W [ | A p #.h.| s ~.$X2X2X0X2X0XL L 5 5 5 c d i Q >X:Xb (.aXoXoXK.7 /.G.n.oX3XI.@Xl.G.@.hX",
"1XSXz.n.T.~ z / 1.mXGXuX$XJX; r Z C w z S a u s s #.! L :.-.-XW.F.9Xj.!.[ i u u ) ~ 5 y.HXGXv /.(.aX/.K.K. .P.].O.4XGXHXXXA ;.S.",
"<.4X;XP...b._ 2.y.D.FXsXdXJX8.D K G 0 a _ a 8 w i z d W :.4.+XQ.5.U.a.$X[ 4.7.x z j U u.BXGX0.u.(.B.G t.B.H.G.~ w Z.GXHX[.F _ ` ",
"K zXM {.4Xc._ i  .C.Y.Q.S.lX=X; 6 3 0 e 7 6 X & & + y O.( <.,.Q.V.jXG J D.P.H.c j z d 5 ! GX`.- F t D i.w.* X B $ $ ^.J.&.e A Z ",
"_..XZ [.3.P._ G D.u.A.U.<.1XGXB $ 8 8 7 $ u.FXFXjX:XR & D J C q.>X.X..H VX!.E.k S G A u M W.FXd.  0 } r ; L.bXQ.4X:XB ;  ./ D t ",
".X0 K c.H Z _ ;.!.b.] m.( ,.!.8Xe.  O v <X7XR.-X5XZ.6XsXR @ g.NXq.B.K Z VX4.[ w i / z i 8 u V.qXj.& O d.MXR.....4.5.lXeXb $ b `.",
"1 e l x.Z l H H ` b.S./ b.,.D.D.W.7X,XL.! m X.t.-XMXGXMX4X%X).w.l x.h H VX4Xy.m i i P a d ) W V.1X8X,XR.~ G.T.+.+._ S.8XnXtXjXu.",
"0 l <.` l l g c.c._ <.l J ;.;.V.N.$X).p.p n P. X3XAXzXkXDXHXV Z X.w.Z Z @XVXn.d A P E %.^ E V.%.,.U.d.D 0 o.t.G H _ x.V.,.dXb 0 ",
"1 g J ` x.c.c.<.[.P.<.` O.x / m.}.dXd.r O.N T.|.2.] 4.D.D.6X# f g e g k {.4XdXZ ^ *.%.) o.M ' Y.Q.U.R y.7 q Z / _ ` O.k :.tX# 1 ",
"Z J >.J -.( ;.>.I.3X].X.J h.AX&.N.8Xp.*.I.t.} *.d A ] _ 1.,Xo 1 q q l h b.X.3XX.u W / %.L E ) V.b.OXY M rXa l _ H O.Z k ;.jX# q ",
"X.c H f h h h Z l <.,.T.3.I.cXBXw.}.p.Z H O.~ u ^ o.i %.>.E.V 1 g g H G ` J |.X.u i i %.W z S ,.n.Q.q.z.^.XXe X.v.S _ S / *Xv g ",
"J ;.` q r N b b - @ m H ;.<.n.P.q.kX .o.l a w M ~ { X.a l 4.f.X h _ h Z G 9 b 0.b X 9 :.] k k x...tX{ q.oX% ! J.H.` J S l S.p.% "};
