/* XPM */
static char *tile2[] = {
"64 64 226 2 ",
"   c #766A4A",
".  c #7A6E4B",
"X  c #766C50",
"o  c #7C7453",
"O  c #8A7A4F",
"+  c #847956",
"@  c #8B7D56",
"#  c #8F8050",
"$  c #8D835C",
"%  c #918256",
"&  c #93845B",
"*  c #978A5D",
"=  c #9C8B5E",
"-  c #9E905A",
";  c #A08F5E",
":  c #A5925B",
">  c #AA965C",
",  c #AD9A5E",
"<  c #B59E5D",
"1  c #8F8363",
"2  c #918563",
"3  c #968A63",
"4  c #9A8C63",
"5  c #9C8E6B",
"6  c #9E9162",
"7  c #9D926B",
"8  c #9F9670",
"9  c #A29364",
"0  c #A89663",
"q  c #AB9B65",
"w  c #A2946D",
"e  c #A6996C",
"r  c #AB9C6B",
"t  c #B39E63",
"y  c #B19F6A",
"u  c #A59B77",
"i  c #AA9D73",
"p  c #AEA16D",
"a  c #B5A064",
"s  c #BDA564",
"d  c #B4A36D",
"f  c #B9A66B",
"g  c #BDA96C",
"h  c #ADA275",
"j  c #ACA379",
"k  c #B3A473",
"l  c #B9A774",
"z  c #B5A975",
"x  c #BCAC74",
"c  c #B2A47A",
"v  c #B5AB7B",
"b  c #BBAC7B",
"n  c #BEB074",
"m  c #B5B17F",
"M  c #BDB27C",
"N  c #C0A662",
"B  c #C3AB65",
"V  c #C3AD6C",
"C  c #C9AF6B",
"Z  c #C6B16D",
"A  c #CCB369",
"S  c #CBB36C",
"D  c #D2B56D",
"F  c #D4BA6D",
"G  c #C2AE72",
"H  c #C9AF70",
"J  c #C0AE7D",
"K  c #C5B274",
"L  c #CBB573",
"P  c #CEBA74",
"I  c #C4B47C",
"U  c #CBB67A",
"Y  c #C6B878",
"T  c #CDBB7C",
"R  c #D2B773",
"E  c #D3BB73",
"W  c #DABE76",
"Q  c #D3BD7B",
"!  c #D9BE7A",
"~  c #CFC07D",
"^  c #D5C076",
"/  c #DBC375",
"(  c #D5C27C",
")  c #DBC47C",
"_  c #DDC97C",
"`  c #E8CF77",
"'  c #E1C57B",
"]  c #E2CA7D",
"[  c #EACE7D",
"{  c #EBD37C",
"}  c #B4AA82",
"|  c #BAAE82",
" . c #B1AC88",
".. c #BCB382",
"X. c #BBB48C",
"o. c #B9B491",
"O. c #BCB79D",
"+. c #C3B583",
"@. c #C5B585",
"#. c #C6BA83",
"$. c #CCBC83",
"%. c #C4BA8A",
"&. c #CBBD8A",
"*. c #D3BE82",
"=. c #D1BF88",
"-. c #C4BE95",
";. c #C0B9A9",
":. c #CDC185",
">. c #C7C189",
",. c #CDC38C",
"<. c #D4C384",
"1. c #DBC583",
"2. c #D6C986",
"3. c #DCCA84",
"4. c #D4C48B",
"5. c #DAC68A",
"6. c #D6CA8C",
"7. c #DCCB8C",
"8. c #DED284",
"9. c #DED18D",
"0. c #CCC494",
"q. c #C3C099",
"w. c #CEC99C",
"e. c #D4C693",
"r. c #D9C790",
"t. c #D6CA93",
"y. c #DCCC92",
"u. c #D5CC9B",
"i. c #DACE9B",
"p. c #D7D196",
"a. c #DDD194",
"s. c #D7D09B",
"d. c #DDD29B",
"f. c #E1C784",
"g. c #E2CC84",
"h. c #E8CE85",
"j. c #E1C788",
"k. c #E2CD8B",
"l. c #EACF8D",
"z. c #E5D185",
"x. c #EBD385",
"c. c #E4D28C",
"v. c #EAD48D",
"b. c #EAD988",
"n. c #ECDA8D",
"m. c #F2DD84",
"M. c #F3DC8D",
"N. c #E2CE92",
"B. c #E8CF92",
"V. c #E1CF99",
"C. c #E4D494",
"Z. c #EAD594",
"A. c #E5D995",
"S. c #EBDB94",
"D. c #E3D59A",
"F. c #E9D69A",
"G. c #E5DA9B",
"H. c #EBDB9B",
"J. c #F2DD94",
"K. c #F1DD9B",
"L. c #ECE08F",
"P. c #F4E08A",
"I. c #ECE195",
"U. c #EDE19C",
"Y. c #F3E295",
"T. c #F6EA95",
"R. c #F3E39C",
"E. c #F9E79A",
"W. c #F5EA9C",
"Q. c #F9EB9A",
"!. c #FBF09E",
"~. c #CEC8A6",
"^. c #D5CDA2",
"/. c #D6D3A7",
"(. c #DED4A3",
"). c #DED8AE",
"_. c #DBD8B7",
"`. c #E1D7A4",
"'. c #E6D7A5",
"]. c #E5DCA2",
"[. c #EBDEA3",
"{. c #E4DCAA",
"}. c #E9DDAB",
"|. c #F1DEA3",
" X c #E6DDB2",
".X c #EDE3A3",
"XX c #E5E0AC",
"oX c #EDE4AB",
"OX c #EFE8AB",
"+X c #F3E4A3",
"@X c #F8E6A0",
"#X c #F4EAA5",
"$X c #F9ECA5",
"%X c #F2E6AB",
"&X c #F4EBAB",
"*X c #F9EDAB",
"=X c #F9F2A5",
"-X c #F6F0AC",
";X c #FBF5AD",
":X c #FCF9AB",
">X c #E6E2B4",
",X c #EDE5B2",
"<X c #EDE9B4",
"1X c #E9E5BC",
"2X c #EFECBC",
"3X c #F3E6B4",
"4X c #F3ECB4",
"5X c #F9EDB2",
"6X c #F3EDBB",
"7X c #F6F1B4",
"8X c #FBF4B2",
"9X c #FCFAB4",
"0X c #F5F1BB",
"qX c #FAF4BC",
"wX c #FCFABB",
"eX c #E9E5C0",
"rX c #F4EDC6",
"tX c #F6F2C3",
"yX c #FAF5C3",
"uX c #FDFAC3",
"iX c #F6F4CB",
"pX c #FBF5CB",
"aX c #FDFDCB",
"sX c #F3F2D0",
"dX c #FDFDD5",
"fX c #FDFCDC",
"4.5XH.F.a.U.+XW.:X#X:X9X9.w.6X4X[.c.Z.F.|.K.[.5.@X&X7.E.v.S.U.uXb C.|.%XN.|.K.Z.@X|.h.M.V I 9.OX#X].G.#Xd.XXd.G.:X7Xj.F.j.W j.|.",
"q _ ) ) Y.8.2.Y.U.A.I.S.2.u.1.f.Q Z.7.F.H.Z.Z.@XK.6.( g.g.P g.W.w 4.k.l.K.*.5.j.f.1.l.l.U +.D.D.a.U.D.#X.XG.G.a.8Xs.H F D C F Q.",
"- F / P ^ 3.2.2.c.P S.I.c.$.D v.W y.N.Z.5.H.B.7.$X$.j.) v.( k.$Xw K.F.4.j.B.K.N.j.*.f.J.*.t.D.H..XG.y.6.OXG..XXX.X,.R F D R W M.",
"3 z.3.8.g.8.~ 9.S.A._ z.3.: V V ( Z.( F.C.C.K.=.Z.T z.7.J.y.z.#X4 Z.=.l.k.f.j.j.Q F.k.|.5.&.y..XH.C.d.].4.G.U.G..Xt.E R W D W T.",
"> ( Z ^ _ z.A.A.A.U.9.{ b.,.[.2XE v.H.7.A.7.%Xy.H.I ) j.Y.R.C.-Xw l.*.*.Z.j.*.f.l.f.j.*X.XI A.G.d.a.H.A.G.G.U.U.-X$.C L ' ! C M.",
": ) 3._ ( ^ ^ _ <.R.a.3.b.| 4.4.U t a l I b l l 4.b d :.U 5.7.H.r K.K.*.j.f.j.j.k.4.*.B.G.m 6.D.t.6.A.a.#.:.6.:.6.| *.P D ! ! l.",
"a ^ 8.^ z.( 8._ ( z.&X9.L.oXS.F.M.k.$X6.k.v.$XwX9XY.S.y.g.U..X8Xw j.1.j.j.j.j.j.f.F.j.F.&XD.A.U.OXp.A.m z M Y 6.].,.*.$.$.J &.G ",
"- P ^ _ ^ Z ^ { P z.:XG.a.7.7.C.7.C.+X7.A.n.1.b.3.Z.7.C.A.A.W.9X4 j.j.l.l.*.j.h.f.K.N.+X.XA / / ) F { 9.%XwXF.U.H.&X4.U..X[.8X%X",
"* _ _ ^ / / A F z.^ S.G.A.7.7.3.<.H.Z.I 7.k.3.A.c.+X.X<.3.9.x.:Xw B.j.j.*.l.j.*.B.B.B.|.=.b.W F ) b.z._ $.H.D.$.7.%X[..X|.4.y.:X",
"% / n ^ ( _ Z ^ ^ 2.8.#Xp.c.k.<.R f.S.3.A.G.<.c.Y.( _ 1.F F F { @ B.B.F.5.f.Z.B.j.j.%XZ.d.v.) ) / F ` g 5.y.F.C.6.7.H.7.[.F.D.8X",
"* ( / _ A P / L S / 8.W.I <.) 5.<.S z.n #XR.F.C.C.OXQ S.3.) A P.5 j.j.j.l.B.B.j.B.V.j.+Xt.K.n.) [ ^ ` G <.A.D.6.<.c.$.<.[.Z.%XwX",
"* n n ~ ^ Z L Y Z L ~ ( n +.s *.S C z.p Z.C.n.U.A.c.3.9.E v.' P.@ *.U *.U =.[.B.V.B.j.|.i.z.z.) _ / ] L C.U v.y.1.S.i.[.<.%XD.:X",
"n ] _ _ ) 9.M M M :.6.,.<.q.w.d.f s ) r H.9.C.S.H.a.S.Z.3.b.! T.@.F.C.C.1.*.r J | l +.&.+.$.K T <.a A d C.D.) 3.7.Y S.F.7.( C.*X",
"m 0.OXd.1X,XD.Y.Y.Y.Y.k.I.b.n.R.h.*XE.l C.S.F.4.U.S.7.3.f.S.H.b.V l.1.v.3.$X.X}.|.J.j.E.+XE.$XE.+Xc.] r &.C.<.Q k.H.P 7.C.y.D.v.",
" .0X2X<XyX3X^.3.v.j.R.Z.3.k.D.Z.5.S.&Xb C.D.H.H.@XU.G.7.9.A.) b.y l.j.Z.y.F.c.*.Z.F.*.*.H L L U 3X,X#Xd t.F..X<.( Q T S v.y..Xi.",
"u tX,X0XtX>X~.C g.c.v.k.j.3.k.S.U.C.9XM G.#XC.A.A.A.+XH.7.R.A.A.U 1.j.K.H.K.6.G R j.k.j.B.r.j.B.*.B.Y.c C.4.C.$.5.( 3.V Z ) c.sX",
" .<XoX(.XX6X0.P ' f.] j.+XC.D.C.N.f.T.k G.C.a.F.H.U.A.#XH.g.3.A.I *.7.) Z.F.<.B.H *.*.U F.5.r.j.4.B.5Xb C.C.H.r.y.C.y.3.V E S T.",
"% <.OX{.qX X~.s E E 1.K.7.Z.K.Z.C.j.W.#.6.U.a.H.H.d.F.A.4.S.C.7.g Z.7.C.S.].4.V.=.N.K.V.=.F.V.r.5.F.@Xe C.4.a.+Xa.y.A.Z.&.<.7.1.",
"5 z I ,.&.>Xw L [.f.F.S.+X4.Z.S.g.' J.! ,.p.p.a.D.I ..M I $.$.$.6 x 5.=.&.C.b j.B.=.V.B.'.|.'.|.V.j.qXe 5.7.U @.x d p k q d L A.",
"S.W.v.h.J.pXX.U 1.5.S.y.[.D.f.j.c.g.x.T a.a.9.H.OXc.%X&XU.U.Y.Y.n.J.Y.qX.XyX3 3.F.'.y.y.D.B.y.B.F.%X&X=.7.+XD.C.W.*.1.n.x.5X-X=X",
"6.4.<.<.A.iXO.&.j.C.D.&XF.K.<.<.W *.h.x K K Y T &.a.{.4X0XXXB F F ] H.v.tXuXw 4.B.V.[.V.'.F.F.y.y.|.D.*.j.C 1.' _ ^ ) 3.3.9.v.U.",
"( k._ A.H.{ ..<.U.F.H.c.k.C.7.k.D.[.4Xy s s x <.$.4.].0XOX<X:.Z A S..XwXtXfX5 r.N.V.'.5XV.F.V.V.r.N.[.U R ' L 1.v.Z 2.9.J.) ) _ ",
"_ ) 2.c.2.I...I 1.k.F.R.H.k.B.! ) 5.;XI 4.I 5.I ].%.w.0X&XoXa.d.Z / 7.<X XtX2 B.=.F.B.H.e.'.V.i.'.|.[.r.C R 1.! H.U 3.( 3.( ~ v.",
"I.9.3.3.A.U.M I ! C.J.D.H.Z.K.H.J.J.x.J K #.G 6.4.e.t.XXG.<.e.G.^ A 3.&XaXfX8 =.[.e.4.V.[.|.'.|.y.F.V.5.$.R 5.Q F.I 3.x.9.I.<.) ",
"z.3.U.A.A.E.,.$ q 9 w | b I r 9 @ & x 3 z p b v %.h <.2.7X0X2.2.F / ^ F z.uX} | +.%.@.&.y.&.e.V.&.F.V.&.|.*.l.4.S.r ^ g.z.3.3.3.",
"A.9.S.<.E n.z.a.uX8XD.wX6Xa.&X[.[.D.|.[.6.d.u.0.s.1 Y &Xc.(.v.E N P L Z ^ T.1.9.4.e 2 | c } i u @ u @.i b 5 @ 4 5.+ ^ ( ) z.9.A.",
"S.C.S.c.) Y.m ].i.i.F.4.&X7.9.7.K.#Xa.%X&X.XH.#XwXM ) [.G..Xf 7./ P ( ~ ^ [ - S S Q k.+X}.F.B.l.F.|.5XD.@XK.|.'.yX& S F ^ v.8.7.",
"7.b.S.) ] / l i.[.D.D.D.;XI .X7.A..XA.G.H.y.z.Z.$X,.V ( Z y.wX4.3.~ <.z.a.9Xh C.4.Z.<.5Xe.U 3.V C f.k. X3X4.K.%XpX; c.<.S.<.=X4.",
"3.3.z.( ) z.c D.r.V.7.$.y.=.D..XF.C.A.y.H..XF.G.8X:.2.C.c.<.z.) C.2.r.9.C.:Xh ( 4.Q F.D.r.5.B.h.V R D ' K.[.! }.dXu ( 2.^ I.A.G.",
"9.3.L ^ P I.v ,.e.D.y.D.C.7.#XD.y.R.H.6.a.4.U.+X.X$.6.2.7.3.C.c..X+X:.3.7.T.k k.<.D.D.+X5.4.Z.F.=.f.j.V E W ! ! P.j z.2.G.G.R.A.",
"( Y <.7.a.#Xv (.D.u.[.y.|.#.C..XH.a.a.#X&XH.D.#XU.:.#.7.a.:.7.A.Y ( T Z S { = 5.+Xy.y.N.#.Q *.j.Q f.j.5.j.5.*.3.#X0 <.#X9.9.3.9.",
"q v 6 3 $ d.| 0.@.@.@.| z &.C.C.#X+X,.C.R.A.a.H.-X>.3 ,.%.v #.z b h r 3 4 E & d r b $.D.k *.Q f.j.L f.f.f.j.7.1.$X9 4 # + o 6.* ",
"G.:X;X#X!.S.c.L._ A 7.v.K 6.H.U.a..XH.7.H..X6.D.9X.X7.I.W.S.G.&XC.U.-XY.D.{.&X8X8X&X+X4Xw $.g.*.l.Q j.B.4.B.B.F.@Xi.F.$X+X=.:Xe.",
"2.#X6.S.W.G.g.U.0X0XOXrX0.6.D..Xy.U.F.A.A..XD.F.G.#.7.2.<.3.9.2.b +Xy.#X.X[.e.C.+XG.5XaXb U j.5.Z.5.5.B.B.y.F.V.8Xx H.k.c.7.7.X.",
"x U.A.3.<.) z.&XiX<X7X0X,.$.+Xa.U.6.S.&XD.+X.XR.-X$.D.c.7.7.k.>.v 5.6.F.%Xd.|.y.y.D.N.*Xb <.<.j.J.H.y.D.C.+XV.F.9X=.l.@XJ.Z.7.| ",
":.^ c.2.^ ) <.Z ) <X&XdX).I <.&XD.G.U.D.7.#Xy.6.Y.+.3.4.2.v.2.| $.D.a.i.y.[.[.D.a.D.$.wX+.<.*.5.*.B.N.N.N.F.F.V.@XJ <.B.F.c.k...",
"2.) U.9.2.P 2.d.<XOXB z.8.:.:.C.C.Y.D.r.U.2..XR.$XY 7.A.3.7.c.,.+.7.7.D.y.C.C.].G..Xy.&X=.U Z.5.B.B.V.F.oX4.K.V.F.J K.7.k.S.k.+.",
"t.T ) A.a.wXwXaXuX) G.9.9.p ..$.:.$.a.$.:.I 3.a.&X= 3.3.2.9.S.:.$.C.+Xr.4.3.7.F.N.y.4.A.b G U N.4.e.F.K.+XD.F.F.D.b 5.K.g.J.C.,.",
"T 7X7XOX6.Z Y ) ^ ~ ) G.I.I.W.n.W.S.A.T ..T >.n ) :.I $.T $.:.h 4.4.F.Z.7.C.Z.7.<.V.7.&XG.7.C.v.Z.e.I w 4 i c b e.h d x d G 4.J ",
"d _ A.P D.<XqXXXwX<XOXaXd.$.( 2.A.p.&X.XH.K.b.v.^ ) b.F.rX,.-X#.I r.7.y.4.<.C.C..Xk.7.W.<.j.l.M.Z.S.uX[ D.W +XJ.S.$XJ.] x.] [ Z ",
"M ~ ^ ].XXd.0XwX0X7XXXwXG.OX<.~ I.+X.X:.p.<.6.7.T V Z S Y.qXiX..f C.C.7.C.:.7.6.7.y.<.K.&.g.k.v.K.1.$X@.*.D.I E g.j.Q ( E _ ' x ",
"s.d.U.<.].I.U.<X0X0X7X].~ S..XA.z.$XU.y.U.t.4.F.r.<.P K g E z.o.I 7.k.D.F.k.c.7.7.N.7.Y.G J.<.5.g.3.m.t.3XOX{.C E h.Q V S R z.m ",
"w.7X<X<X2X7X<X<X(.9.g.Y.~ a.9.z.C.9.U.Y <.r.2.3.7.C.y.6.F.K <.z q K ) <.1.k.C.j.7.C.N.K.q g.v.K.) J.#X{.C.>X>X4.Z S ] _ L Q _ l ",
"j XX0XyX<X<X0X~ ~ Z Z E K 3.U.3.( A.U.q 6.C.<.<.<.( K ( c.3.S.y.9 Q Q <.I <.<.=.7.K I S.r 1.j.H.W f.C.(.0X6X].y.E A B W ) ) x.T ",
"g XX_.)./..Xw.z %.%.q.2.P a ~ $.K 2.a.v y.4.Y 7.<.3.7.I <.<.9..Xq K T ( P =.k r z $.~.w.0.@.G *.<.s 4X0.OXuXyXd.N A *.V s < ) ) ",
"^ ( n.F.c.=X7XOX2X3XE / c.G.iX4X%XH.7Xe <.7.D.1.T 7.7.<.c.D.a.G.$.S.1.Q h.M.U *XwXx.5XpX{.J.h.S.S.@X6.b }.,XXX}.H ( i.%XqXD.A ^ ",
"<.F.A.#XS.#X:.2.w.0.1.L Z .X3XaX,Xd.dXj 2.3.3.$.7.<.D.2.y.7..X%.C.Q T L L g., R E R Q W 1X$.H W L C.K.b `.0X{.3X4Xg.4X5.t.{./ q ",
"P W.R.U.y.OXy.OXoX:.V ] Z S Q ].`.<XyXj <.) <.1.C.4.S.D.D.t.G.X.*.j.Q L L ] g 3.<.*.5.<.! V.D.*.u.! $Xk k.) ,X`.tX$.oX}.0X[.Q d ",
"T C.7.#X#XH.:.].<.t.B B Z g V 1.E C.dXv *.C.5.S.$.6.4.C..XG.G.-.U L _ 1.V W G ( j.5.*.j.5.B.F.y.4.D.R.b <.L 5X5X4X4X0X0X{.3X7.q ",
"! H.D.7.( v.<.5.-.U K Q L T K L L T I.k $.Q 3.<.K.4.y.D.a.XX4X0.U t C W Q b.J *.7.C.F.4.5.Z.<.7.k.! x.e D.T ( F.u.qX,X}.7.+XdXf ",
"6 :.$.x V ( @ G %X{.4.Q I 7.4.y.G.y.%Xk p d z x #.I +.b c x >.h * > G t t t q y.r.F.y.F.=.7.C.K ) 1.M.; 4.4.x V u.X.-.v y 9 t q ",
"U.wX6X.Xf.P.0 =.Q 5.1.$.u.7.7.6.D.7.+Xk.S.$XS.W.I.d.y.d.c.W.-X9XU.) _ Q ^ ] 4 r.+Xy.D.K.R.D.r.C.*.U Y.F.1.A.M.k.E.&Xu.k.OXrX5X}.",
"3X6X3X XU K.-.@.<.6.G..Xy.$.Q 4.1.S.3.K Q ) 3.E b.z.C.8.8.A.^ ^ x.n.c.I.A.:Xr 4.D.D.y.N.y.K.F.V.Z.U B.$.D.I E k.v.1.Z.*.R c.5X4X",
"}.yX X6XtXW.O.@.4.k.7.I 3.K K P N V E f ) Z ^ R ) Q Y ( 8.3.S.P ) 2.^ I.9.=Xh D.=.F.N.4.5.k.C.5.N.k.J.i.%X{.C ! x.! N.D.j.$.U K.",
"C.f.6X}.yXV.o.e.y.4.].4.<.5.3.V V 3.2.a g.3.L P g.( 9.9.z.~ S.2.A.W.A.6.H.-Xc F.].F.F.r.V.F..XV.D.<.v.$.,X,X4.C W ' F.+X[.|.F.f.",
"4.R qXyX6XdX;.+.C.[.r.<.5.I ( <.P P ( G <.7.c.<.Q A.~ b.2.c.A.A.2.a.U.U.#X9X%.4.].[.[.'.V.N.K.y.V.5.F.`.qX].y.W F B E 1.B.B.F.%X",
"|.*.' |.i.fX~.5 i v e b @.h k 9 4 y g 9 4.T 4.7.<.:.Y 8.8.d.9.I.U.a.9.U.A.-X..h &.&.@.4.+.$.&.+.e.t.I %.yXtXd.B D x B R W f.J.j.",
"5X%X4.j.6XeXeXZ.#X#XJ.|.s.l I | i 9 3.g $.j w 1 7 X ( A.9.8.9.I.I..XG.U.U.9Xa.>.9 + + c } u 5 5 2 + i j w 7 5 w 8   Q F D f.N.B.",
"Z.r.B.j.j.pX^.5.Z.j.K.*.$X%X6XqXqXoXg.C.3.#X*X$XY.#.Y _ I.A.a.I.d..X7XG.U.OX>.P E t.V S.R.7.*XA.H.7X+X#X4XG.-X9XaXX.V C W C 1.f.",
"! K.[.[.F.R.@.*.1.3.1.K.H.&.[.1.H.1.! H.G.7.k.Z.Y.T n 9.<.W.W.6.I.I.U.p.I.-Xz 9.) oXE / J.=.k.D.9.a.D.H.&X].H.a.&X0.N E W R h.! ",
"*.k.%XZ.|.K.l 1.Q 5.j.Z.$XJ C.Q _ v.N.C.k.H.F.7.k.I T 9.8.9.a..Xp.6.I.#XOX0Xm g XXA P g.v.$.#XH.a.S.a.-X.XG.a..X&X&.H W R R W f.",
"j.l.5.J.F.+XJ B.Z.5.B.5.|.I 1.k.*.f.5.v.H.j.C.( Y.4.:.2.9.A.=XI.#Xd.U.U.d.9XM OX{.P ( E A.I p.XXa.D.D.A..X.Xs.G.6X`.t ! ! R R ' ",
"*.R f.1.|.+Xk j.l.N.j.N.*X@.7.*X6.Q ( R g.Z.F.C.R.y.z c.2.A.2.#Xd.I.d.d.G.-Xm A.(.G.P ( E :..X-XG.G.a.G..Xd..X.X[.t.G H f.f.5.1.",
"@       . 0 4 d @.v b +.l }.qXXX%XH.D.N.N.F.F.4.Y.W.m >.M M p M 7 h $ o o >.* 9 X.w., V Z #.y.H.a..X.XXXG.s..X&X.Xp.@ @ @ . O ; "};
