/* XPM */
static char *wood4[] = {
"64 64 82 1 ",
"  c #30302F",
". c #333332",
"X c #3C3B3A",
"o c #4E453C",
"O c #454443",
"+ c #4B4642",
"@ c #4D4945",
"# c #4C4A48",
"$ c #554D44",
"% c #534E4A",
"& c #5B5043",
"* c #57534E",
"= c #5E544A",
"- c #535251",
"; c #5D5751",
": c #615649",
"> c #655B4E",
", c #655D52",
"< c #685E52",
"1 c #635E5A",
"2 c #676054",
"3 c #6B6255",
"4 c #66615D",
"5 c #6C645B",
"6 c #6E685F",
"7 c #706555",
"8 c #706759",
"9 c #746A5C",
"0 c #796D5E",
"q c #7C705F",
"w c #6B6661",
"e c #6F6965",
"r c #756C63",
"t c #786F61",
"y c #736D6A",
"u c #777065",
"i c #7B7163",
"p c #77716B",
"a c #7B746B",
"s c #7E786F",
"d c #797470",
"f c #827564",
"g c #867867",
"h c #887A67",
"j c #80776B",
"k c #837A6C",
"l c #8A7C6B",
"z c #857D71",
"x c #897E71",
"c c #8D816E",
"v c #878177",
"b c #8D8373",
"n c #858078",
"m c #8D857A",
"M c #928675",
"N c #958976",
"B c #908779",
"V c #958B7B",
"C c #9A8E7C",
"Z c #9D917E",
"A c #A1937E",
"S c #918981",
"D c #998F80",
"F c #9D9382",
"G c #A29683",
"H c #A59986",
"J c #A99B86",
"K c #A09788",
"L c #A59B8A",
"P c #AA9E8B",
"I c #ADA18D",
"U c #B1A48E",
"Y c #AEA492",
"T c #B1A693",
"R c #B4A995",
"E c #B9AC97",
"W c #B5AB99",
"Q c #B9AE9A",
"! c #BBB19E",
"~ c #BEB4A1",
"^ c #C1B5A2",
"/ c #C3B9A6",
/* pixels */
"UTH9SLTYWFGJTHRhaURZRYWEEIIRiZIIJAIIHW~WR,CRUIIIIuvRII8LYLQRwFTT",
"PUZ9mYYTWFCTTGQljIUGII!YRHIRqFFJFJIRCWY~Q,FYIHIII2nRQL2ILIRRvjYY",
"UTA<DYTWYYZLTFRgkHITYRWREJJIqGJIZIITFIW~!,IYIIITF;mIIJ2FRIYYLmIQ",
"HPG2FLTYRZGYRHKgzAJHHWYRPUIUqAJRHZYTFWW~!,FRIZUUI5sRRL2IRIRTKPTR",
"PUA3PPQWRFRLRGTlzHIPKTTTTPPUfFJRYKFLFY~~R,IRWIICF6sTQI>YWTERLFPR",
"JUJ<KFY~!KTRQCRcxHGKPKKTTERU0FTJYLYWFWL~E,FTIZZIZ9FTWH2ITTTYHYYW",
"JUA3IL~T!GDRRVTczPKIYYLRRTTP0HRUIFYYKYLWR,IWIIIIMuRTQG2LQYEPPCHY",
"PUJ>PLYYTTTQPCEljIPFIWRRRRTJ0HETYYLKKY!WU>ZEEAHIC3IT~L>LW~QPYBHY",
"JPL,YWW~RFTYYGIlkCRHPYWW!IEU9JERFYRIKYW~Y>FYQIHUJ*YY~H,TRWWQQmPU",
"JUG>DWW~TFKITGKliZIIPTYW!REJqJQRFIKIYYY~Y;FRUUIUA1YWQL,LWYQQWBGP",
"IEP,WW!WTYL^QFPljJTTYY~RQQRAqLERIZIIWKW~H>DRWUIAPxTTWH,FWQY~YPGT",
"EUK1YWYWHPT!TKUhkFYTW~~~QQIIqIEYFZIRYKWWY,VIUUIUGGYT!H,K~YYTHRPW",
"RUU<L^WYKDP!WKUfkFRIT!Y/!^PG0PQPKIITYLYRI>bIIIIAPGRRRH<KW!TYKHTT",
"EJP<SW!RDDYTURUfzHQW!!YW!^QJ9JEHIRIETYYWU,MIIIAZAGRTWI,D~YRYPTTT",
"UUP>IT^YDDGYWDTfxCFR/WRRQYRJ0PQPIIIWYYLWR,ZYUZAHGG!WWJ1DRWRYGRJP",
"URI<DWYTxkRQRLUfkLDY~EW~QRPJ0PQUHAUKKRLWU,FIIIIIGDWWEJ,YYYWYYRPY",
"UIJ<H!T~zzITYKIfxPDK^WWP^PWJ0LQLIYYWYWI~I<GJUIAACMLQQP<EYY~RTFLT",
"EIJ<DYWWjmP^YYIfxDIKIRWII!WI0KRHIWWLWYYWJ>ZRIIZJAFTIRH>KHPYLLLPW",
"UIA7SYTPjzxRYWLjxDKIY^QWTQQJtPTHYTYYWYWWI>ZIUJIICBTYTK,IYLYWILRR",
"ITA<STTTjdSYTTKfxIGLYQWWRYRH0GUTURYYWYWYH>ZIRIJHABLRTK,P!IKTKLYR",
"PUF<HYTIyySWTTGfxGKYPWR^RWYJ0DPTI!ERTWRRI>FIUJUHCVFRTF1FRRWPKYYW",
"RUG<KPRDeyz^KUGfxDDTY^^WTTWG9CRUI!IRIRTRR>VIUAUUAGPTYY,IPYRTHPTR",
"TRF>IIIxedzLGYPfxJDPWWQ^QRTH0GETIIIYYWYPR>ZJUAUUJIPPPT,IWYLWYKGT",
"PTC<DITDdddPGTPfxHKYIT/WTTET8CTTYRIFYYRIW>ZIUJJUACKTJP>TTLTQWVIL",
"PTZ<HIISryzDKIPfxHVHYR~QY!TT9MIIYRIYIIYRP<DRUJUUGxJTIP;YWPYRPKLW",
"TRG<NLIayepDLTJfxUDLLYWI!WWI8MPPIRIPRYQRI>GETAUEGFKRTK,YWWLRWYDW",
"RPG0GKTVereDPTPhxGHLWWWW^!WG7CHPUIHTWYQYR>STIHUEJGJIIG>IWWYWPPPW",
"TTC9GKPD11jxQRRlxUKLYQTWWRRP<VJJJJJPYYWYT>AGPJUEExGTLL,YTPYWYPK^",
"TEG9NFHDy1LKTWPhxGFIYTYWWRIG7NGGYUIGYYYWU>GPPJUEUZURIT>LWTLWP!L/",
"TTAtDHHKe1IIYTUhbJFTYYQRPWUJ7DFPJZHFHHLRT>CPJIRUPAUPGT,P~TYYWTY!",
"UUZ0GHGL1xQRWWThbHGKYWTWjNLG8FGJIGHYFIY~R>GJJJEUGHURPP,LTYRTKKW!",
"UTZ0VHIYtVPTRWUlMGIPYWLFyxFG0GFHIJCFYPLYR>FPJJETFGPWUK<KY!YPTYY~",
"EAZuZYY!YLYYU!AcbIIPYWYLq9uLqAZZLRRZFIYWU>PAAURUZAIRYA2KRR!TTYIY",
"WUZiAYYWYLRYY~EcbYAVKYWL69uZ9APCHHTVVRRWT>AIATRRAPYPIL2LRIWTYP~R",
"EUZ8LYWLLPIIW~IcbELYLYYL2u6Z9ZPZIGPLFYWRE2AUPUEAIAAWIZ2LTYP!WLYR",
"YUZ9VYYLYZZR~YUkbIAZPYLL6;2q7CUVGJIHFWWYI2ARRIUPAYYWQC2ZQRUQYZYW",
"TIZuZLAZYVAWWWAccEUAAPYYu2-O7Z!AZFIImIYWA2AAEIRIPZLTRZ2LWQWWWvYI",
"WIA9ZYYLAbZYREEcsAYAIYPRu2X *AEIIcFLYTRWU2AIUIUIZAYTRY2LYTTTWKTW",
"EAA9ZWRKKVLYRUEckUEVYALRi#X $A~AHZYFYLIWU2AAAEEAZYLWTY2ARQT!TYPW",
"EAA9VPYZVVYLAUUbkRUZZYLAk-X.:A~AIZYFFIIWI2UUUEAECLLLYA2YYYQYYKZ/",
"RAA9ZREYZVYYLRRbkIRZAAAR2+X :ZEAUZIULIFYY,IYUUAANKYYII6FTRERRKTQ",
"ERA9A~EYWZLWYYUbbAARAAAB&@X qAYIIAIAIYFYW>ZIUEUEZIK!IF8FYYEWKYYW",
"!RZ7ZYEPLZY!~ARkbIIAZYLu*OO*kZEAIIIIRYLYT>IUUAIEZCYETZ9IYYRRTVWW",
"REA2AR!YYYLWRYRkkIYZARZu$#X-qCYZIVIZYYYLToZWUUURZIR/!Z3YR!^ERFL~",
"EEC2ZYQ~LWAAAYUcuIYAZRZ9#OO2iCYAUAIIZIFRIoNRIUAUZKY/EI>IRE!EYFW!",
"IUZ2AY/!YWLR~ARMvAAYAYAb#OOziZUYUUIAIILWR$cRIIAUZIRQQZ>VWYIEIZW~",
"ERZ6VYQWA!YWWARbcAAEYACA2OXuqCYAUUIIHIYRR*9RIRUUVYYWUI2ZITTRYaWW",
"YEZ2VZRRIYY~~AYbvQCAUZCV2XXuqVAZEIIZIIIRR$uIURUEZLTWRI,LIWTEVyW~",
"TUN9ZZW~WYL~YLWvsUAAAAAP2XOuuAYYYIIZYYWYE=cUIUIILGTTEI=ZYYRUbiRW",
"Y!V9CKYYWYY~WZLbsIPPAUPUzX*usAYZIYFIYYFWI;NAUEUICKWRUZ>IIGUIu6C!",
"ARC9VK~YY~YY!AYbkYARE!AAuX6biAYZWZIZIYLWR>IAUUUUKGWWIZ>KKZIYu;eR",
"EUC9VKWWYYYYWPYkzYVARACUVOzIsZAZIIFFILIYR,AAUUUUICTYTZ>FIZTI61aW",
"UUZtZL~WQLY!WIYkzWPERAAYZ#A!iZAIIZVZIYYW!2ZHUUUAYKILTZ,CHHILpuaF",
"PYAtZZW~WRR~WLWkiWAYUWLRIuUEiZYZUHHIYLYYY2CIAUUUIYHYUA3CPLYRaepI",
"UUZtZKWW!TPWWRRkuUARERLRPAEEkZYYUIAIIIY~T2ZIIUUIGYYYUZ3CIFWIwwsY",
"UUAuZZYYYTRWRARhsRPRREIYTYEEibATEIIZIIY!Q2ZIAIUIKLAYYZ3GIKRTp;sF",
"AIZtVKYWYTYWRZYkuRAIRIIARAURiZARWNHHITLQR<HTJTRIVTITTZ5KPZRIa1yR",
"IIZtBKLYPTLYWKWczWYWUUYIRPURiZIUQAUZYLR!R2PTIIEJDHYREG3VHKQIi1zP",
"AIAuCYYYLILRTARkkTALIA!IREUUiCYIWIIRIYWY!2GTHJEUCGGITA3VIKEI,yxH",
"EUZ6VWWQLI~TYZWckIAZRARRYLURiVAIRZAZKKQWR,HRJIRAGVGPUC5VIHPJ-wjY",
"UIAqVWRQGRUYYZQzkUALRAYERYUEiCARYGIGLLWR~>FRJUEJJGIQEP7FYHTF1ajK",
"WUZqmYRYYUYYWZQckPIIWYYEPEUEiCLATZYILFL!~,IRUI!PCFYWTJ7GYIRb1yFL",
"IULtzTWWIRRYRZWckLYAEIR!YRIEqZUAYALYKL!R~>ZTEJURGFY!TG5LLIWm4zWI",
"UIL6VIWTARRTRZWkkPYAYIWRUUU!qZIIRKYWKY/WQ>VEUHUYKmI~TJ5DLTQF%F~Y"
};
