/* XPM */
static char *wood3[] = {
"64 64 28 1 ",
"  c #34231F",
". c #3C261F",
"X c #3F281F",
"o c #362420",
"O c #3B2622",
"+ c #3E2823",
"@ c #432B24",
"# c #492E25",
"$ c #492F28",
"% c #4D3126",
"& c #4E3228",
"* c #523426",
"= c #583727",
"- c #573827",
"; c #5A3927",
": c #533529",
"> c #583728",
", c #56382A",
"< c #5B3B2B",
"1 c #613E2B",
"2 c #5F402F",
"3 c #5F4030",
"4 c #64412D",
"5 c #69442E",
"6 c #634230",
"7 c #6A4631",
"8 c #6D4933",
"9 c #704B34",
/* pixels */
"OO+*4#**X&-@.$--X& @+**@4,,&OO+2,%#-*X#+ OO@%<-*#*; 1@+o$$@o@,+@",
"@O+<*@@#@*-*-&-*O#+#@4&5&**&+++&@##%%#*@O@O+@<#*@%* :&+O@@+o@,O$",
"%OO**@##@OO-=&#@O&O#@*&2,*,&+++&<<5%&@+#O@++.&X;%%#+:&@O+$+o$:+&",
"%+O*- --@@+1@-#@O@O#+@@*,,2@+++$%%<<%,@,@&@OO&*<=%@%:1@++@@o$,o%",
",@@:,+@##@o1@*$&.%,@+#+&,<@++@+$&,%<&%#%@@*+O:-1;*#@**@@+@@o$*O#",
",+@,>@$$$#@<O>$*@+%#@X#&:@&@+$+O&%*&&5-#@*%@@>>1;%-@**$@o@+O&*++",
":@@&>>@$1#+*+,&*#.%#++&&<+$@+@@O@+-&%*%<@%$@$--14@@X&:$@o+@.%@++",
"1@+&<&@>*>+@+:&*#O@@O+#,%@@@@+$o+O%&@%,<@*@@@>$>1XXX*$@@+++ *++#",
"<#O&-=@*1$O#o&:&*++O@%@&@@++$O@++O%,,>:*+-@O%,*>1@@*:*@@o++o&O@@",
"4#O<#1@*1$O@o*::<@,+ %O@%$O+$O-*@@&,&&&@O@XO<><>1@@:>#@*o++o@@+$",
"<%O;==1*>$.%+&&<&+:+@+ @@@OO%+$#&*&*:&&@.#OO::<:1#@$:..*o+oo@@+@",
"<$*#;.>>&$+*+::<&@,O@.% ++o+%+%><,,5*&&@O#.O6:<:1=+*:+@@@o+o@O+@",
"4%$@-@>>*$+,+,&<%@,@+%#OoooO%+,,&,::&&&$+-@@<-1*11.*:@*@@+o+O#.O",
"64-&@@#;:$@>o&:&#O,+O&*@+oOO@+::,*&4<*&$+-@@<>1<11+@:@$*@OoOX1OO",
"64<4$O%-:+O-+:&:<@,++:%&$oOO@O%:&<*,6:&@+>oO1*1<1= #*@@;$oo@.=@@",
"76<5@O--&+$:o%&:&@,@+:,&%O$oO$<:&>44&*:@@>@@7:,,1@ =*#@1#@oO@*.O",
",611$O&#:O:*+@:::@$O$:::*@#O.#%,-8&,<*:@+<+@2-%-X#@**$>1&++++<+O",
">5<#@OO@,@::.@:>:@%O#>&&&#%+O-:>*8>:8&&@+, @5*%5X##:*$>,$@++O*+o",
"17:@@ @#<O:*+@#>:@$@$1<1,%-+@:%,>:<>7:<$+<O@3:&4@@#:*@==&@+@%$+O",
"<&<$+.O1<O:#o@:::O@@$<$$:<*X%>,:>>7&7*<%+<O@<:&;@@#:* #=>@@@%,++",
">:1#+ O<,@&@+$$:*o#*@,@@&%*%$>-<:&68-5>$O,.+<:&2.@#:# #*;@@#%4%.",
"$::#@O #<+:@@$,::o*@+$@@@:*%#,#>&$15<44&O,++**%<.##:$O**-@$X@%*X",
"$;&$O+O@,@*+@$::$+#7@$OO+:;@<<*>&$6<58<+ <&+*%#**%@*:O:@;@$@%#%.",
"@&>&O@o.:O*+@$::#@@:@OO@O&<#%**<X$91<<,+X2&+**X#1%@*:@1#<+#*=&+O",
"##*-O@o&*+&@++:,:O@:,o@@O*1O<%,<*@7<><:++5%+*&@#7&$:&@**;%#%**.X",
"@%%,O@+&*OX@@o$::@@*$O@$@$<1<+<<>@>&>*@@X5@+*&X@8*@<@@X&%11*1=%O",
"@,$-+$O$7o+@+o$,:$#:&+#<@:11<O<<$@1*:8@$ 5@+*<##4,#>$.@+*;1#<,;.",
"O1$*+%+O7 @@++*,*#$:@@#;:&1<<O3&%O<::,+@.5#+&2=&,%$7$@$@;X#X<:-O",
"O>-#+%@+<O@@OO&*:#$*@@@#$O#X1.1&&O,::&+@O4%@:<52*&#-%+@@%@#-<:&.",
"@@#@+$@+#%@@ O,*$$O*+@#$@@##;O,:&O<:&:OO+<&X,<85%&#< @@@-*-5-:$O",
"+$>#+:O+$&@@oO>:>$o#++,:@O@O*&*,++,&&1$++4,@&,55<:O<o@++#*42%*>+",
"+@,%o>++##@@oO$&:#+*+++$@.O@.**>O+,&&&$@+,,@&<<44&O,.@++@2,#&&*+",
".#X#o>#@:$$+o+@&:@O7+OO,:OoO$&::O+<$$,$O@#>@&,#;4%@&@@+++:>$*>*:",
"O@@#O%$O,$+Oo++:<%o8O+%>#o.@#&&:O+:&$:@OO#:%:<#*5%@%O@+o+@&&&*:@",
"o+#+o,$O,@@O++@:3%O4++$-@ O@*&:%O+:&@:@+.$,#&<&*8%+$+@O +$>:&&:@",
"++$+O>$O:@+O@@@&<$+:@+@@@o@@*#:+O+:&@:++@:>#:5X#9#O@O@oOo*<:&&*<",
"o@&#O&#+@&@ @$+,<$+&@+@$OO@@>@&@o+:$#:@@@1#&;5X#8#+++@OOO@$&&:,7",
"++&*O&#+@&O.@@O,6$+@+@$>o@+@,O<%+@:$1,$O#<*#*5X*8.oo@#+o @@&&*,1",
"++&,O&$@&&@O@$+1<$+%+@,#o@@@,o,+@+,<7:*+**@.%1X*5@ O*#OO.@4*&*&#",
"@O&,o4$ ,:OO@@+66$O%@@,@+@@@<o,O@@,,8$*O@**X%5X=5@O &@.+O+>:$#>>",
"*+&>o6>o,&O+#&+,>$O*$@%,O+$@,O,O@@<:7&&OO%#X11X;1@o+%@o@+O&&*,64",
"#+::o4<o-#OO$&O,$$O,@@O,O@+@<+$+@+<:4>*++&-#5#%1<@+@@:o@++@&:4#7",
".+>*o1:o&@OO@%@@*$o>+$.#O$@@<O&+@+:,1<%OX*#;;.*4,%+O%-o@@+@<:>@<",
";@>&o<<+#@+o+,@+>%O>+@ #O@@@<O&+$+><-<$ %@-1#X;4%;@*7-o$@+:<:-->",
":@>@o<1+O+++@:O@4%O>@O%#o#$@>O%O$+*>&>*O#*&1**14.1#X4:O@$O@%:;4*",
"+@<@o7,O+:+o+<O@,&O,@@*&o$@+&o@+$+:**,:O%*@-#;44X*X%>-O$$X@#&1*%",
"@@,@O>,+@:+o@1@+,$o*@@&&.$@@&.++$@&*#,>&-&O+*&4=%*1-<-O@#o@%%=X=",
"#+<@O&<++,+o$<$O:@.-+@%%O$@+@oo+&&$$=1>@.$.#*+1%*5#@&&O$%OX4*###",
"@@%# >1O+>+o@,@@@@o:,@:&O$@O@OOO#%,,<4:&o+O#=@%##7%=2@O#%+O*-X@$",
"%.=*o$1++,+o@6@@$%O&$@:@OO$O*@+O+#%4*6:,+@@<*X##*54%%#O#$$OX,%@@",
":o>:+$,o+>++@9&@%%O:>@&5+@O+-@++@#@4%<>*#-*@XX@@&<%%#@+#&$+@<*@@",
"@+,,+$$o.>+o$16+@%+&3@,4O$#O#$@+@<;<@;*-&&4###%X%<&-#@+#&@O@4*@+",
"@@>&+$%o@:+O@1<+$$O%-#:@O$$#X%@+@<<<X;%**,&%%X*X--:<@+O#&$O*4,+O",
"@@:#O@%O+:@+@:3o@@+<>$**+@@&=#+@#2><X*;>&*-***4.4X&%+OO@&$O*,:@O",
"+@,,o$%o+:++$&<+@@+><+%+++@O=@O+%<,<1#@-<<**<;<.<X*1OOo$&$O@%:+O",
"o@*<O$$O+:++$,:++@O#%@$+Oo$+;@+@O&%-@4;,6*<,X#4.;X**OOo$&$O+#,+O",
"O@.@+O+O+:++@:<&OOO@%#+@oo@O-@+&O&*&@%<;@+,%&%*#*%&,O@o$&&++@,+O",
"+@.@@++O&&+o$,:$OO@$X*O@+o++@@#-+#*#@%&*@$$&<+%#*,&%+@o+&&@@##+O",
"O+#-+$@O@&@+@&&@ O@;##XO++OO%$$$@@@#+;%@$+@%<-@@**%&+$O+&&++,++O",
"o+ --OOO+$@+$::&O@%>#@@ @@O.#+%>+@$#@*<X++#@,**X-2+&$&+O&&O+<+@O",
"o+o@#OO$@#@@@:&:+$%&>**O@$@$#O$<@+$$##%, O#@;@1.*4-X@@O+&&++<@@ ",
"o++*.@#*@*##@:$&+*.+>&@X@@$X++@<@@#%*-+ OO++;@*.@<#X#@+O#&++-++.",
"o++>@##:O*##@#*&.-o@@*-@;1%-&+@<@X%**,%O  .+<;=XX2*X$+Oo#&+O#%+@",
"o++:$>1#+&#*@*;#@<OOO,5*%*#-@O@<X#4>>%,@ + +#2;#%-5+,@+O$$@ #-O+"
};
