/* XPM */
static char *wood5[] = {
"64 64 22 1 ",
"  c #3F0E00",
". c #410F00",
"X c #451202",
"o c #4C1604",
"O c #4F1806",
"+ c #4F1908",
"@ c #501705",
"# c #541A06",
"$ c #591C07",
"% c #561B08",
"& c #5B1E09",
"* c #601F0A",
"= c #5E200B",
"- c #63220D",
"; c #69260F",
": c #6B280F",
"> c #662510",
", c #6A2610",
"< c #6D2912",
"1 c #722C14",
"2 c #792F16",
"3 c #7B3117",
/* pixels */
"X;=#-1:--oO=O#=&--=#===##---&;<=#%%@X&%&;**&$$**&-&*&$*<@1>>%-,@",
"$<=&-<<-=O=#oO#&--##===#$-=:%-;-#&@o$%&=;--&&&**&-&&&#,1@2<&&*-+",
"=<%-;<<==O=#o$&---###-=#===:%&<=O-@O&$,;&*;$$&**&-#%##,1#<<>&*%.",
":<=-:11==X=#@*$-;-=====$#==-%=>=O&#$&&;-&--&$***$=$$##;<@1>&>>%@",
"1===::<=-o&@@$#$--===-$$==#===>;@=##%---$*-*&$*&%-&&O$*<#1,&&*+&",
"<-=>:>=%=o$o##$----=#-$%=:===O=-O$$#%-&$#&*&$$$*-#&%@&*1#>1&-,#<",
"===><<>=-o$o@$&--;-=%-$==>===---@$#--;$&$&;&$*&$-&#$@%-1+=<==;@<",
"===><<<=-#$#o&&&;-====$#O=====>=@#$*=&$-*&**$$-$=#O&$$,2#><#=>#<",
"==>-=>>=-@=Oo$#=*-----%#==%%&-<$o$-&=$@#&&*$&$&$&%@*o$,3%-<%&;&>",
"=%>=%--==@#@@##$-;-=-=$@==&%-&,*o&-&&#$o$$$&&$&*&@@*o%-1&=<&--#-",
"O=<==%==#O#@O$$=--&=:-$o-==&--,&o$-$%-##@$&$&$&=&%&>@@-3=><%=-+,",
"o=<==+===O@@#&#&--*--*##==>%-=,-o$&*$=@#$&*&#$&$%%*,o@&2>>>&==%-",
"==>=-=O=%ooo#&&%=-*--#$#-%>%;->&#$&$##%=@##O#$$$@&<,o@*2==<-==%=",
"====;$O=$#o@#%$&-=&;==%%;+>==<-&$&*%$$#%$@#OoO$-O*,*O@*2=-;-=-=%",
"=>=====$%$@@%$&&-*--=-%o=%>%;<-&$$$Oo&#o=##O@@&$%**&o$=2%><=-=-%",
"-===#;=-%$@o@$&&$@---$=O=#==-,=&$$&O$&oo=$#==#-#$-*%.&=1&=1>-==%",
"====O====$#o#$&&$$**-&&%===%=->&####=#=X##%==$$=#*&+.#*1&&<->,&%",
">:==o===#$oO$&$$$&&*%-&%%====>-&=$#=O##=O@OOO#&##>&..&*>*>,-=-=%",
">>=>O=>=#$@##&$@#$$*#*&&==>%=<-&%#=#O#:#Oo@ooO&&#,%..#*<>-<>==&%",
"><%==;>O##$$$$#@#&&&$-&#==>%-2=&$#$o#=-=@#%oo#$$&*&.X**,-%<-=>=%",
"=>=>=-:=&#@$**$@#-=&@-$%=%-=,,&&%$##======-##$=-#>$..$*<=&<=>>%#",
"=1-=-=-#$@#$$*$@$&&=$=&$&=-=-<>%@$o#=>=-#--%$##-#*#o @*,>&1>>-%#",
"=;-:---#%@###*$$$&&&$&&##-&&->-&#-#o=-=-=##:$@$=#>$@.$&,>=1>=>==",
"=----===$@#@#&$@&*-&&&&$#>%=;&--$=%#=-===O=--##-#*>#@@%<>&<===%=",
"O=:=====O=OO$$$$*$&$$=-$o-=$,->-%&$#=-=--+==-%$$#>;*o@&1>%2==>&%",
"#=:====>==#O$$#@$#*$$&-##;%%>=-,&-=@=--:-%<>-#%$#$**%X*<>%2===&>",
"==:=O===-=O#&$&$$#-$##-#$-==&-;;#&$O=;=:>=<<=#==*@>>&.%<&=1==,%>",
"==>>=+===-O#&$&&$#&=*&-&#-=#==-;$$%@o-=:>=1<=oO=&@#->X#,&>2>&=%,",
"=O=<=OO===%#=%@#&%-&&*-$======<-@=#Oo%=:-=><%#@%*@@&*o&,&><>&>%&",
"-#=<==+>:=#O=$&$*$--$-&&$==>==<=O$=#o==--%1<%##$**@@,.%,%=<,=>>#",
":==:<+=1:=##=$##&&&;&$$-#=-:=#:-@=$#OO=->%<>&#%*&#&@>o$<+>11&--#",
";=O-<==:::%##-;&&*&;--&&##;=$#:=$$=#$O%--%1;%o@&&**o%@$<+&2<&;>+",
";=+=><><<>%#$&&&$;&-;-$###>=%=>==%*$%##-%=;==##-$#=@*##1@$1,&-=+",
"==%=;<>1;;&O##$&&*$&--###=-%=->>-&&&#&O#$=&%#%@-####$&#;&&2>&=-%",
"==%=<<<=&<&#O##&&**&&*&###-%=<---$$&#$O&%=%=#$=$#=#=#*&->O,,*%--",
"=>=%>-<=&<-&###$#*&$$*$oO+-#=;--<#*&###o@=%;O%%-===##&#:&%1<&---",
"o>=O;->-%<>o%##=$*$&&&$o==-#-<%<-#&-&&$Xo@=-o@#-====o=@:>#1<>*-*",
"o==O;<>;%>-%o@o&&&&*@$$@O=>%=>=1-O&$*&@Oo#$%##$-#=-=#=@-<O,,,#--",
"O:===<<--1;&o%O#@$&&=&%OX%:%=>=<&*##-$O$oo#OO#$&===-#=O-<%;,<%-,",
"+==O%<<-=<==o###$#&$$-#@#=>==>=<&-O$%=$$O@XXo$#-=-=-#=O$<@,,;#>=",
"==>=+>:>=,==%%#$$$*#&*@@O#====%<$,@-&&&$%&#o@$$->-&&#&o%1%>,-%>&",
">O>===:==:%-O=@$$$*@&$#$##-=%>=1&,%&$-&@$&&#$#%-,**&$*o>1+<,-+,,",
"-o===;;>=<-&##O=$$*$$@o#o==+===<%,*@&&*$#=&%#&$---$*$&@*,+<><@>*",
";=:=O-:-%<==#=o$#**$$@@$O=-%==%<>,&+*&&%%%=%@&#***&%%*.&<o<,,%,*",
";+>===;>=;==&#@#*$-$###@#=-%&-&,*>&o>#&$%#@$$&#*;$$$&&X%<+2,>%;&",
":=====;;=;=&$##$*&-*###@==-=-=&<=>>o*$&$##$@$#*$-$#$&%X%<+<>,#-$",
";==:==;:---$o$o@*&-&#@##=o>%&-=><=,o*%&%Oooo##-&$*@%&&o*<@1,,&-&",
";>+===:<:;-$o#$#&*-$#@$&&+=o&;=;,%,@&*%%OOO#=$$#%*#&$$o-<#2<-&--",
">>o===;:1;==X#=#&$-$@o@==O-#-;&,<&-@%&$*&###*$&#$$#*%$@><#12-%<*",
"=-O1=-:><:===O==#-;-@o#%O#-==;&<,%,#$<#-$$&#@$$#&$$*%*o*,*1<-%->",
"=-=>O><;><==$#$$$-=-$o@=##=#%>&<>%,O@,@&****@$&&$$$-#*o;<><,*&-=",
"->===;><<1==##=##-=-#oo%====%-=<,-,@@*$*$*$#@**-*$**#*@->&1,-%;-",
"=:===-><;:%=#@$$&-$-$@O$O#-==-=>,>*%@*&-*$$$$&$,;&&&@-#;=&1,-&;&",
"-===O=1>-%=##@#=&-=-$$#@=O===-&;>,-#@;#-*#$$%*$**$$*$##>%=2-*&;-",
";-==+:1:#%%=$#=##-$$=#$@=O;==-=:><&o#,%**$*@#*$*&@&*&O$<&>1;&%;=",
"--O===>=%==-@$&#$-=&&$&@o====>=:&<*.&*%$;***#*$-##***@*1%>,<;#>-",
"==+%=-<==-:=##$$&*=$-$-oo&<&%>-1%<#.*&##---$#-$&$%*&*@*<%,>,<@;&",
"<===%-<===>$##$=$--$-#-@+&<%=%-1&>#.*&@#=:-$#-$@&@*%%@&<#2<>-O--",
"<#===>-+=%%@@%#&$-=$&#&@O&1%==-1>&o@,#o$&;-$#*#$##&$*X*<+1>,$%--",
">X-=%>-====#$$$$&-$-$$$@o&<%%-%,>#X*,#o&$--&$*$&&&*#*o*,%<>>#--=",
"=o=%&<;==#O@=O#@=-%&#=&###>=%>&-,@@**o@$---*#***#**#>o*<&<<<O-&-",
"+X===;;%=#XO=@##=-$%&-##%&>%%,--<o%**#%$-&&&#$-*#**@&@,<@1,<%---",
"+o=+=1:==Oo%$&%&=-%##%%#%=-=%>=-*o*1$&&&-<&*#$-&#*&#&@>,@1&,$><&",
"X===-<;==o#@@$&-=;%=#=&%#>=%%==,%o,%o$&$-*$*#&***;&&%+-<+1>-#->&"
};
