/* XPM */
static char *wood1[] = {
"64 64 35 1 ",
"  c #301F0D",
". c #2E230E",
"X c #33250F",
"o c #38240F",
"O c #2F2613",
"+ c #342710",
"@ c #3A2710",
"# c #362911",
"$ c #3C2C12",
"% c #3E3114",
"& c #3D3119",
"* c #422E13",
"= c #482F13",
"- c #453214",
"; c #4A3515",
": c #473815",
"> c #4D3916",
", c #44351A",
"< c #46391B",
"1 c #4B3C1C",
"2 c #503716",
"3 c #513B17",
"4 c #533E18",
"5 c #583F19",
"6 c #55411A",
"7 c #5A431A",
"8 c #5D491B",
"9 c #60471B",
"0 c #634B1C",
"q c #69501E",
"w c #554421",
"e c #5A4620",
"r c #5C4921",
"t c #624D23",
"y c #625027",
"66wwr<;34;--:6:3wrrrt:3;=>;*;44;rrett<3>:*:;:;;4y8rwe<3;-;;;73-0",
",7--5-;453*->7>4<>6:3:-;*>-=;373$;;33->;:>-*;>;4:<;-3-3;;;>;7>-0",
"*3-;3=;333--46>4,36;3>3;-;--;;3>%:>53*;-:>-->;;5,*3>;*>;;=>;33-0",
":7;-5-;;;3--34-3,33:3:3>-;-;>*;>$:;5>--;;<--;:<41:7-:-3;;=>->3-0",
"-3=-5>-;;;-;33-3$>>:>>>6=-=;;-33$>24;*;-;>:-;:;61:7;:-33;=;:35$0",
"#;-;5>3;----33;;#>3-3;26;-*3--30$;>3;*--;>::;>;3<-3<;;>6;*:;;3-3",
"#;-;5;>;--*;>3;3#:>;-:36;;=;;*53$>;3;$;-:>:*:>;3<->-3-332*;;;3;0",
"$-;;7->;*-*;>3-3%;>;3-34;-*;;=37%>3>=*>*->-@:;<3<,::>;733*-;<3>q",
"o*;;6-6;---;;>;3,>>>4>>6>-*;=;=7%>6>=$>;->--:>-5:-;%>;73;=-;;;30",
"@=;;6-;-;-:;>>>3,>:<7>>6-;$;-;-6->6-*o-*-3$-:3-81%;-;-73-;*-:;30",
"@-;;7>;;;;--;333,;:-76-:--o>;;;4*34>*$-$$-$:->*86$;->>63o-o>-->0",
"#-;;7;2;23;;;;331;:-7>-;3;*2=;>2-34>**>;>:---;-8,&;;>;-;7;->*-70",
"+;;>7;-;;;;;;337<--;7;;-4=*3-;>;->3>-$;-:---;;-71%::3:*->--;**40",
"+;;;6;*2;3;*>7:7w%-;7-2-4;->=;-2->3>=$-=:;*:;;*9w%-:6---**,>*;37",
"#>->5--2=3>$;7:46-*;6-;;3;;>=;23:6>>;o;;-,:-:=-01>:->$>;3$-;*235",
"<>;>4-;3*5;#>74;>-->3*>=6;->;*36:6;>2$-;*---7:$71;:-3%6;>-*;;;35",
"13=;3--3-7;$;87-:*;;6%3;5;;;;*44->;34@*;-**-6;=41;--7$>;>:::*-37",
",3;*2;-3*;2*677;6*;;3*6;6;=-;*34%-;>4$*>-->*3;-61<*-7$>;>-:>-;27",
"1>-*2$-3=7;$;76>1:-;3-736;*;;=;4%;;>7@*>*-;-->-51--;7$>;>;:>->;;",
",;-*5--5-7;=;7>66:-,;-734;*;;*;66>;>7**;*--*>--46;*>7$>;3:33>3>5",
"o;=*7*-5-4;@-6-76;-6;*7>6;*>-**96:::6**>--%@;;-3w,->7$>-3:>:;$;>",
"@4-;7$-7=6;;>7491;-6;-7>3=;;>;;5w6;;6*->--;*>;*><-->7*>-6,877335",
"+5*;7*$7;6;;-322:>;;;-3>;;*-;;*;w7;;6*;;*-->5;=24;;:5%::3:3>7327",
"#7;-7*#5;-;>->;;1:;;-->;**--*3*=66;;4*-;%-->4;;4w<;;6->->*52>237",
"#4;-7;*4;3;>;3;;&>:;;*;;o*=-;3*=w8-;4--;---;6;=5w>:;6,>=>-33:;57",
"$4;;7**;;;;>;3;;#>;:;*;;***-;3;=w1;;5-;--;->6;;516>-3-6:3-33--;5",
"o5*;7*=-*;;3;3==#;:>;*;;***--4;=1;;;6-*;-:->6;;217--6$6>>->3-3*7",
"@;=;7$*---;;>2*=#;;3;*;*=;-;;3;=1:;;7;;;::->3>;2,>--6->33;>;-7;5",
"#5*;5$*=**>>>3;=X-:73-;;;--;;3;;,*;;7-;;;:%;2;>6$:;-3-:--;3=-5-;",
"#3-$3@>=**;3;3;=#*:>6@;*;*;;;5-;<*>;7->>:>**;-27%>>:;$:>3->;=33=",
"*>;-;$;-**;4;3;;-:>>>@>*;*--;3;2<*:>7;;3*>-*4->0->3:;*;3>;:--23;",
".oXXoo;;;*;3;>:;.X+%#X;-;*--;5:3&X+o$#:3*>-*7;;7O#$$@+:>:>=;;-;2",
"wy788>=:;*66;32;w8877*=:=::==6=2e41yt:;>:---7-=778768-*;;>:;;->5",
"#>:>-**2>->6;;32#->>;@=;6;=:36:3,<-63$;36*--7-;6--**3*-;;;;;>--3",
"$;;;3$:36*;7:;6;%:;;3@:27>=*;6=3*4-37*;>7:-;7-=2,;*=3$;;-;;:>--3",
"#:-;6*:6>*;3-->2$;;-3$*666*:;3:6#3&37$>:>-;;3-;7-;**3*;;->;>>=;2",
"$;-;6-:6;>;6:;>6#-::2@;362=-->=6#6&>7$:-;;-;7:;7-:**3*>;-;:6-$35",
"%--;6-;6;>-6;->7#:-56$;63::**=*7$3*77$:->;>>3=;9::*;4*:>-;:7>=-3",
"---;6:;6;6-6>*26#-->7@:67;=:*3*6$:*67$-*372:7*;7>;*;4$;>--;3<=>3",
"%---6;-3;>:0>*36$-;:7*=23;;**6-2%>$67--*63;32;;7;;-;3$;;-;;3-*>3",
"%>-;6:->;>;36-24#3:63$;>3;;--6:2%;-76--*63-*;;;7*;-;3%---;-->*;3",
"%;--3*-;;>;7>->7&5-66@;23;;*-6*;$--66---*>**==;2*--->$*;-;-53--2",
"$---6*%-$;$8-*>7:3->4*:;;;-*;6*3@::66*%%*6$;=:22@*;-3-;:$*$3**32",
"X--->;>-3-*>-->8,6;>6*3;6;;-;3*3%%%66$;:->;;:->7 *;:>;7;*;3;@*35",
"#>-->-6-;*->;-37>>;34-3-3>;-;7-3%-:66$-6-;:;=:37@@-2>;7;*;>;*@33",
"%>-:;-7%-;*---30<::>3;3-;>--;3-3$->67--6-:-3*=23$-;33-7;*;;33*25",
"$%--;-6%;;-*--30&--;>-3->3-*-6-3%-;66----:-6*;;5o;;;3*3;=->5>:25",
"$*$:;->>*>-*-;30&;-;;->;>3;@3;-3#->66-:;$--3*=;9o;;23*;--;;73;23",
"+-%$;-3::-<---57#><;;$>-344*-;;3#%;66::>*-;4=;;9#->;5-**;;;4;>;7",
"#*--;*53-;-:;-30-:>--$3;3;6*@*-21->>6%::--;4=3;7@-;-0-o*;;;;-;;9",
"$%--;:33--;-:-77,:>;*$3*2>6-;;-61-;6>$-6-;>4-6;7$;;;0;*o*;-3-;;5",
":%*:3-3;--;:>*77<-3;;$3*3>6$=*-6:%:6>:-6:>;4;6>9-;;-3;**=3;3*>37",
"<%=-<-32--;-:*>71&;-;%>*6;7$*$*>1%:3;-:>->-;;>:3:>;-;--;;;;*#>;7",
"1:-:>-3;-;3;3->5>,::>-3;6;7-4;;4w%;36%-6:6:6;636:3;-3;=-;>33;740",
"1:-->-33--;;;$*31;--;:>36;3$;;*31*-38%-;:6--*-;;>3;;2-;;;;3-;4;7",
"1:-->:>:2;;;-o*;1::-:-;>6>6*;;*;6-::8::6:6---@-2;;;;4;=*;;4;;5;5",
"<6:-;->-;;-;-*@21:-::-;;4>4$--,3,--:5-,>-6-:*-$;:;:;6-;-;;7;>6-7",
"1;;;>=;>2;-;;*-3,-->:$3*6>;*;-:3,,-;3-->-6%:*-;;:==;;*;-;=6>86-0",
",:>>>-;43;-;---56,-;:&3;>>3*;;:>1,;*>:->-6$6*-->*;;=3*6:;;*>76;0",
"1:->>*;65;-;**-51-:->$4;3;;*;;;:<;:-3::>$6%>*--6-;=:6-7>;;=;66;0",
"1:-;>-;:5;*;*-*56%%->$6;33-*>3:7<:>*5-6::>->-=-3*:;:7;76;-;>34;q",
"1:>:>;;6>;--*-*51*-:;*4;>3>-;3=71>3-4*:>;>-:---7*>;=6>6;;;->>6;0",
",:>;>>;35*---;-3w%;$;:6>;3;-;3*71:>:6$>;->-;::-6$6;=3-6;=;;;;6;0",
"#O++#&;33-$-;>-5%.X.+$6;-3;*;3;3O##.$#6:>>-;=:-6.$o.$$4;*;-;44;q"};
