/* XPM */
static char *result[] = {
/* columns rows colors chars-per-pixel */
"64 64 130 2 ",
"   c #3F3521",
".  c #45351E",
"X  c #4C361E",
"o  c #4B381E",
"O  c #463D24",
"+  c #4C3D23",
"@  c #543E21",
"#  c #5A3F22",
"$  c #454027",
"%  c #4B4126",
"&  c #45432B",
"*  c #4A4529",
"=  c #4D4A2E",
"-  c #534324",
";  c #5B4324",
":  c #554827",
">  c #5B4927",
",  c #544729",
"<  c #544B2B",
"1  c #5B4D2A",
"2  c #57502E",
"3  c #5D522D",
"4  c #4B4C31",
"5  c #535233",
"6  c #5B5431",
"7  c #5D5835",
"8  c #5A5B3A",
"9  c #614524",
"0  c #624A26",
"q  c #6A4B26",
"w  c #634D28",
"e  c #6B4D29",
"r  c #704F29",
"t  c #6D5127",
"y  c #63532C",
"u  c #6C542B",
"i  c #67582F",
"p  c #6E5A2E",
"a  c #715227",
"s  c #73552B",
"d  c #79562C",
"f  c #755B2D",
"g  c #7A5D2E",
"h  c #645730",
"j  c #6A5630",
"k  c #645B34",
"l  c #6C5C32",
"z  c #635F39",
"x  c #735E32",
"c  c #7B5F31",
"v  c #7B612F",
"b  c #6D6135",
"n  c #66623B",
"m  c #6C653A",
"M  c #6F683C",
"N  c #746334",
"B  c #7C6432",
"V  c #7D6935",
"C  c #73663A",
"Z  c #736A3C",
"A  c #7B6D3B",
"S  c #7D713C",
"D  c #6C6B41",
"F  c #736E42",
"G  c #6F7045",
"H  c #777142",
"J  c #7A7242",
"K  c #825C2E",
"L  c #835F31",
"P  c #83632F",
"I  c #826532",
"U  c #8C6432",
"Y  c #846B35",
"T  c #8B6C35",
"R  c #836E39",
"E  c #8C6E39",
"W  c #946634",
"Q  c #946B35",
"!  c #996A35",
"~  c #936F38",
"^  c #996F38",
"/  c #877037",
"(  c #8D7136",
")  c #84723B",
"_  c #8B743A",
"`  c #8D793D",
"'  c #947336",
"]  c #9A7536",
"[  c #9C7937",
"{  c #937439",
"}  c #9A7539",
"|  c #947A3C",
" . c #9C7C3A",
".. c #A17E3B",
"X. c #806D40",
"o. c #857441",
"O. c #867B45",
"+. c #8C7C42",
"@. c #947E41",
"#. c #97803F",
"$. c #9D813E",
"%. c #A4833D",
"&. c #A8873E",
"*. c #A7883F",
"=. c #A9883F",
"-. c #8E8044",
";. c #8B8248",
":. c #958142",
">. c #9C8241",
",. c #928548",
"<. c #958A4B",
"1. c #9A8B4A",
"2. c #A48640",
"3. c #A98541",
"4. c #A68841",
"5. c #AB8C42",
"6. c #A38F49",
"7. c #B08F43",
"8. c #AE9145",
"9. c #AD9248",
"0. c #B29446",
"q. c #B69847",
"w. c #B39648",
"e. c #B69949",
"r. c #B99D4B",
"t. c #BDA24E",
"y. c #BFA550",
"u. c #C1A54F",
"i. c #C1A750",
"p. c #C3A951",
/* pixels */
"I 3.6 B %.=.%.5.| - 5. .&.s q f e.0.r.8.r.8.5.e.0.4.0.' | q.5.r.q.q.o.) V | N &.| %.8.8.s 8.r.$.r.u.%...4.r.v 5.T %.9.9.5./ *.Q ",
"( w.y T 8.=.%.=.$.@ 0.[ 8.k y f 8.0.9.8.r.8.4.e.q.&.5.B =.q.%.t.w.e.| V Y | v ..%.&.5.5.a 4.w.2.r.t.%.7.4.t.- 0.s &.e.5.0.2.4.E ",
"Y 9.; &.q.*. .5.$.@ w.%.0.* p : 0.$.4.8.t.8.&.0.r.4.%.L s =.%.t.$.q.| V Y ( v 8.4.&.=.5.e *.q.5. .t.%.r...e.9 | f *.4.4.8.r.%.T ",
"(  .f 5.q.%.] *.6.- 0.8.' i m O =.B &.0.t.q. .0.r.4.%.0.E 5...e.I 0.{ N Y T Y 8.e.0.=.=.t &.r.5.g q.0.q.%.K q T f &.%.0.=.r.=.P ",
"Y 5.R 7.q...] 5.5., ( 5. .p A : 0.I %.0.t.0. .r.t.=.4.0.=.=.5.w.R L _ N Y &.=.Y 0.8.5.5.s N q.5.u w.8.5.%.a d v u 5.&.5.0.e.5.T ",
"B 0.Y 0.5...[ 8.4.p v 0.-.N o., | $.0.e.t.w.%.t.e.0.4.5.=.=.0.w.{ L R 3 | r.=.v 5.5.8.5.K g q.=.a 0.r.0.5.1 d I s q.5.0.0.r.7.| ",
"# 0.I 0.8.%.] 8.4.l B 0.+.N +.= v 5.8.t.t.8.&.t.r.=.4.5.5.&.e.5.d d  .6 t.q.&.o 0.*.5.0.K s 0.4.s 0.=.8.0.u Y Y < N | q.0.e.0.] ",
"q Y V e.0.&.] 5.2.p v 8.#.C F = - 8.5.t.t.=.=.t.u.%.=.0.q.5.q.5.K K %.2 q.r.=.o t.*.8.=.P v q.5.a *.=.5.q.f u c h ; R r.0.5.5...",
"e R V r.0.%.[ %.$.N T ; E M n 5 - 3.%.t.t.%.8.t.t.%.4.5.0.8.e.8.{ 5.3.4 *.q. .% >.5.5.4.[ v r. .Q s w.4.0.I j T l * Y r.5.=.5.] ",
"d B B r.8.%.] 5. .N E s U R b C y %.$.q.0.%.q.8.w.&.5.*.e.8.r.8.0.4.3.< B 0.[ * B r.2.&.%.B r.] ] q r.e...{ 3 } A 1 ) 5.8.0.&.} ",
"W u N e.0.5.4.%.| N %.f R R A m 1 &.4.q.q.0.q.=.e.*.9.>.w.w.r.0.9.4...h B 5.>.l - 8.&.&.&.( #.] ] t t.0.4.E 4 { +.x S &.0.3.%.[ ",
"I h B e.0.4.0.3.| V W j V C ) N y Y &.0.e.&.0. .e.4.4.%.8.w.0.8.0.....B R 8.5.V , s 5.%.&.5.( g [ t w.0.0.( < U o.N ) =.q.5.%...",
"T l R 0.q.4.5.5.,.N I N m J E N h B &.0.r.5.e.B w.5.5.*.5.r.e.8.w.3...c X.7.9.A 2 R 4.%.%.=.( v &.f q.0.5. .h L ) ) ) 5.r.0.[ ..",
"A 7 B 9.r.3.5.8.<.N Z E m @._ k u . ..e.8.5.2.g e.4.8.4.5.t.0.w.w.%. .B   0.9.) k v *.&.5.=.E I { - e.0.5.R k d { / o 0.r.>.....",
"A n c 9.r.0.0.w.1.Z n E @...) l I - =.t.e.&.| v 0.*.&.%.4.e.w.w.0.4.@.R @ 0.9.) k v r.5.%.=.Y %.T ; #.q.7.X.x w } A O r.r.T [ 4.",
"O.N g >.w.e.i.4.>.+.E A W { _ N T : 5.r.e. .` Y e.&.4. .&.e.q.r.w.5.7.{ , r.6._ k b t.8.&.7.t [ I B Y 0.} J A , ..A * B w.Y [ 5.",
",.N N N =.r.p.=...O.E j ! ! ) u } * / t.r...#.) 8.=.%.| 5.r.5.r.8.&.t.+.3 t.<.` C 1 r.8.&.0.g ' %.B B 0.U ` ` 1 4.| k / 8.V %.*.",
";.l Y B =.t.e.q.} @.V j ! ! B A 4.< f p.8.[  .S ( 5.4.&.%.r.0.e.=.%.r.n y 8.1.>.B p 0.r.[ q.T ] q./ B 8.! o.>.w 4.| k N | / ..%.",
";.7 Y v 3.t.q.0.} | V u ^ } j R w.6 I t.0.%. .J B 0.4.3.%.r.8.0.8.%.q.D y Y 6. .B Y 8.q.%.t.0.%.0./ Y 8.! ) >.y 4.W k u ( y 0.=.",
"_ 2 ( s 8.i.5.w.} o.V u { 2.2 E r.7 3.0.9.*.$.S Y 0.&.%.*.e.0.0.8.%.q.J 1 _ 9. .Y #.0.8.5.t.0.5.E u B =.Q _ :.1 7.{ g N Y @ q.8.",
"( < $.o e.i.5.8.4.F l s T 0.3 8.y.k 4.7.4.5.5.1 I w.&.$.8.e.0.0.0.&.0.Z > r.9.| N | t.8.*.r.8.8.] t P &.U | ` % 9. .Y V i % q.=.",
"E > 5.o 8.i.0.4.5.M k d Y 0.; q.t.7 7.0.*.t. .> I w.4.%.8.0.q.0.0.*.q.N ; t.9._ k | t.4.g e.&.%.3.e R &.g :.Y - 8.%.T g k > q.5.",
" .: %.@ 0.t.e.=...n y g I 5.- q.t.2 0.w.5.0..., Y q.4.[ 5.8.q.0.5.&.r.s | 0.9._ f _ t.*.f q.&.] *.q | ( g ` A : 0. ./ I N % e.=.",
") y &.@ t.t.9.4.%.M 3 Y *.4.- q.t.y 0.r.0.e...$ B q.=.] 4.3.q.q.5...e.t 8.8.9._ N $ r.*.N 5.q.[ *.N ] I v ) C , e.O.( R g 3 8.*.",
"%.B 5.q r.8.0.[ %.F 3 Y 5.5.y 8.y.b 5.q.w.0.%.& B w.4...*.%.0.q.3. .0.' 5.0.{ _ l O y.| N 5.q.*.5.c { d x G F = Y | F E E 1 0. .",
"5.T %.] q.8.8. ...l y u 5.8.: =.y.C =.=.7.5...4 B w.3.[ 8. .0.0.3.%.=.%.8.$.{ C x O y.c V 5.=...@.s @.d V { { k Y  .@.R R < q.] ",
"5.%.[ e.r.r.5.%.} V y t *.0.: %.t.N %.5.5.&.%.6 E e.4...w.%.q.q.4.%.=.%.5.7.{ x x * i.B B 5.%...{ f 0.c c U } N ) T ! D Y 4 w.' ",
"5.%...8.e.r.0.&.} _ u | w.0.> *.p.n g 0.&.5.3.6 $.e.=.%.q.f r.e.=.&.=.] r.e.{ x A % u.g V 3.=...{ a 8.l r E ..N - V 4.M V < q.] ",
"5.=.q.q.5.e.5.8.E R t 5.r.0.; 8.p.5 I &.5.5.e.2 | 8.=.$.P v r.t.5. .5...w.e.5.k A % r.Y V 5.5...{ T 4.) > v %.k : B 0.A N 3 q.%.",
"4.5.%.r.5.=.5.0.| / y %.e.r.; 8.y.3 v &.0.8.q.y  .0.*. .Y > w.t.=.=.%.&.r.7.5.C x y $.N ) w.5.4.7.3.4.| 1 f 5.z , B e.( N ; t.=.",
"8.&.=.q.8.%.&.4.2._ y [ w.5.s w.t.p V 4.r.0.q.w t.=.5.] V O 8.w.&.5.c  .4.r...F N 1 I w ) 5.5.0.e.5.4.( 1 v 3.n * I r.{ B Y i.=.",
"0.=.u.u.5.%.*.5.4._ : ] w.&.{ 0.w.s R 5.t.0.e.u t.$.0.%._ O 8.8.&.&.V 3.7.e...A B y R q ) %.5.5.0.4.5.~ 2 I 0.) , I r._ V 2.i.&.",
"0.0.5.p.5...%.%.| V + %.5.&.0.e.0.I 5.5.y.8.4.B r...w.3.:.O 5.0.%.8.Y &.r.8...) N j s q Y 4.5.5.0.%.5.| 3 R =.x 0 4.t.T k r.0.4.",
"0.0.0.r.5...=.&.' 8 - =.8.&.w.e.e.Y r.&.y.r.g r.r...r.0._ @ 4.7.4.8.V =.w.4.] Z ) s x 9 I 9.5.0.0.2.5.@.y B q. .- 4.t.I > 0.e.4.",
"5.8.5.e.=.=.%.&.x 7 - [ 4.T 8.0.e.4.t.| t.e.g q.r.%.e.{ B - 3.5.5.T Z r.0.3...m l B j w T 9.5.e.9.3.9.>.y g 0.%.g | t.I f q.3.2.",
"5.8.4.q.=.e.( 0.x 7 + 5.=.s 8.8.t.2.4. .y.w.&.8.0.] 0...I @ ..w.%.( A t.0.5.3.n s c l 0 g 0.0.e.0.2.5.2.> g q.%.>.$.t.T Y e.| 5.",
"4.4.e.2.5.5.g 0.O.m p 4.0.K T 8.| B &.4.r.0.%.r.8.] 0.( c 1 0 w. ._ V r.r.8.3.n Y A l 0 B y.e.r.0.4.8.3.< B 0.4.t.8.i.S Y 9.4.4.",
"8.4.w.3.q.4.N =.:.J | %.r.P B 5.| s =.4.t.8. .t.5.] e.c j y # w.%.| Y r.r...8.3 I _ j d Y y.0.0.e.8.5.e.y B 7...t.w.t.{ Y 0.5.=.",
"8.5.w.5.0.5.E t 6.J R 5.t.I B 2.q a 5.4.r.0.%.e.] &.4.x R B + 5.5._ Y 0.0.4.4.u B | s U w i.0.5.0. .0.y.I w 5.0.r.8.t.( Y 8.0.5.",
"5.8.5.9.q.4.V % 2.S R r.r.Y { %.u u 5.5.q.q.| t.&.[ %.j _ { 1 9.0./ v e.8.0.%.g a 3.e 5.@ i.5.0.w. .8.r.` + 4.e.q.8.r.%.Y 5.5.8.",
"8.9.v *.0.5.B y _ H _ t._ g 0.} N N 5.5.0.t.I i. .%.&.B i  .* r.8.' g r.8.0.$./ g [ { q.; 0.0.4.8.*.8.t._ % %.r.q.q.0.q.T w.&.0.",
"8.%.o %.r.8.z p E J E 8.$.g 0...Y : 0.5.0.t.' e. .=.4.A N  .4 w.4.0.s t.=.%.=.( g %.5.r.a 0.2.0.0.0.0.e._ - %.8.q.0.0.r.u q.*.r.",
"e.E o Y w.8.Z x E ) Y =.e.I 0...E : 5.5.0.u.%.0.%.0.0.C A ..5 w.5.q.f 0.....=.T v 4.9.e.r.8.[ 0.8.r.q.q.S : 3.9.q.0.5.q.q v 5.w.",
"8.] $ T p 4.H u >._ T &.t.( ) =.V - 5.5.8.p.4.w.%.0.8.U V ..4 w.5.0.{ 0.%.0.[ U Y 5.*.r.q.5. .5.5.t.R 0.` ; &.8.q.8.q.t.f R 0.8.",
"4.5.y Y ; =.m y 1.) B 7.2.=.Y 4.I $ 5.0.0.t.%.8.0.5.0.L I q.* 8.0.t.R q.&.r.%.K u 5. .r.8.5.[ 5.e.w.Y w.` q %.9.q.5.t.q.' Y 0.w ",
"=.8.N Y 9 0.k g 2.V : 0.| 5.B 4.@.- &.0.4.q.5.4.5.&.5.| | t.: %.q.t.t q.%.t...K ; =.2.e.5.5.%.5.e.5.A e.{ 5.%.5.0.q.e.5.T v e.; ",
"8.5.N > U { 5 B 2.m O 0.r.Y B %.5.y g 0.8.0.5.5.=.&.5. .0.t.; %.0.r.Y e.X e.%.w 9 4.%.0.q.5.5.5.0.=.y 0.5.8.%.5.7.q.0.0.T I q.@ ",
"&.5.B %  .L > I $.l , X e.a c 3.3.y f 0.0.7.4.&.4.&.=.0.5.t.T ..w.r.q.q.; q.&., q ..&.e.0.0.8.4.0.0.1 | 4.5...5.0.5.5.e.K T 0.V ",
"5.5.) % 3.B > 7.} w y 9 5.q s 0.r.y f =.=.q.8.*.8.5.4.0.5.u.=.| e.0.w.w.; 0.8.< g [ %.0.8.8.5.=.5.q.i 0 5.5.$.9.8.0.*.q.K Y =./ ",
"4.' ` y 5.B - w.} 6 l d L ; d 4.0.u s 0.%.0.8.5.v 0.q.=.=.i.0.%.8.0.r.r.Y r.0.4 g %...0.0.5.5.*.0.r.i 9 8.5.&.5.0.q.&.r.E { *.` ",
"&.] _ y %.T O 0...6 l ! ! ; [ %.=.u d 0.r.] 0.8.g r.5.5.9.t.r.5.8.r.t.r.) y.5.< f ..%.8.w.0.*.*.8.e.y t 8.8.%.9.r.r.%.t.| q.8./ ",
"{ | ( y ..E + 0...< s Q ! + %.5.%.] P 8.q.] q.=.N 0.5.0.5.e.w.8.5.9.y.w.E 0.{ p f [ &.0./ 9.*.[ 0.8.l ) 5.e.*.%.r.u.=.e.8.8.5.S ",
"; $.` i ..U > 5.5.5 y .. .> Y 8.q.5.=.8.q.] e.%.v &.5.0.e.e.w.w.3.| r.q.Y 5.| s f %.%.0.T { *.$.8.=.B Y 5.w.5.4.5.t.w.w.8.&.8.S ",
"; 2.` y } W 0 =...z N e...w B 8.q.q.=.0.0.%.e.&.N %.4.r.e.w.8.r.4.%.t.q.q =._ g a *.%.8.s [ %.%.0.=.Y N %.%.%.%.5.r.0.0.w.q.*.S ",
", %.| < 3.U E 5.5.z N w...y I 4.q.0.%.0.=.[ e.| V 0.4.0.0.8.5.t.4.4.r.( ; q.v K f %.%.0.; %.=.%.8.0.B l 9.*.&.%.9.0.0.w.q.e.=.l ",
", | @.6 { 2.%.0.} < B 7.} > 0.q.q.=...0.=...e.T b 5.8.5.9.*.5.t.5.0.e.t 9 0.f ( P %.&.=.% =.5.%.5.8.I l w.%.&.%. .0.5.0.q.0.0.B ",
"1 ] >.i R r.%.0.} y V 0.[ + 5.0.e.0.%.5.i.&.r.U p &.&.*.9.%.=.t.5.4.e.* B 5.f g =.%.0.8.1 0.8.] 8.5.Y v 8.5.%.5.%.5.5.8.9.8.0.N ",
"0  .1.3 0.=.[ 0.#.y _ =._ 1 0.8.8.r.*.8.p.&.r.T V [ r.%.w.*.&.t.5.5.e.N s 8.d g 5.[ t.8.* 5.0.[ 0.e./ Y %.0.%.6.%.5.r.8.t.e.8.N ",
"; ..#., 0.=.[ q.%.y / =._ | w.8.0.y.5.4.p.| t.%.B 8.q.' e.%.4.t.&.4.8.Z V e.E =.8.] 0.0.= *.0.[ 0.w.R =.5.r.5.%.=.q.q.5.r.0.8.B ",
"; 5.` y 5.0...e.' y T 5.T y 5.5.r.r.w.&.u. .t.&.{ &.p. .r.%.6.t.&.5.0.o./ q.I [ 5.[ 5.5.2 8.r. .r.t.] 8.q.t.3.5...r.8.5.e.r.5.N ",
"t 4.| 1 %.=.%.t.U w T e.Y - 5.Y t.8.t.5.t.%.t.4.u.=.t.0.r.$.8.t.5.8.5.:.| q.f [ 5.] =.0.y %.r.%.y.y.&. .u.u.&.8.] u.5.8.r.r.5.B ",
"t %._ l %.=.%.r.W ; 0.r.Q O 0.B t.&.r.%.t.5.e.*.e.0.t.*.8.5.5.r.8.0.Q :./ r.# %.0.[ 5.5.;  .t.%.p.t.&.&.5.u.&.0.%.e.t.5.q.r.5.j ",
"e } M A %.0.*.r.W @ 9. ...: $.v u.%.e.8.t.9.q.4.q.] q.Y | 0.*.t.w.e.| | V 4.# &.0.[ 8.=.a 4.t.%.q.u.%.0.%.e.| 8.&.5.r.5.5.2.5.s ",
"e %.6 ) %.5.%.0.T + 5.[ ..q a f r.8.e.8.r.8.0.*.q.$.w.{ Y w.8.r.8.r.` S V %.; %.>.0.5.0.s 0.t.] r.u...8.=.q.Y 4.&.5.t.9.9.R 3.T "
};
